<svg id="Layer_1" data-name="Layer 1" xmlns="http://www.w3.org/2000/svg" viewBox="0 0 265 265"><defs><style>.cls-1{fill:#6f2c8f;}.cls-2{fill:#fff;}</style></defs><title>car03</title><circle class="cls-1" cx="132.5" cy="132.5" r="132.5"/><path class="cls-2" d="M99.28,49.21l-7.15,3.08,1.5,8-3.08,1.33L85.47,31.72l3.63-1.57,18.09,24.26L104,55.78Zm-1.71-2.37L88.86,34.79l2.76,14.6Z"/><path class="cls-2" d="M128.69,41.71l.12.91c.73,5.42-2.31,8.37-7.93,9.13l-6.29.85-3.93-29.16,6.91-.94c4.71-.63,8.07,1.68,8.69,6.26l.1.71a5.83,5.83,0,0,1-3,6.21C126.24,36.14,128.2,38.12,128.69,41.71ZM118,25.34l-3.71.5,1.29,9.58,3.71-.5c3-.4,4.26-2,3.85-5.06l-.09-.67C122.6,26.15,120.91,24.94,118,25.34Zm7.48,16.8c-.47-3.5-2.65-4.81-6.44-4.3l-3.08.41,1.49,11.08,3.09-.41c3.79-.52,5.53-2.36,5.06-5.86Z"/><path class="cls-2" d="M142.82,43.37l-7.76-.47-2.24,7.77-3.36-.2,8.93-28.93,3.94.25,5.21,29.78-3.44-.2Zm-.45-2.89L140,25.81l-4.11,14.28Z"/><path class="cls-2" d="M153.59,30l.16-.61c1-3.87,4.4-5.73,8.51-4.66s6.3,4.5,5.23,8.66l-.44,1.66L164,34.48l.47-1.84a4,4,0,0,0-2.89-5.27,3.74,3.74,0,0,0-4.82,2.84l-.16.61a5.23,5.23,0,0,0,1.55,5.27L161,39.18c2.76,2.94,3.7,5.83,2.86,9l-.2.77c-1.12,4.32-4.45,6.1-9,4.92s-6.42-4.71-5.3-9.07l.69-2.65,3.14.65-.73,2.81c-.71,2.72.33,4.91,2.9,5.57s4.44-.37,5.14-3l.2-.78c.54-2.07-.11-3.93-1.84-5.82l-2.74-3C153.47,35.7,152.81,33.05,153.59,30Z"/><path class="cls-2" d="M176.79,59l-1.19,2.61-11.81-5.4L176,29.47l11.05,5.05-1.19,2.6-8.06-3.68-4.09,8.94L180,45.26l-1.19,2.6L172.53,45,168,55Z"/><path class="cls-2" d="M83.39,198.46l5.7,3.66c5,3.22,5.47,7.66,2.09,12.93l-5.35,8.35c-3.38,5.28-7.6,6.71-12.63,3.49l-5.69-3.65Zm-8.64,26c3.21,2.07,6,.83,8.32-2.85l5.35-8.35c2.36-3.68,2.34-6.69-.88-8.75l-2.93-1.88L71.81,222.6Z"/><path class="cls-2" d="M100.08,236.86,99,239.52,87,234.7l10.91-27.34,11.29,4.51-1.06,2.65-8.24-3.28-3.65,9.14,6.45,2.57-1.06,2.65L95.14,223l-4.08,10.23Z"/><path class="cls-2" d="M125.63,236.63l-7.73-.88-2.64,7.65-3.34-.37,10.42-28.43,3.92.44,3.66,30-3.43-.39Zm-.3-2.91L123.75,219l-4.86,14Z"/><path class="cls-2" d="M150,228.66l.49,5.65c.55,6.24-1.91,9.88-7.23,10.34s-8.47-2.67-9-8.91l-1-11c-.52-5.95,2.24-9.6,7.35-10.05,4.9-.44,8.27,2.48,8.77,8.05l.09,1.13-3.24.54-.12-1.39c-.34-3.89-2.32-5.74-5.25-5.49-3.23.29-4.71,2.65-4.33,6.93l1,11c.37,4.36,2.26,6.64,5.49,6.36s4.6-2.86,4.22-7.21l-.24-2.81-5.12.45-.25-2.85Z"/><path class="cls-2" d="M171.42,229.28c1.68,5.42-.12,9.27-5.06,10.81s-8.68-.61-10.36-6l-6.2-20,3.13-1,6.2,20c1.13,3.65,3.41,5.19,6.39,4.27s3.9-3.46,2.77-7.11l-6.2-20,3.13-1Z"/><path class="cls-2" d="M185.87,222.51,179,226.24l2.24,7.78-3,1.61-7.82-29.26,3.47-1.9L194.24,227l-3,1.65ZM184,220.3l-9.79-11.18,4.11,14.28Z"/><path class="cls-2" d="M131.69,191.5c-15,0-27.74-7.77-35.07-21.32a50.28,50.28,0,0,1,2.24-50.82c13.12-20.07,26.7-38.88,33.62-48.31a6.71,6.71,0,0,1,11.18.55c4.26,7.14,13.8,22.7,29.79,46.68,10.3,15.45,11.64,32.06,3.77,46.76C168.75,180.87,150.45,191.5,131.69,191.5Zm6.19-117.74a1.22,1.22,0,0,0-1,.51c-6.89,9.39-20.41,28.11-33.46,48.08a44.76,44.76,0,0,0-2,45.23c6.35,11.74,17.38,18.47,30.28,18.47,16.8,0,33.17-9.48,40.72-23.58,6.87-12.85,5.63-27.47-3.5-41.16C152.85,97.22,143.27,81.58,139,74.39h0a1.24,1.24,0,0,0-1-.63Z"/><path class="cls-2" d="M133.47,174.17c-9.82,0-18.21-5.1-23-14a32.75,32.75,0,0,1,1.46-33.1c6.71-10.26,13.64-20,18.28-26.46a8.55,8.55,0,0,1,14.23.54h0c3.09,5,8.41,13.49,16.24,25.23,6.71,10.07,7.58,20.92,2.43,30.54C157.49,167.41,145.86,174.17,133.47,174.17Zm3.65-71.63a3.07,3.07,0,0,0-2.52,1.29c-4.6,6.36-11.48,16.07-18.13,26.25a27.21,27.21,0,0,0-1.22,27.51,20.3,20.3,0,0,0,18.22,11.13c10.24,0,20.21-5.77,24.81-14.35,4.15-7.76,3.39-16.62-2.16-24.94-7.88-11.82-13.24-20.34-16.34-25.41a3.08,3.08,0,0,0-2.53-1.48Z"/><path class="cls-2" d="M40.22,152.46a13,13,0,0,1-11.71-7.1,16.29,16.29,0,0,1,.73-16.47c5.12-7.84,10.62-15.18,10.68-15.26a2.78,2.78,0,0,1,2.35-1.08,2.73,2.73,0,0,1,2.2,1.38s2.77,4.9,9.26,14.64c3.31,5,3.74,10.54,1.18,15.32A16.76,16.76,0,0,1,40.22,152.46Zm1.64-32.26c-2,2.84-5.12,7.18-8.06,11.68a10.79,10.79,0,0,0-.49,10.89A7.68,7.68,0,0,0,40.22,147a11.38,11.38,0,0,0,9.88-5.68c1.13-2.12,1.89-5.53-.9-9.73C45.77,126.45,43.38,122.68,41.86,120.2Z"/><path class="cls-2" d="M224,152.46a13,13,0,0,1-11.7-7.1,16.31,16.31,0,0,1,.72-16.47c5.13-7.84,10.62-15.18,10.68-15.26a2.8,2.8,0,0,1,2.36-1.08,2.73,2.73,0,0,1,2.2,1.38s2.76,4.9,9.26,14.64c3.3,5,3.73,10.54,1.17,15.32A16.75,16.75,0,0,1,224,152.46Zm1.65-32.26c-2,2.84-5.12,7.18-8.07,11.68a10.76,10.76,0,0,0-.48,10.89A7.66,7.66,0,0,0,224,147a11.38,11.38,0,0,0,9.88-5.68c1.14-2.12,1.9-5.53-.9-9.73C229.54,126.45,227.16,122.68,225.64,120.2Z"/><path class="cls-2" d="M133.29,164.51c-12.07,0-16.29-10.91-16.83-16.68a2.73,2.73,0,0,1,5.43-.52h0c0,.48,1.3,11.74,11.4,11.74a2.73,2.73,0,1,1,0,5.46Z"/></svg>