<?xml version="1.0" encoding="utf-8"?>
<!-- Generator: Adobe Illustrator 24.0.0, SVG Export Plug-In . SVG Version: 6.00 Build 0)  -->
<svg version="1.1" id="Layer_1" xmlns="http://www.w3.org/2000/svg" xmlns:xlink="http://www.w3.org/1999/xlink" x="0px" y="0px"
	 viewBox="0 0 265 265" style="enable-background:new 0 0 265 265;" xml:space="preserve">
<style type="text/css">
	.st0{fill:#6F2C8F;}
	.st1{fill:#FFFFFF;}
</style>
<title>car01</title>
<circle class="st0" cx="132.5" cy="132.5" r="132.5"/>
<path class="st1" d="M35.6,78.3l1.7-2.8l25.1,15.4l-1.7,2.8L35.6,78.3z"/>
<path class="st1" d="M52.1,56.4l22.4,19l-2.5,3l-25.2-8.4l18.8,16l-2,2.4L41.2,69.2l2.7-3.2l24.2,8.1l-18-15.3L52.1,56.4z"/>
<path class="st1" d="M79.8,52.1l3.5,4.5c3.8,5,3.7,9.3-0.5,12.6s-8.6,2.3-12.4-2.7l-6.8-8.8c-3.6-4.8-3.3-9.3,0.8-12.4
	c3.9-3,8.3-2.4,11.7,2.1l0.7,0.9l-2.4,2.2l-0.8-1.1c-2.4-3.1-5-3.6-7.4-1.8c-2.6,2-2.5,4.8,0.1,8.2l6.8,8.7c2.7,3.5,5.5,4.4,8,2.4
	s2.3-4.9-0.3-8.3L79,56.3l-4.1,3.1l-1.7-2.3L79.8,52.1z"/>
<path class="st1" d="M91.6,48.2l-3.5,1.7l5.7,11.6l-2.9,1.4L77.9,36.5l6.7-3.2c4.3-2.1,7.8-1.1,10.1,3.5l0.6,1.2
	c1.9,3.8,0.9,6.5-1.1,8.5l10.3,9.9l-3.1,1.5L91.6,48.2z M87,47.4l3.5-1.7c2.4-1.2,3.4-3.3,2-6.2l-0.7-1.4c-1.4-2.9-3.3-3.6-6.1-2.3
	l-3.5,1.7L87,47.4z"/>
<path class="st1" d="M118,49.5l0.8,2.8l-12.5,3.5l-7.9-28.3l11.7-3.3l0.8,2.8l-8.5,2.4l2.6,9.5l6.7-1.9l0.8,2.8l-6.7,1.9l3,10.6
	L118,49.5z"/>
<path class="st1" d="M117.8,22.6l6.7-0.6c6-0.5,9,2.7,9.6,9l0.9,9.9c0.5,6.2-1.9,10-7.9,10.5l-6.7,0.6L117.8,22.6z M126.8,48.5
	c3.8-0.3,5.2-3,4.9-7.3l-0.9-9.9c-0.4-4.4-2.2-6.7-6-6.4l-3.5,0.3l2,23.6L126.8,48.5z"/>
<path class="st1" d="M139.9,21.6l3.3,0.2l-1.6,29.4l-3.3-0.2L139.9,21.6z"/>
<path class="st1" d="M158,50.7l-0.5,2.8l-12.8-2.3l5.2-29l11.9,2.1l-0.5,2.8l-8.7-1.6l-1.7,9.7l6.8,1.2l-0.5,2.8l-6.8-1.2L148.4,49
	L158,50.7z"/>
<path class="st1" d="M185.3,32.5l-10.7,27.4l-3.6-1.4L170.8,32l-9,23l-2.8-1.2l10.7-27.4l4,1.5l0.2,25.5l8.6-22L185.3,32.5z"/>
<path class="st1" d="M203,46.5l-4.9-3.2l-14.4,22.3l-2.8-1.8l14.4-22.3l-4.9-3.2l1.6-2.4l12.6,8.2L203,46.5z"/>
<path class="st1" d="M201.4,76.8l-1.9,2.1l-9.5-8.8l20-21.6l8.9,8.3l-1.9,2.1l-6.5-6l-6.7,7.2l5.1,4.7l-1.9,2.1l-5.1-4.7l-7.5,8.1
	L201.4,76.8z"/>
<path class="st1" d="M217.6,65.6l0.5-0.4c3.2-2.4,7-1.8,9.6,1.6c2.6,3.4,2.2,7.4-1.2,10l-1.4,1l-2-2.4l1.5-1.2
	c1.9-1.2,2.5-3.6,1.3-5.5c-0.1-0.1-0.2-0.3-0.3-0.4c-1.2-1.7-3.5-2.2-5.2-1c-0.1,0.1-0.2,0.2-0.3,0.3l-0.5,0.4
	c-1.6,1.2-2.4,3.2-2,5.1l0.4,4.2c0.4,4-0.7,6.9-3.3,8.9l-0.6,0.5c-3.5,2.7-7.3,2.1-10.1-1.7s-2.2-7.7,1.4-10.4l2.1-1.6l2.1,2.4
	l-2.3,1.8c-2.2,1.7-2.8,4.1-1.1,6.2s3.7,2.4,5.9,0.8l0.6-0.5c1.7-1.3,2.3-3.2,2.1-5.7l-0.3-4C214.1,70,215.2,67.5,217.6,65.6z"/>
<path class="st1" d="M89.6,203.2l-18.2,23.1l-3-2.4l7.5-25.5l-15.3,19.4l-2.5-1.9l18.2-23.1l3.3,2.6l-7.2,24.5l14.6-18.6L89.6,203.2
	z"/>
<path class="st1" d="M91.8,228.2l-7-3.4l-5,6.4l-3-1.5L96,206.4l3.6,1.7l-6.5,29.6l-3.1-1.5L91.8,228.2z M92.5,225.4l3.4-14.5
	l-9.2,11.6L92.5,225.4z"/>
<path class="st1" d="M116.1,216.7l-5.6-1.7l-7.6,25.5l-3.2-0.9l7.6-25.5l-5.6-1.7l0.8-2.7l14.4,4.4L116.1,216.7z"/>
<path class="st1" d="M131.6,236.5c-0.5,5.6-3.7,8.5-8.8,8s-7.8-3.9-7.3-9.5l1.9-20.8l3.3,0.3l-1.9,20.8c-0.3,3.8,1.2,6.1,4.3,6.4
	s4.9-1.7,5.3-5.5l1.9-20.8l3.3,0.3L131.6,236.5z"/>
<path class="st1" d="M144,231.1l-3.8,0.4l1.4,12.8l-3.3,0.4l-3.3-29.2l7.4-0.8c4.7-0.5,7.8,1.6,8.3,6.6l0.1,1.3
	c0.5,4.2-1.3,6.5-3.9,7.6l6.4,12.8l-3.4,0.4L144,231.1z M139.9,228.9l3.9-0.4c2.7-0.3,4.3-2,3.9-5.1l-0.2-1.6
	c-0.4-3.2-1.9-4.5-5-4.2l-3.9,0.4L139.9,228.9z"/>
<path class="st1" d="M168.5,230.5l-7.4,2.4l0.8,8.1l-3.2,1.1l-2.4-30.2l3.8-1.2l15.8,25.8l-3.3,1.1L168.5,230.5z M167,228l-7.6-12.8
	l1.5,14.8L167,228z"/>
<path class="st1" d="M190.9,225.1l1.4,2.5l-11.1,6.1L166.9,208l2.9-1.6l12.9,23.2L190.9,225.1z"/>
<path class="st1" d="M205.5,213.9l1.8,2.2l-10.1,8.1l-18.4-23l9.5-7.6l1.8,2.2l-6.9,5.5l6.1,7.7l5.4-4.3l1.8,2.2l-5.4,4.3l6.9,8.6
	L205.5,213.9z"/>
<path class="st1" d="M194.1,197.8l-0.5-0.4c-3-2.6-3.1-6.5-0.3-9.7s6.9-3.6,10.1-0.7l1.3,1.1l-1.9,2.4l-1.4-1.3
	c-1.5-1.6-4-1.7-5.7-0.2c-0.1,0.1-0.2,0.2-0.3,0.4c-1.5,1.5-1.5,3.8,0,5.3c0.1,0.1,0.2,0.2,0.3,0.3l0.5,0.4c1.5,1.3,3.5,1.7,5.4,1
	l4.1-1.2c3.9-1.1,6.9-0.7,9.4,1.5l0.6,0.5c3.3,3,3.4,6.7,0.3,10.2s-7.1,3.6-10.5,0.6l-2.1-1.8l2-2.5l2.2,1.9
	c2.1,1.9,4.5,1.9,6.3-0.1s1.7-4.1-0.4-6l-0.6-0.5c-1.6-1.4-3.6-1.7-6-1l-3.9,1.1C199.1,200.5,196.4,199.9,194.1,197.8z"/>
<path class="st1" d="M57.2,161.2H67v-45.9l-9.8,5.1v-6.1l11.6-6h4.8v53h8.6v5.7h-25L57.2,161.2z"/>
<path class="st1" d="M85.4,150v-24.8c0-11.6,5.3-17.6,15.5-17.6c10.1,0,15.3,6,15.3,17.6V150c0,11.6-5.3,17.6-15.3,17.6
	C90.7,167.6,85.4,161.5,85.4,150z M109.7,150v-24.8c0-7.8-3-11.9-8.8-11.9s-9,4.1-9,11.9V150c0,7.8,3.1,11.9,9,11.9
	S109.7,157.8,109.7,150z"/>
<path class="st1" d="M122.9,150v-24.8c0-11.6,5.3-17.6,15.5-17.6c10.1,0,15.3,6,15.3,17.6V150c0,11.6-5.3,17.6-15.3,17.6
	C128.2,167.6,122.9,161.5,122.9,150z M147.2,150v-24.8c0-7.8-3-11.9-8.8-11.9s-9,4.1-9,11.9V150c0,7.8,3.1,11.9,9,11.9
	S147.2,157.8,147.2,150z"/>
<path class="st1" d="M159.1,125.5v-7c0-7,3.8-11,10.4-11s10.4,3.9,10.4,11v7c0,7-3.8,11-10.4,11S159.1,132.5,159.1,125.5z
	 M174.9,125.7v-7.5c0-4-1.9-6.3-5.4-6.3s-5.4,2.3-5.4,6.3v7.5c0,4.1,1.9,6.4,5.4,6.4S174.9,129.9,174.9,125.7L174.9,125.7z
	 M195.8,108.2h5.5l-30.3,58.7h-5.5L195.8,108.2z M187,156.6v-7c0-7,3.8-11,10.4-11s10.4,3.9,10.4,11v7c0,7-3.8,11-10.4,11
	S187,163.6,187,156.6z M202.8,156.8v-7.6c0-4-1.9-6.3-5.4-6.3s-5.4,2.3-5.4,6.3v7.6c0,4.1,1.9,6.4,5.4,6.4S202.7,161,202.8,156.8
	L202.8,156.8z"/>
<g>
	<path class="st1" d="M221.8,185.6c-0.4,0.8-1.4,0.9-2.3,0.4c-0.9-0.7-1.5-1.4-2.6-2.6c-0.1,0.1-0.2,0.1-0.3,0.2
		c0.5,1.5,1,2.4,1,3.5c0,1-0.5,1.8-1.5,1.8c-1,0-1.5-0.8-1.5-1.8c0-1.1,0.4-2,1-3.5c-0.1,0-0.2-0.1-0.3-0.2c-1,1.3-1.6,2.1-2.6,2.7
		c-0.9,0.5-1.8,0.4-2.3-0.4c-0.5-0.9-0.1-1.7,0.8-2.2c1-0.6,2-0.6,3.6-0.9v-0.2c0-0.1,0-0.1,0-0.2c-1.6-0.3-2.6-0.3-3.6-0.9
		c-0.9-0.5-1.3-1.3-0.8-2.2c0.5-0.9,1.4-0.9,2.3-0.4c1,0.6,1.6,1.4,2.6,2.6c0.1-0.1,0.2-0.1,0.3-0.2c-0.5-1.6-0.9-2.4-1-3.5
		c0-1.1,0.5-1.8,1.5-1.8c1,0,1.5,0.8,1.5,1.8c0,1.1-0.5,2-1,3.5l0.3,0.2c1.1-1.2,1.6-2,2.6-2.6c0.9-0.6,1.8-0.5,2.3,0.4
		c0.5,0.9,0.1,1.7-0.8,2.2c-1,0.6-2,0.6-3.6,0.9v0.2c0,0.1,0,0.1,0,0.2c1.6,0.3,2.5,0.3,3.6,0.9
		C221.9,183.9,222.3,184.7,221.8,185.6z"/>
</g>
</svg>
