<svg xmlns="http://www.w3.org/2000/svg" viewBox="0 0 18 40"><title>MouseWheel</title><defs><style>path{fill:#fff;}.arrow { animation: arrowAnim 2s linear 0s infinite; } .arrow.delayed { animation-delay:1s; } @keyframes arrowAnim { 0% {opacity:1;} 50% {opacity:.15;} 100% {opacity:1;} } .point { animation: pointAnim 2s ease-in-out 0s infinite; } @keyframes pointAnim { 0% {opacity:0;transform:translateY(0);} 33% {opacity:1;transform:translateY(0);} 66% {opacity:1;transform:translateY(3px);} 100% {opacity:0;transform:translateY(3px);} }</style></defs><path class="arrow" d="M12.22,34.44,9,37.66,5.78,34.44a1,1,0,0,0-1.37,1.37l3.91,3.9a.94.94,0,0,0,1.36,0l3.91-3.9a1,1,0,1,0-1.37-1.37Z"/><path class="arrow delayed" d="M13.59,29.07a1,1,0,0,0-1.37,0L9,32.29,5.78,29.07a1,1,0,0,0-1.37,1.37l3.91,3.9a.94.94,0,0,0,1.36,0l3.9-3.9a.94.94,0,0,0,0-1.37Z"/><path d="M17.78,17.56V8.78a8.78,8.78,0,0,0-17.56,0v8.78a8.78,8.78,0,0,0,17.56,0ZM9,24.39a6.85,6.85,0,0,1-6.83-6.83V8.78a6.83,6.83,0,0,1,13.66,0v8.78A6.85,6.85,0,0,1,9,24.39Z"/><path class="point" d="M9,5.37a1,1,0,0,0-1,1V9.27a1,1,0,0,0,2,0V6.34a1,1,0,0,0-1-1Z"/></svg>