<svg xmlns="http://www.w3.org/2000/svg" viewBox="0 0 2496 1256"><defs><style>.cls-1{fill:#fff;}.cls-2{fill:#f2d7f7;}.cls-3{fill:#f1ccf6;}.cls-4{fill:#e6c1f1;}.cls-5{fill:#dcb0ec;}.cls-6{fill:#d399ea;}.cls-7{fill:#f5e0f7;}.cls-8{fill:#c381e6;}</style></defs><title>bg-cal</title><path class="cls-1" d="M1966.69,32.06a64.25,64.25,0,0,1-7.32-.48,38.22,38.22,0,0,1-8.24-1.6,22.33,22.33,0,0,1-13.21-13.09c-.85-2.4-1.15-5-1.61-8.87-.27-2.27-.44-4.57-.49-6.84a.75.75,0,0,0-.71-.73.77.77,0,0,0-.77.67c-.14,1.48-.31,3-.49,4.43-.81,6.44-1.5,9-2.42,11.16-.1.26-.26.62-.47,1.05-1.64,3.54-5.37,9.83-11.8,12.2a29.13,29.13,0,0,1-5,1.13,59.9,59.9,0,0,1-9.15.95l-1.6,0a.74.74,0,0,0-.72.76.74.74,0,0,0,.74.73h0c.53,0,1.07,0,1.6,0a47.72,47.72,0,0,1,9.61,1,28,28,0,0,1,4.34,1.12c6.1,2.22,11.29,7.36,13.21,13.08a41.31,41.31,0,0,1,1.13,5.93,92.91,92.91,0,0,1,1,9.8.74.74,0,0,0,.74.71h0a.74.74,0,0,0,.72-.75,58.48,58.48,0,0,1,1-10.72,31.63,31.63,0,0,1,1.12-4.84A22.53,22.53,0,0,1,1951,35.64a37.17,37.17,0,0,1,8.36-1.61,64.28,64.28,0,0,1,7.33-.48.75.75,0,0,0,0-1.49Z"/><path class="cls-1" d="M335,129.41a97.65,97.65,0,0,1-11.32-.75c-5.19-.65-8.94-1.12-12.74-2.47A34.56,34.56,0,0,1,290.47,106c-1.3-3.72-1.77-7.69-2.48-13.71-.42-3.51-.67-7.07-.76-10.58a1.15,1.15,0,0,0-1.1-1.12,1.17,1.17,0,0,0-1.18,1c-.23,2.29-.48,4.59-.76,6.84-1.25,9.95-2.32,13.86-3.74,17.26-.16.39-.41,1-.72,1.62-2.55,5.47-8.3,15.18-18.25,18.86a47.2,47.2,0,0,1-7.66,1.73,93.55,93.55,0,0,1-14.14,1.48c-.83,0-1.66,0-2.48,0a1.15,1.15,0,0,0,0,2.29h0c.83,0,1.65,0,2.48,0a74.11,74.11,0,0,1,14.85,1.53,45.11,45.11,0,0,1,6.71,1.73c9.43,3.44,17.44,11.37,20.41,20.22.6,1.77,1,4.24,1.75,9.17a141.1,141.1,0,0,1,1.51,15.14,1.14,1.14,0,0,0,1.14,1.09h0a1.14,1.14,0,0,0,1.12-1.14,88.78,88.78,0,0,1,1.51-16.58,47.87,47.87,0,0,1,1.73-7.47,34.78,34.78,0,0,1,20.23-20.42c3.66-1.33,7.15-1.77,12.93-2.48A99.93,99.93,0,0,1,335,131.7a1.15,1.15,0,0,0,0-2.29Z"/><path class="cls-1" d="M2401.35,676.71a47.7,47.7,0,0,1-5.59-.37,28.75,28.75,0,0,1-6.29-1.22,17.08,17.08,0,0,1-10.09-10,31.42,31.42,0,0,1-1.23-6.77c-.21-1.74-.33-3.5-.37-5.23a.57.57,0,0,0-1.13,0c-.11,1.12-.24,2.26-.38,3.38-.61,4.91-1.14,6.84-1.84,8.52-.08.2-.21.47-.36.8-1.26,2.7-4.1,7.5-9,9.32a23.07,23.07,0,0,1-3.78.86,46.94,46.94,0,0,1-7,.73h-1.23a.57.57,0,0,0-.54.58.56.56,0,0,0,.56.56h0l1.22,0a36.14,36.14,0,0,1,7.34.76,21.54,21.54,0,0,1,3.32.85,17,17,0,0,1,10.09,10,33.14,33.14,0,0,1,.86,4.53,72.86,72.86,0,0,1,.75,7.48.55.55,0,0,0,.56.54h0a.57.57,0,0,0,.56-.56,44.35,44.35,0,0,1,.74-8.2,22.8,22.8,0,0,1,.86-3.68,17.22,17.22,0,0,1,10-10.1,28.54,28.54,0,0,1,6.39-1.22,47.72,47.72,0,0,1,5.6-.37.57.57,0,0,0,.56-.57A.58.58,0,0,0,2401.35,676.71Z"/><path class="cls-1" d="M180.2,758.57a55.76,55.76,0,0,1-6.57-.44,33.87,33.87,0,0,1-7.39-1.43A20,20,0,0,1,154.39,745a36.91,36.91,0,0,1-1.44-8c-.25-2-.39-4.11-.44-6.14a.66.66,0,0,0-.64-.65.69.69,0,0,0-.69.6c-.13,1.32-.28,2.66-.44,4-.72,5.77-1.34,8-2.17,10-.09.23-.24.56-.42.94-1.47,3.18-4.81,8.81-10.59,11a27,27,0,0,1-4.44,1,54,54,0,0,1-8.21.85l-1.44,0a.67.67,0,0,0,0,1.33h0l1.44,0a43.68,43.68,0,0,1,8.61.89,24.92,24.92,0,0,1,3.9,1,20,20,0,0,1,11.85,11.73,37.72,37.72,0,0,1,1,5.32,81.76,81.76,0,0,1,.88,8.79.66.66,0,0,0,.66.63h0a.66.66,0,0,0,.65-.66,52,52,0,0,1,.87-9.63,27.9,27.9,0,0,1,1-4.33,20.22,20.22,0,0,1,11.74-11.85,32.9,32.9,0,0,1,7.5-1.44,58,58,0,0,1,6.57-.44.67.67,0,0,0,0-1.33Z"/><path class="cls-2" d="M1765.75,855c-3-16.92-8.73-48.34,8.64-74.2,3.36-5,14.19-21.12,33.29-26.07,32.12-8.31,50.34,24.65,76.44,14.35,19.37-7.64,28.62-33.4,29.75-36.56a69.35,69.35,0,0,0,4-22.37c2-85.3-7.17-141.34,20.89-176.69,2.87-3.61,22.18-28.61,44.45-25,16.07,2.58,27.3,17.92,42.92,22.5,21.69,6.36,44.3-10.62,53.86-31.09s10.08-43.81,13.87-66.08a221.76,221.76,0,0,1,25.6-71.9c8.71-15.38,24.79-31.62,41.36-25.46,5.7,2.12,7.88,4.36,16,10.5,5.28,4,30.73,23.15,47.6,20.46,17.31-2.76,16.76-27.16,43.53-68,14.15-21.56,29.32-40.94,54.05-54.81,22.57-12.66,52.72-15.06,73.32.61,25.78,19.62,26.8,60,11.49,88.51s-42.59,48.31-68.38,67.93c-4.51,3.43-9.21,7.15-11.24,12.44-3.66,9.5,2.81,20.15,11.07,26.09s18.29,9,26.65,14.8c28,19.43,27,63.91,6.81,91.39s-53.06,42-84.59,55-64.63,26.49-86.14,52.92c-2.2,2.71-4.35,5.78-4.45,9.27-.21,7.17,7.64,11.35,13.54,15.44,25.55,17.7,24.6,58.35,6,83.27s-48.87,37.75-78,48.65c-64.23,24-78.91,31.71-80.95,44.45-4.38,27.42,68.18,43.37,70.8,82.56,2.36,35.25-53.47,65.54-73.09,76.18-93,50.45-195.38,41.7-261,28.18C1783.29,966.34,1774.53,905,1765.75,855Z"/><path class="cls-3" d="M2344.07,304.54a3.52,3.52,0,0,0-5,.3c-48.54,54.86-95.47,111.2-139.49,167.45-83.84,107.14-139.22,190.47-192.78,271.06-59.65,89.75-116,174.52-206.07,284.12q-9.75,11.85-19.64,23.6,3,1.86,6.06,3.77,9.57-11.4,19-22.89c90.32-109.87,146.75-194.79,206.5-284.69,53.48-80.48,108.79-163.7,192.46-270.62,43.93-56.14,90.77-112.37,139.22-167.12A3.53,3.53,0,0,0,2344.07,304.54Z"/><path class="cls-3" d="M1879.55,957.29a107.54,107.54,0,0,1-14.16-4.37,2.35,2.35,0,0,1,1.7-4.38c18.65,7.26,39.42,8.14,57.74,8.92,56.68,2.42,111.91,3.51,164.59-9.51a2.35,2.35,0,1,1,1.13,4.57c-53.28,13.17-108.89,12.07-165.92,9.64C1910.42,961.56,1894.76,960.89,1879.55,957.29Z"/><path class="cls-3" d="M1873,937.68a2.37,2.37,0,0,1-1.51-1.14,514.92,514.92,0,0,1-50.71-128.28,2.35,2.35,0,0,1,4.57-1.12,510.31,510.31,0,0,0,50.24,127.1,2.35,2.35,0,0,1-2.59,3.44Z"/><path class="cls-3" d="M2012.74,743.36a2.36,2.36,0,0,1,.52-4.65,816.14,816.14,0,0,0,178.93-21.42,2.35,2.35,0,1,1,1.07,4.58,821.21,821.21,0,0,1-180,21.55A2.6,2.6,0,0,1,2012.74,743.36Z"/><path class="cls-3" d="M2025.37,721.45a2.37,2.37,0,0,1-1.64-1.4,922,922,0,0,1-50.65-170.18,2.35,2.35,0,0,1,4.62-.9,917.63,917.63,0,0,0,50.39,169.31,2.35,2.35,0,0,1-2.72,3.17Z"/><path class="cls-3" d="M2148.73,547.92a2.35,2.35,0,0,1,.58-4.64c70.29,1.16,140-21.42,199.77-42.67a2.35,2.35,0,1,1,1.58,4.43c-60.19,21.39-130.36,44.12-201.43,42.94A2.07,2.07,0,0,1,2148.73,547.92Z"/><path class="cls-3" d="M2179.9,505a2.37,2.37,0,0,1-1.77-1.84c-3.05-15.64-5.35-31.61-6.85-47.46a489.45,489.45,0,0,1-1.31-74.94,2.35,2.35,0,0,1,4.7.28,485,485,0,0,0,1.29,74.21c1.49,15.7,3.77,31.52,6.79,47a2.35,2.35,0,0,1-1.86,2.76A2.2,2.2,0,0,1,2179.9,505Z"/><path class="cls-4" d="M1767.58,1252.85c-.7,8.76,145.6-6.51,153.46-8,123.57-23.49,236.81-84.1,330-167.88,100.69-90.54,167.66-210.13,241.5-322.16q1.23-1.86,2.45-3.72S1796.43,895.11,1767.58,1252.85Z"/><path class="cls-5" d="M2008.3,1045c1.88-1.34,3.78-2.66,5.67-4l5.68-4q22.74-15.88,45.79-31.33l5.76-3.87L2077,998l5.78-3.83c1.92-1.28,3.85-2.56,5.79-3.82l11.6-7.61,11.64-7.54q14.73-9.52,29.54-18.89l147.74,83.55L2146.49,953q68.12-43,137.85-83.4l97.13,54.85-91.82-58,11.79-6.83q48.09-27.8,96.74-54.62T2496,752.28c-8.45,3.81-16.84,7.75-25.21,11.72s-16.73,8-25.05,12.07q-25,12.21-49.75,24.88-49.51,25.32-98.23,52.22-33.74,18.65-67.08,38l15.68-64.44-22.07,68.16q-59.61,34.83-117.68,72.26c-3.89,2.52-7.79,5-11.67,7.58l-11.63,7.64c-1.94,1.27-3.87,2.56-5.8,3.85l-5.79,3.86-1.83,1.22,25.92-101.52-32.64,106-3,2-5.75,3.91c-1.92,1.3-3.85,2.6-5.75,3.92l-11.47,7.9c-1.91,1.31-3.8,2.65-5.71,4l-5.7,4-5.69,4-5.67,4-5.66,4.05q-2.83,2-5.66,4.06l-11.26,8.19c-1.88,1.35-3.74,2.75-5.6,4.13l-5.6,4.14-5.58,4.16-5.56,4.19-5.55,4.2-2.78,2.1-2.76,2.13-11,8.51c-3.65,2.86-7.29,5.75-10.94,8.62l-2.73,2.16-1.36,1.08-1.36,1.09-5.42,4.37-7.11,5.76,11.81-111-17.91,116c-2.77,2.29-5.55,4.58-8.31,6.89l-10.62,9c-.88.75-1.78,1.49-2.65,2.26l-2.63,2.28-5.24,4.58c-14,12.24-27.72,24.74-41.07,37.64-6.64,6.49-13.29,13-19.74,19.65-1.62,1.66-3.25,3.31-4.87,5l-4.78,5.07-4.77,5.06-1.19,1.27-1.17,1.29-2.34,2.58c-12.5,13.72-24.52,27.87-35.74,42.63,24.1-28.17,50.43-54.25,77.8-79.1l4.6-4.12,135.54,59.52-131.08-63.52,1.27-1.13c.86-.78,1.73-1.53,2.6-2.29l2.62-2.28,5.23-4.55c3.47-3,7-6,10.53-9l5.29-4.49c1.77-1.49,3.56-3,5.33-4.43l5.35-4.42,2.67-2.21c.88-.74,1.79-1.45,2.68-2.19l10.78-8.72c3.61-2.89,7.24-5.75,10.86-8.62s7.28-5.7,10.93-8.54l5.47-4.25,1.37-1.06,1.38-1.05,2.76-2.1c3.68-2.8,7.35-5.61,11-8.39l11.1-8.31,2.78-2.07,2.8-2,5.58-4.1,5.59-4.11,5.62-4.06,4.69-3.39,151.08,101-146.38-104.36L1997,1053Z"/><path class="cls-4" d="M1839.43,445.73c3.26-2.71,40.35-34,80.63-85.24,38.69-49.19,88.3-127.31,105-220.15l3.82.68c-7.43,41.38-21.9,83.31-43,124.65A598.18,598.18,0,0,1,1923,363c-40.7,51.74-78.22,83.33-81.2,85.81Z"/><path class="cls-6" d="M2027.71,131.38c6.14-2.36,20.93-9,25.62-23,.81-2.41,2.81-8.34.07-11.28-2.9-3.12-10.45-2.18-18.68,2.93-5.26-7.74-11.55-11.56-15.46-10-3.35,1.36-4.22,6.4-4.6,8.65C2012.16,113.27,2023.31,126.61,2027.71,131.38Z"/><path class="cls-4" d="M2041.86,123.57c-1.61,11.73-10.26,18.23-15.39,17.16s-10.24-10.17-7.48-21.31Z"/><path class="cls-4" d="M2011.56,200.06c6.54-8,17.09-18.28,31.77-23.65,10.15-3.71,15.24-2.49,18.23-1.07,1.06.5,6.75,3.36,7.66,8.75s-3.7,10.26-5.73,12.34C2050.18,210,2016.36,201.35,2011.56,200.06Z"/><path class="cls-4" d="M1998.66,232c1.22-6.37,4.36-26.24-4.69-39.78-2-3-5.68-8.5-11.53-9-.43,0-5.09-.36-7.68,2.68-3,3.57-1.26,9.49-.11,13.15C1979.07,213.1,1991.09,225.27,1998.66,232Z"/><path class="cls-4" d="M1942,331.44c1.22-6.36,4.36-26.24-4.69-39.78-2-3-5.68-8.5-11.53-9-.43,0-5.09-.36-7.68,2.68-3,3.57-1.26,9.49-.11,13.15C1922.45,312.55,1934.47,324.72,1942,331.44Z"/><path class="cls-4" d="M1972.34,286.58s69.52,9.75,64.07-18.43S1972.34,286.58,1972.34,286.58Z"/><path class="cls-4" d="M1926.34,358.51s69.52,9.74,64.07-18.44S1926.34,358.51,1926.34,358.51Z"/><path class="cls-3" d="M531,745.37,631.24,729.6C563,507.46,357.56,315.53,235.09,216.75l-21.43,28.33,4.78-41.59c-47.07-37.05-78.3-57.78-78.3-57.78.51,54.76,3,106.19,7.14,154.51l62.53,11.21L150.4,332.86c19.06,181.74,62.68,317.43,116,418.66l58.74-31.19-40.72,63.51C351.56,897.68,430.58,962.61,494.88,999.4l14.57-49.25,7.51,61.12c59.21,29.81,101.31,35,101.31,35,39.1-90.27,43.63-180.33,25.82-266.67Z"/><path class="cls-4" d="M235.09,216.75l-21.43,28.33,4.78-41.59c-47.07-37.05-78.3-57.78-78.3-57.78,0,.3,0,.59,0,.89.76,1.17,1.46,2.37,2.11,3.59L618,1046.2l.28,0c39.1-90.27,43.63-180.33,25.82-266.67L531,745.37,631.24,729.6C563,507.46,357.56,315.53,235.09,216.75Z"/><path class="cls-5" d="M139.5,146.05Q201.34,257.52,261.65,369.8,322.15,482,381.9,594.54T500.72,820.05q59,113,116.91,226.53Q555.79,935.12,495.48,822.84,435,710.66,375.23,598.08T256.42,372.57Q197.44,259.59,139.5,146.05Z"/><path class="cls-6" d="M597.81,809.18c-52.37-205.34-118.58-348.36-148-390.28-24.52-34.93-51.95-66.29-52.22-66.6-12.89-14.72-26.48-29.11-40.4-42.77l-1.12-1.1-4.61,4.7,1.12,1.1c13.8,13.54,27.27,27.81,40.06,42.4.27.31,27.52,31.49,51.79,66.05,29.16,41.54,94.86,183.64,147,388.12l.38,1.52,6.38-1.63Z"/><path class="cls-7" d="M394.06,315.1c-6.81-.1-13.8.41-13.8.41a161.3,161.3,0,0,0-16.05,2l-4.36,5.24a126.87,126.87,0,0,1,30.62,6c29,9.55,50,28.32,60.52,22.17a12.65,12.65,0,0,0,5.93-16.15C451.51,318.77,406.69,315.27,394.06,315.1Z"/><path class="cls-7" d="M317.74,347.51a88.28,88.28,0,0,1,14.35-17.65l13.71-3.06a87.88,87.88,0,0,0-15,28.32c-8.78,28.47,1.13,51.14-11.94,60-.83.55-5.91,3.87-9.88,2.05C298.56,412.4,300.94,374.71,317.74,347.51Z"/><path class="cls-7" d="M341.93,294.13a61.29,61.29,0,0,0-10.32-20.9c-2.22-2.9-17.28-22-29.76-18.17-1.09.34-4.56,1.4-5.55,4.18-1.57,4.36,4,10.09,20.82,25.42,7.16,6.53,13.32,12,18.05,16.21Z"/><path class="cls-7" d="M429.48,253.11c-11.71,5.6-19.56,12.29-26.22,18.05a165.94,165.94,0,0,0-21,21.81q2.25,3.88,4.49,7.77a147.73,147.73,0,0,1,41.19-20.67s30.9-9.62,37.6-19.83c.8-1.22,2.83-4.32,1.67-6.57a4.36,4.36,0,0,0-2.69-1.95,6,6,0,0,0-.63-4.73C459.68,241.21,440.35,247.91,429.48,253.11Z"/><path class="cls-1" d="M407.94,281.84a163,163,0,0,0-25.61,15.52c-.52,2.22-1,4.43-1.54,6.65,16.32-3.55,29.72-5.53,38.94-6.69,12.54-1.58,19.59-1.9,32-4.91,0,0,30.46-7.38,30.92-16.66l0-.76h0a2,2,0,0,0-.4-.65c-.62-.81-.68-.81-.7-.95-.07-.42.25-.59.38-1.22h0a9.8,9.8,0,0,0-.79-1.3C472.26,258.57,432.86,269.74,407.94,281.84Z"/><path class="cls-1" d="M441.73,300.07c-22.49-3-44.35,2.24-54.1,5l-9,10.78a145,145,0,0,1,46.74,5.72s31,9.27,42.27,4.54c1.35-.57,4.76-2,5.05-4.52a4.32,4.32,0,0,0-1.14-3.12c.71-.35,2.24-1.22,2.32-2.48s-1.52-2.48-2.23-3C455,301.85,441.73,300.07,441.73,300.07Z"/><path class="cls-1" d="M373.84,288.35l7.81,7.75c4.88-4.42,12.16-10.88,21.27-18.38,16.46-13.54,50.41-40,49.06-41.85-.37-.52-3.67.47-5.2-1.37l0,0a8.29,8.29,0,0,1-1.38-3.72c-.83-1.72-22,.52-42,16.41C395.61,253.25,382.68,265.65,373.84,288.35Z"/><path class="cls-1" d="M360.54,284.46l12.54,3.15a161.73,161.73,0,0,1,8.58-20c15.35-30,33.66-42.21,31.18-45.65s-24.79,3.29-38.78,20.38C360.81,258.51,360.35,277.46,360.54,284.46Z"/><path class="cls-1" d="M336.27,294.22l11.18-5c-1.62-7.26-4.14-15.16-5.2-18.5-3.37-10.56-8.65-26.85-16.89-27.19a7.63,7.63,0,0,0-5.18,2c-7,6.75,3.44,27.26,6.05,32.38A126.49,126.49,0,0,0,336.27,294.22Z"/><path class="cls-7" d="M297.46,321.67a162.2,162.2,0,0,1,30,0l4.75,4.89c-15.8,5.41-28.3,10.64-36.79,14.41-11.55,5.14-17.75,8.51-29.93,12.35,0,0-29.89,9.44-35.07,1.74l-.43-.63h0a1.91,1.91,0,0,1,0-.77c.12-1,.17-1.05.12-1.17-.16-.4-.52-.38-1-.85h0a8.83,8.83,0,0,1,0-1.52C230.37,335,269.87,324.2,297.46,321.67Z"/><path class="cls-1" d="M348.54,287.8l10-2.46a92,92,0,0,1,1.21-18.42c4.09-24.42,17.12-40.65,12.92-44.23-1.12-1-3.51-.53-8.28.33a36.61,36.61,0,0,0-9.37,3.18c-10,5.37-13.32,25.63-11.81,41A69.52,69.52,0,0,0,348.54,287.8Z"/><path class="cls-1" d="M291.83,334.62a162.09,162.09,0,0,1,29-7.33l5.82,3.57c-14,9.13-24.82,17.27-32.11,23-9.93,7.83-15.12,12.62-26,19.34,0,0-26.65,16.5-33.58,10.31l-.56-.51h0a1.73,1.73,0,0,1-.19-.73c-.14-1-.1-1.06-.18-1.17-.25-.35-.6-.24-1.14-.59h0a10.44,10.44,0,0,1-.37-1.48C230.09,364.07,265.71,343.86,291.83,334.62Z"/><path class="cls-1" d="M320.54,315.75l.45,11c-6.55.62-16.24,1.64-27.91,3.32-21.1,3-63.5,10.3-64,8-.13-.62,2.82-2.4,2.5-4.77v-.05a8.29,8.29,0,0,0-1.81-3.53c-.71-1.77,15.21-15.9,40.45-20C279.93,308.18,297.81,307,320.54,315.75Z"/><path class="cls-1" d="M325.22,300.61l-4.56,12.1a159.32,159.32,0,0,0-21.35-4.37c-33.4-4.51-53.87,3.57-55.28-.44s16.84-18.48,38.86-20.22C303.75,286,319.58,296.46,325.22,300.61Z"/><path class="cls-1" d="M375.94,317.37l-9.08,6.08a120.7,120.7,0,0,0,23.56,19.48c20.09,12.69,47.66,21.63,51.27,15.85,3.19-5.1-11.88-22.19-28.27-31.54A77.74,77.74,0,0,0,375.94,317.37Z"/><path class="cls-1" d="M284.13,368.57c12.74-18.78,31.22-31.58,39.76-37l14,.47a144.45,144.45,0,0,0-26.88,38.67S297.3,400,286.26,405.23c-1.32.63-4.66,2.21-6.73.75a4.36,4.36,0,0,1-1.57-2.92c-.73.29-2.39.85-3.39.07s-.84-2.78-.72-3.64C276.59,379.68,284.13,368.57,284.13,368.57Z"/><path class="cls-1" d="M340.86,331l10.59-2.72a121,121,0,0,1-1.17,30.55c-3.93,23.43-15.63,49.95-22.35,48.79-5.93-1-8.63-23.64-4.67-42.1A77.71,77.71,0,0,1,340.86,331Z"/><path class="cls-1" d="M333.31,295.36l-7.74,6.83a91.94,91.94,0,0,0-15.81-9.52c-22.4-10.56-43.16-9.12-43.71-14.61-.14-1.47,1.57-3.19,5-6.61a36.76,36.76,0,0,1,8-5.89c10.09-5.12,28.64,3.68,40.45,13.71A69.37,69.37,0,0,1,333.31,295.36Z"/><path class="cls-1" d="M351.09,331.18a103.13,103.13,0,0,0,8.29,26c8.09,17.07,23,36.17,28.56,33.71s1.69-25.55-5.61-42.68a95.77,95.77,0,0,0-15.47-24.79Z"/><path class="cls-3" d="M389.55,298.79c2.26,10.94-17.27,23.67-29.07,28.87-14.46,6.36-38.75,10.86-44.84,1.18-6.25-9.93,6.92-34.24,26.74-42C361.66,279.31,387.21,287.44,389.55,298.79Z"/><ellipse class="cls-5" cx="360.88" cy="623.28" rx="38.54" ry="23.13" transform="translate(-241.1 227.89) rotate(-26.63)"/><path class="cls-5" d="M487,751.64c20.71-6.66,27.4-28.53,28.07-30.85-1.83-1.56-19.48-16.11-40.43-10.25-16,4.47-31.31,20.07-28.07,30.85S471.19,756.72,487,751.64Z"/><path class="cls-5" d="M513.66,643.23c-12.3,22.48-42,23.92-45.16,24-1.72-2.63-17.65-27.76-6.35-50.76,8.6-17.51,31.64-31,45.16-24S523,626.11,513.66,643.23Z"/><path class="cls-5" d="M303.57,602.8c14.37-11.15,13.38-30.25,13.24-32.26-1.89-.71-19.92-7.1-34.7,3.5-11.26,8.07-18.88,24.72-13.24,32.27S292.63,611.3,303.57,602.8Z"/><path class="cls-5" d="M188.13,583c17.91,5.47,40.79-7.15,42-22.76s-19.28-31.69-37.83-29.14c-11.11,1.52-25,10.23-26.07,24.19S177.53,579.79,188.13,583Z"/><path class="cls-5" d="M430.33,706.28c18.29-2.18,35.09-18,39-38.87-14.65-15.31-37.32-19.27-53.8-11.06-11.82,5.88-24.48,20-20.4,33.43S417.38,707.82,430.33,706.28Z"/><path class="cls-5" d="M291.93,541.31a28.94,28.94,0,0,0,2.71,12.48c6,12.48,19.57,15.82,21.84,16.34,2.11-.81,12.89-5.18,17.58-16.79a28.87,28.87,0,0,0,1.55-16.14c-2.16-11.09-11.79-26.77-24.44-25.58C299,512.77,292,529.7,291.93,541.31Z"/><path class="cls-5" d="M380.34,569.59A31.13,31.13,0,0,0,379,583.3c2.11,14.79,14.92,22.64,17.09,23.92,2.42-.14,14.93-1.1,23.54-11.5a31.11,31.11,0,0,0,6.87-16.07c1.4-12.09-3.36-31.34-16.74-34.26C396.88,542.58,384.19,557.7,380.34,569.59Z"/><path class="cls-5" d="M527.08,714.27c-3.86,8.28-2.34,18.53,3.89,26.53,10.15,0,19.15-5.18,23.27-13.33,4.66-9.2,3.48-23-3.89-26.54S531.44,704.92,527.08,714.27Z"/><path class="cls-5" d="M522.56,761.77c10-.91,20,4.76,26,14.66-3.74,11-12.33,18.66-22.27,19.91-11.22,1.41-25-5.28-26-14.66S511.3,762.8,522.56,761.77Z"/><path class="cls-6" d="M595.14,873.09l-2.7.95c-16.82-48-66.3-167.55-162.11-242.17-21.77-17-62.29-48.52-123.82-63.12a290.54,290.54,0,0,0-77.15-7.6l-.1-2.85A293.3,293.3,0,0,1,307.17,566c62.13,14.75,103,46.56,124.91,63.64,43.64,34,82.44,80.58,115.32,138.47A655.8,655.8,0,0,1,595.14,873.09Z"/><path class="cls-6" d="M349.48,628.28l-.07,0,7.15-3.55,1.15.47c-.08.47-.15,1-.22,1.42l-7.56,3.75-.79-1.22Z"/><path class="cls-6" d="M342,633.84l-1.28-.41.07-.52-.6-.09,6.71-3.33,1.28.53a4.67,4.67,0,0,0-.45,1.41l-5.9,2.93C341.89,634.19,341.94,634,342,633.84Z"/><path class="cls-6" d="M358.75,624.87l.54-1.33-.21-.09,8.73-4.34,1.22.74-.15,1.09-9.08,4.51.06-.4Z"/><path class="cls-6" d="M389.61,609.25l.83-1.35h0l4.68-2.32c.08.14.16.29.23.44a12,12,0,0,1,.64,1.48l-5,2.5.05-.63Z"/><path class="cls-6" d="M379.93,614.09l.75-1.36L388.2,609l.67.42-.12,1.67-7.37,3.66a1.21,1.21,0,0,1,.05-.18Z"/><path class="cls-6" d="M369.74,619.11l.56-1-.25-.16,8.37-4.15.87.5c-.17.55-.34,1.11-.5,1.67l-7.63,3.79.06-.51Z"/><path class="cls-6" d="M339.2,635.67l-12.14,6c-.05-.07-.09-.15-.14-.23l-.82-1.64,10.79-5.36c.86.14,1.71.27,2.57.39C339.37,635.12,339.29,635.4,339.2,635.67Z"/><path class="cls-6" d="M389.34,609.7l.27-.45,1.38.11-.05.63-1.5,20c-.72.86-1.49,1.72-2.3,2.56l1.61-21.42.12-1.67Z"/><path class="cls-6" d="M379.29,614.35l.38.21.26-.47,1.5.47a1.21,1.21,0,0,0-.05.18,86.44,86.44,0,0,0-3.9,25.64c-.69.45-1.39.89-2.11,1.31A89,89,0,0,1,378.79,616C379,615.46,379.12,614.9,379.29,614.35Z"/><path class="cls-6" d="M369.22,620l.52-.86,1.48.19-.06.51c-1.13,8.55-2.23,17.17-3.29,25.72-.74.32-1.49.62-2.23.91,1-8.47,2.13-17,3.24-25.5l.15-1.09Z"/><path class="cls-6" d="M358.49,625.49l.26-.62,1.11.18-.06.4c-1.24,7.79-2.14,15.71-2.71,23.59-.71.16-1.43.3-2.14.43.53-7.64,1.38-15.31,2.54-22.88.07-.47.14-1,.22-1.42Z"/><path class="cls-6" d="M348.18,630l.52.21.44-1.11.79,1.22.28.46c-.27.18-.39.92-.44,1.24-.95,6-1.66,12.09-2.14,18.18-.72,0-1.42,0-2.12,0,.49-6.2,1.21-12.39,2.18-18.5,0-.09,0-.18,0-.28A4.67,4.67,0,0,1,348.18,630Z"/><path class="cls-6" d="M340.53,635l.19-1.57,1.28.41c-.06.17-.11.35-.17.52-1.56,4.82-3,9.72-4.34,14.64-.69-.21-1.36-.43-2-.68,1.15-4.24,2.39-8.47,3.71-12.65.09-.27.17-.55.26-.82Z"/><path class="cls-6" d="M340.72,633.43l-.19,1.57-1.07-.15c-.86-.12-1.71-.25-2.57-.39A89.29,89.29,0,0,1,325,631.64a19.57,19.57,0,0,1,.38-2.09,86.89,86.89,0,0,0,14.78,3.27l.6.09Z"/><path class="cls-6" d="M349.14,629.12l-.44,1.11-.52-.21-1.28-.53a157.25,157.25,0,0,1-17.7-8.64c.38-.58.77-1.17,1.19-1.75a156.75,156.75,0,0,0,19,9.15l.07,0Z"/><path class="cls-6" d="M358.75,624.87l-.26.62-.78-.32-1.15-.47-1.11-.46c-7.08-2.9-14.35-5.89-20.95-10,.5-.51,1-1,1.54-1.53,6.35,3.94,13.37,6.82,20.21,9.63l2.83,1.16.21.09Z"/><path class="cls-6" d="M369.74,619.11l-.52.86-.19-.12-1.22-.74a219.4,219.4,0,0,1-21-14.49c.66-.38,1.32-.76,2-1.12A215.07,215.07,0,0,0,370.05,618l.25.16Z"/><path class="cls-6" d="M379.67,614.56l-.38-.21-.87-.5a98.88,98.88,0,0,1-15-10.47c-.68-.57-1.36-1.16-2-1.74-.93-.81-1.87-1.62-2.83-2.42.8-.27,1.6-.52,2.39-.75l1.82,1.58,2,1.73a97.71,97.71,0,0,0,15.87,10.94h0l-.75,1.36Z"/><path class="cls-6" d="M389.61,609.25l-.27.45-.47-.29-.67-.42a139.05,139.05,0,0,1-17-12.48c1-.09,2.07-.14,3.08-.16a137.45,137.45,0,0,0,16.12,11.54h0Z"/><path class="cls-6" d="M458.85,739.08,447,742.6l-.18-.42-.47-1.59,10.49-3.11c.81.29,1.62.56,2.44.82Z"/><path class="cls-6" d="M469.6,733.78l-.08-.06,6.91-2.05,1.06.67c-.15.45-.3.9-.46,1.35l-7.36,2.18-.55-1.31Z"/><path class="cls-6" d="M499.66,725.73l1-1.2,0,0,7.3-2.16.61.55-.41,1.59-7.16,2.12.09-.18Z"/><path class="cls-6" d="M489.55,728.69l.71-.83-.24-.21,8.14-2.41.78.64c-.26.52-.52,1-.77,1.55l-7.38,2.19.15-.49Z"/><path class="cls-6" d="M478.58,732.2l.75-1.19-.21-.13,8.51-2.53,1.06.93-.33,1.06L479.5,733l.14-.39Z"/><path class="cls-6" d="M460.74,737.15l.16-.54-.55-.17,6.48-1.92,1.16.73a5.11,5.11,0,0,0-.65,1.31l-5.68,1.69c.08-.16.16-.32.25-.48Z"/><path class="cls-6" d="M509.28,722.85l1-1.16,0,0,4.28-1.27.49.41c-.09.3-.28.94-.58,1.82l-4,1.18.15-.61Z"/><path class="cls-6" d="M508.91,723.27l.37-.42,1.32.33-.15.61-3.19,12.61c-1,1.32-2,2.64-3.17,3.94l4-15.85.41-1.59Z"/><path class="cls-6" d="M498.94,725.88l.36.3.36-.45,1.36.7-.09.18a80.64,80.64,0,0,0-7.54,22.28q-1.12.61-2.34,1.17a82.6,82.6,0,0,1,7.12-22.63C498.42,726.91,498.68,726.4,498.94,725.88Z"/><path class="cls-6" d="M488.89,729.46l.66-.77,1.39.44-.15.49c-2.38,7.59-4.75,15.27-7.08,22.92-.78.18-1.56.33-2.35.47,2.3-7.55,4.65-15.15,7-22.67l.33-1.06Z"/><path class="cls-6" d="M478.21,732.79l.37-.59,1.06.37-.14.39c-2.32,6.8-4.38,13.77-6.12,20.76-.73,0-1.45,0-2.17,0,1.67-6.73,3.62-13.43,5.82-20,.16-.45.31-.9.46-1.35Z"/><path class="cls-6" d="M468,735.25l.51.32.62-1,.55,1.31.19.46c-.25.11-.47.77-.56,1-1.75,5.13-3.32,10.37-4.69,15.65q-1-.19-2.07-.42c1.39-5.36,3-10.69,4.77-15.91l0-.11A5.11,5.11,0,0,1,468,735.25Z"/><path class="cls-6" d="M458.85,739.08l.41-.78c.34.11.68.23,1,.33l.45-1.48,1.17.62c-.09.16-.17.32-.25.48-2.09,4-4.09,8-6,12.06-.66-.3-1.28-.62-1.89-.95Q456.22,744.16,458.85,739.08Z"/><path class="cls-6" d="M460.74,737.15l-.45,1.48c-.35-.1-.69-.22-1-.33-.82-.26-1.63-.53-2.44-.82a82.32,82.32,0,0,1-9.76-4.18,20.24,20.24,0,0,1,.82-1.95,81.35,81.35,0,0,0,12.47,5.09l.55.17Z"/><path class="cls-6" d="M469.12,734.56l-.62,1-.51-.32-1.16-.73a150.17,150.17,0,0,1-14.13-10.19c.47-.52.95-1,1.45-1.54a145,145,0,0,0,15.37,10.93l.08.06Z"/><path class="cls-6" d="M478.58,732.2l-.37.59-.72-.45-1.06-.67-.8-.5c-5.88-3.7-11.91-7.5-17.2-12.21.56-.44,1.13-.87,1.72-1.3,5.09,4.48,10.92,8.15,16.6,11.72l2.37,1.5.21.13Z"/><path class="cls-6" d="M489.55,728.69l-.66.77-.2-.18-1.06-.93a203.37,203.37,0,0,1-16.81-16.54c.71-.28,1.43-.53,2.14-.77A204.1,204.1,0,0,0,490,727.65l.24.21Z"/><path class="cls-6" d="M499.66,725.73l-.36.45-.36-.3-.78-.64a92.19,92.19,0,0,1-11.91-11.88c-.53-.63-1.05-1.27-1.57-1.92s-1.22-1.49-1.84-2.23c.91-.05,1.81-.06,2.71,0l.76.94c.52.64,1,1.28,1.56,1.9a90,90,0,0,0,12.72,12.5l0,0Z"/><path class="cls-6" d="M509.28,722.85l-.37.42-.41-.37-.61-.55A129.34,129.34,0,0,1,496.69,711c1.43.42,2.81.91,4.11,1.43a127,127,0,0,0,9.46,9.25l0,0Z"/><path class="cls-6" d="M483.25,637.73l5-9.76.1.21,1.38-.66.1,1.2.42,0L485,638.85l-1,0Z"/><path class="cls-6" d="M495.45,616.37c-.19-.42-.39-.84-.59-1.27l3.91-7.63c0,.23.09.45.13.67l.47-.08.3,1.27.59-.13-3.46,6.73A4.26,4.26,0,0,0,495.45,616.37Z"/><path class="cls-6" d="M471.9,659.86l4.39-8.57,1.38-.85.39,1.72.17,0L474,660.39h-1.74Z"/><path class="cls-6" d="M500.32,604.45l6.3-12.28,1.65.85.22.13-7,13.59-.71.16C500.66,606.09,500.5,605.27,500.32,604.45Z"/><path class="cls-6" d="M477.34,649.25l4.81-9.38.16.24,1-.66.09,1.6.54,0-4.45,8.68-1.63.35Z"/><path class="cls-6" d="M489.47,625.61l4.17-8.14,0,0,1-.45-.08.1,1.19.81-4.37,8.52-1.45.11Z"/><path class="cls-6" d="M472.23,662.5h.68l-2.38,4.63c-1,.08-1.68.11-2,.12l-.22-.34,2.58-5,1.37-.92Z"/><path class="cls-6" d="M472.23,661l.29-.19-.26-.37H474l21.47,0c-1.55.79-3.11,1.49-4.66,2.12l-17.9,0h-.68Z"/><path class="cls-6" d="M477.67,650.44l.3-.19-.12-.2,1.63-.35a113.1,113.1,0,0,1,31.24-1.9c-.51.69-1.05,1.36-1.6,2a110,110,0,0,0-30.89,2.32l-.17,0Z"/><path class="cls-6" d="M483.3,639.45l.77-.51,0,0,1,0c10.4-.56,20.89-1.1,31.3-1.59-.26.73-.55,1.45-.84,2.15-10.51.5-21.09,1-31.57,1.61l-.54,0Z"/><path class="cls-6" d="M489.74,627.52l.52-.25-.32-.67,1.45-.11c9.12-.69,18.4-1,27.65-1-.07.71-.17,1.41-.27,2.11-9.55,0-19.12.37-28.51,1.12l-.42,0Z"/><path class="cls-6" d="M494.65,617.06l.93-.43c0-.09-.09-.17-.13-.26a4.26,4.26,0,0,1,1.35-.44c.35-.06.66-.08.91-.1,7.08-.56,14.26-.86,21.45-.92.06.69.11,1.4.14,2.1-7.18.06-14.35.36-21.42.92-.37,0-1.35.11-1.56.42l-.56-.38-1.19-.81Z"/><path class="cls-6" d="M499.37,608.06l1.61-.28c-.05-.29-.12-.58-.17-.88l.71-.16c5-1.14,10-2.18,15-3.13.27.66.51,1.32.74,2-5.72,1.06-11.42,2.26-17,3.58l-.59.13Z"/><path class="cls-6" d="M501,607.78l-1.61.28-.47.08c0-.22-.09-.44-.13-.67a99,99,0,0,0-4.54-16.42c.72-.14,1.43-.24,2.14-.31a101.17,101.17,0,0,1,3.95,13.71c.18.82.34,1.64.49,2.45C500.86,607.2,500.93,607.49,501,607.78Z"/><path class="cls-6" d="M495.58,616.63l-.93.43-1,.45,0,0a193.85,193.85,0,0,0-11.74-21.62c.61-.36,1.23-.7,1.85-1a199.3,199.3,0,0,1,11.11,20.27c.2.43.4.85.59,1.27C495.49,616.46,495.54,616.54,495.58,616.63Z"/><path class="cls-6" d="M490.26,627.27l-.52.25-1.38.66-.1-.21-1.58-3.32c-3.71-7.83-7.52-15.86-12.54-23.26.53-.46,1.08-.91,1.63-1.35,5.16,7.57,9,15.74,12.82,23.71l.88,1.86.47,1Z"/><path class="cls-6" d="M484.07,638.94l-.77.51-1,.66-.16-.24a286.66,286.66,0,0,0-18.95-25.36c.36-.64.75-1.28,1.15-1.91a288.85,288.85,0,0,1,18.9,25.13l.8,1.17Z"/><path class="cls-6" d="M478,650.25l-.3.19-1.38.85-.11.07A129,129,0,0,0,462,632.54l-2.21-2.4c-.44-.46-.87-.93-1.31-1.4.12-.89.26-1.77.44-2.66.79.89,1.61,1.76,2.41,2.63s1.5,1.61,2.23,2.42a131.2,131.2,0,0,1,13.78,18.12l.51.8Z"/><path class="cls-6" d="M459.87,647.46c-.36-1.41-.68-2.87-.95-4.37a185.07,185.07,0,0,1,13,16.77l.36.53.26.37-.29.19-1.37.92-.09.07A179.07,179.07,0,0,0,459.87,647.46Z"/><path class="cls-6" d="M299,584l.39-1-.34-.14,5.36-4,1,.34c-.07.56-.13,1.13-.18,1.69l-4.79,3.54c0-.17,0-.34,0-.52Z"/><path class="cls-6" d="M278.82,598.91l0-.64-.54,0,4.2-3.11,1.31.29a4.86,4.86,0,0,0-.09,1.19v.24L280,599.6c0-.17,0-.34.07-.51Z"/><path class="cls-6" d="M277.66,601.34l-8,5.9c-.15-.15-.3-.31-.44-.47l-.77-1-.1-.14,6.93-5.12c.82,0,1.65,0,2.48-.05C277.74,600.73,277.7,601,277.66,601.34Z"/><path class="cls-6" d="M312.88,573.8l.53-1.37-.13,0,2.82-2.09c.32.11.57.19.71.25,0,.28.05.91.06,1.8l-2.63,1.95-.06-.63Z"/><path class="cls-6" d="M306.14,578.81l.47-1.38-.11,0,4.8-3.55.81.34.16,1.56-4.71,3.49c0-.08,0-.16,0-.24Z"/><path class="cls-6" d="M291.42,589.92l.29-1.32-.28-.06,5.65-4.18,1.29.5c0,.37,0,.75.05,1.13l-5.88,4.35c0-.15,0-.29,0-.44Z"/><path class="cls-6" d="M284.86,593.55l-.16,0,4.47-3.31,1.27.27,0,1.39-4.88,3.61-.92-1Z"/><path class="cls-6" d="M312.64,574.39l.24-.59,1.3-.14.06.63,1.05,10.28a41.07,41.07,0,0,1-1.63,4.79l-1.39-13.62-.16-1.56Z"/><path class="cls-6" d="M305.43,579.25l.5.18.21-.62,1.44.18c0,.08,0,.16,0,.24a66.7,66.7,0,0,0,.42,19.39c-.57.65-1.16,1.29-1.8,1.91a69.23,69.23,0,0,1-.93-19.59C305.3,580.38,305.36,579.81,305.43,579.25Z"/><path class="cls-6" d="M298.68,585l.36-1,1.4-.07c0,.18,0,.35,0,.52.3,6.57.63,13.23,1,19.85-.67.43-1.35.85-2.05,1.24-.35-6.52-.67-13.09-1-19.58,0-.38,0-.76-.05-1.13Z"/><path class="cls-6" d="M291.26,590.66l.16-.74,1.11,0c0,.15,0,.29,0,.44.12,6,.49,12,1.11,17.91-.68.25-1.36.49-2,.71-.61-5.67-1-11.4-1.14-17.09l0-1.39Z"/><path class="cls-6" d="M283.76,595.47l.67.15.24-1.15.92,1,.28.31s-.11.17-.09.82c.09,4.53.35,9.09.78,13.61-.7.13-1.4.23-2.09.32-.43-4.54-.7-9.1-.8-13.64v-.24A4.86,4.86,0,0,1,283.76,595.47Z"/><path class="cls-6" d="M277.66,601.34c0-.31.08-.61.13-.92l1.11,0-.08-1.46,1.27.18c0,.17,0,.34-.07.51-.51,3.68-.93,7.4-1.26,11.11-.72-.05-1.42-.14-2.1-.25Q277.08,605.89,277.66,601.34Z"/><path class="cls-6" d="M278.82,598.91l.08,1.46-1.11,0c-.83,0-1.66.05-2.48.05A70.44,70.44,0,0,1,267,600a17.12,17.12,0,0,1,.11-2.12,67.27,67.27,0,0,0,11.17.44l.54,0Z"/><path class="cls-6" d="M284.67,594.47l-.24,1.15-.67-.15-1.31-.29a121.74,121.74,0,0,1-13.67-3.89c.25-.65.53-1.29.83-1.94a121.26,121.26,0,0,0,15.09,4.17l.16,0Z"/><path class="cls-6" d="M291.42,589.92l-.16.74-.82-.18-1.27-.27-.4-.09a106.54,106.54,0,0,1-17-4.7c.37-.6.76-1.21,1.16-1.8a107,107,0,0,0,16.34,4.44l2.21.48.28.06Z"/><path class="cls-6" d="M299,584l-.36,1-.31-.12-1.29-.5a171.51,171.51,0,0,1-17.72-8.12c.57-.51,1.16-1,1.75-1.46a166.33,166.33,0,0,0,18,8.09l.34.14Z"/><path class="cls-6" d="M306.14,578.81l-.21.62-.5-.18-1-.34A77.76,77.76,0,0,1,292,573.07c-.6-.34-1.19-.7-1.79-1.06s-1.45-.87-2.19-1.29c.84-.36,1.69-.68,2.53-1l.75.44c.59.36,1.17.71,1.76,1a75,75,0,0,0,13.46,6.14l.11,0Z"/><path class="cls-6" d="M312.88,573.8l-.24.59-.53-.21-.81-.34a107.17,107.17,0,0,1-12-5.76,43.28,43.28,0,0,1,4.39-.06,105.47,105.47,0,0,0,9.63,4.36l.13,0Z"/><path class="cls-6" d="M221.57,559.63l1.94-.39c0-.22-.1-.44-.14-.66l6.83.68c0,.33,0,.67,0,1s-.08.73-.13,1.1l-7.33-.73.18-.35Z"/><path class="cls-6" d="M188,557.18l-7.71-.76.2-.16-.94-1.22.45-.56-.29-.24,7.13.71,1.71,1.64C188.37,556.79,188.19,557,188,557.18Z"/><path class="cls-6" d="M190.65,557.43l-1.09-1,.89-1-.21-.2,9.82,1,.87,1.27-.79.86-9.5-.95Z"/><path class="cls-6" d="M177.16,556.11,166.3,555a20.22,20.22,0,0,1,.28-2.09l9.31.92,2.06,1.67Z"/><path class="cls-6" d="M212.56,558.57l1.14-.5c-.06-.16-.13-.31-.2-.47l7.67.76c.08.4.17.8.25,1.2l-.42-.21c-.18.36-.36.71-.53,1.06l-7.28-.73.32-.46Z"/><path class="cls-6" d="M202,557.55l1-.72-.21-.3,8.3.83c.14.33.29.67.43,1l-.75,1.08-8-.8.19-.21Z"/><path class="cls-6" d="M178.67,556.11l.88-1.07.94,1.22-.2.16a99.09,99.09,0,0,1-12.69,8.19c-.24-.67-.47-1.35-.65-2a96.52,96.52,0,0,0,10.21-6.46l.79-.58Z"/><path class="cls-6" d="M189,557l.55-.59,1.09,1h0c-.57.63-1.15,1.26-1.74,1.87a91.21,91.21,0,0,1-14.57,12.32c-.57.39-1.17.78-1.79,1.18-.46-.54-.91-1.09-1.33-1.65.68-.43,1.32-.86,1.93-1.27A88.75,88.75,0,0,0,188,557.18c.19-.19.37-.39.55-.59Z"/><path class="cls-6" d="M201.27,558l.69-.47,1,.89-.19.21c-1.24,1.37-2.49,2.72-3.77,4.06a196.89,196.89,0,0,1-18.37,16.89c-.63-.39-1.25-.79-1.86-1.22l.37-.29a193.7,193.7,0,0,0,21-19.7l.79-.86Z"/><path class="cls-6" d="M211.77,558.9l.79-.33.95.65-.32.46c-3.31,4.76-6.86,9.43-10.55,13.88q-4.48,5.41-9.36,10.54c-.84-.1-1.68-.24-2.52-.41,3.57-3.7,7-7.54,10.26-11.47,3.4-4.11,6.68-8.4,9.76-12.77l.75-1.08Z"/><path class="cls-6" d="M221.42,559.56s0,.07,0,.1l.13,0,1.32.65-.18.35A122,122,0,0,1,209,582.33c-1.16.39-2.34.72-3.53,1a120.47,120.47,0,0,0,15-22.92c.17-.35.35-.7.53-1.06Z"/><path class="cls-6" d="M221.57,559.63l-.13,0s0-.07,0-.1c-.08-.4-.17-.8-.25-1.2a152.64,152.64,0,0,0-6.47-22.17c1,.6,2,1.25,3,1.94a156.48,156.48,0,0,1,5.71,20.45c0,.22.09.44.14.66Z"/><path class="cls-6" d="M212.56,558.57l-.79.33-.24-.53c-.14-.34-.29-.68-.43-1-3.84-8.86-7.93-17.7-12.2-26.39.83.07,1.67.17,2.5.3,4.24,8.67,8.3,17.49,12.1,26.33.07.16.14.31.2.47Z"/><path class="cls-6" d="M202,557.55l-.69.47-.34-.49-.87-1.27c-5.24-7.63-10.61-15.26-16.06-22.79.67-.29,1.35-.55,2-.79,5.7,7.88,11.32,15.87,16.77,23.85l.21.3Z"/><path class="cls-6" d="M189.56,556.44,189,557l-.46-.44L186.84,555q-7.11-6.83-13.71-14.19c.49-.51,1-1,1.53-1.46,5,5.55,10.17,10.9,15.58,16l.21.2Z"/><path class="cls-6" d="M179.55,555l-.88,1.07-.72-.58-2.06-1.67c-2.53-2-5.09-4.08-7.66-6.09.3-.66.63-1.29,1-1.91,3.53,2.77,7,5.56,10.49,8.38l.29.24Z"/><path class="cls-6" d="M422.36,679.77l-.22-.08,11.77-3.31,1.46.81-.58,1.13-11.54,3.25L422,681Z"/><path class="cls-6" d="M448.81,673.29l.81-.94-.35-.29,9.36-2.64c.24.34.49.67.73,1l-.55-.08-.21,1.28-8.89,2.5c.06-.16.11-.31.16-.47Z"/><path class="cls-6" d="M436.45,676.79l.6-1.08-.26-.14,10-2.83.87.75-.45,1.32-9.7,2.74.09-.18Z"/><path class="cls-6" d="M459.59,670.46l1.58-1.13c-.12-.18-.25-.35-.38-.52l7.95-2.23.33.32c-.11.63-.23,1.25-.36,1.87L460.84,671c0-.11,0-.22.05-.33Z"/><path class="cls-6" d="M410,683.78l.13-.55-.33-.07,8.57-2.42,2.59.81-.4.77-9.3,2.62.1-.14Z"/><path class="cls-6" d="M394.61,687.45l11-3.1,3,.68c-.22.29-.45.58-.68.86l-12.83,3.62A17.35,17.35,0,0,1,394.61,687.45Z"/><path class="cls-6" d="M409.69,685.29l.35-1.51,1.36,1-.1.14a118.53,118.53,0,0,1-11.17,12.86,19,19,0,0,1-1.44-1.54,116.55,116.55,0,0,0,9.21-10.37c.23-.28.46-.57.68-.86Z"/><path class="cls-6" d="M421.75,681.78,422,681l1.25.62.09,0a102.43,102.43,0,0,1-13.11,20c-.46.55-1,1.12-1.46,1.7-.68-.28-1.35-.59-2-.91.66-.74,1.27-1.46,1.85-2.14a100.52,100.52,0,0,0,12-18l.4-.77Z"/><path class="cls-6" d="M436,677.55l.42-.76,1.19.58-.09.18a215.06,215.06,0,0,1-17.14,28.74c-.79-.08-1.57-.19-2.36-.32l.44-.6a213.86,213.86,0,0,0,16.3-27l.58-1.13Z"/><path class="cls-6" d="M448.24,674l.57-.66,1.06.36c-.05.16-.1.31-.16.47-2,5.84-4.22,11.69-6.73,17.41-2,4.52-4.16,9-6.49,13.46-.91.27-1.83.51-2.75.71q4-7.44,7.31-15c2.29-5.21,4.37-10.54,6.2-15.87l.45-1.32Z"/><path class="cls-6" d="M459.36,670.42l.1.14.13-.1,1.3.2c0,.11,0,.22-.05.33a116.81,116.81,0,0,1-6.3,23.32c-1.13,1.08-2.3,2.11-3.51,3.07a115.52,115.52,0,0,0,7.57-25.76l.21-1.28Z"/><path class="cls-6" d="M459.59,670.46l-.13.1-.1-.14c-.24-.33-.49-.66-.73-1a136.7,136.7,0,0,0-13.91-16.12c1.35.31,2.7.68,4,1.11a136.78,136.78,0,0,1,12,14.4c.13.17.26.34.38.52Z"/><path class="cls-6" d="M448.81,673.29l-.57.66-.54-.46-.87-.75c-7.64-6.57-15.56-13-23.63-19.25.88-.23,1.78-.43,2.68-.6,8,6.21,15.83,12.63,23.39,19.17l.35.29Z"/><path class="cls-6" d="M436.45,676.79l-.42.76-.66-.36-1.46-.81c-8.83-4.89-17.82-9.72-26.85-14.42.6-.49,1.2-1,1.81-1.44,9.39,4.91,18.75,10,27.92,15.05l.26.14Z"/><path class="cls-6" d="M422,681l-.25.83-.75-.23-2.59-.81c-7.09-2.23-14.08-4.71-20.92-7.42.34-.62.7-1.24,1.08-1.84q11.54,4.56,23.57,8.21l.22.08Z"/><path class="cls-6" d="M410,683.78l-.35,1.51-1.11-.26-3-.68q-5.5-1.26-11.05-2.45c.09-.69.22-1.38.38-2.07,5,1.07,10,2.18,14.91,3.33l.33.07Z"/><path class="cls-6" d="M314.61,551.61l.39-1.33.66.71.2-.18.46,5.54-1.35.92-.71-.22-.47-5.69Z"/><path class="cls-6" d="M313.61,549.09l-.35-4.17.59.35.6-1,.31.32.55-.54.34,4.11-1.29,1.16Z"/><path class="cls-6" d="M312.43,534.82l-.52-6.34.31.31,1-1,.38.3.32-.42.5,6.12c-.37.55-.73,1.11-1.09,1.68Z"/><path class="cls-6" d="M313.05,542.34l-.4-4.84.42.28.45-.69,1,.56.24-.4.33,4.06-1.42,1.4Z"/><path class="cls-6" d="M316,565.3l.66.93.46-.32.32,3.84c-.39.17-.71.29-.94.38l-1.17-.3-.26-3.19.55.15Z"/><path class="cls-6" d="M312.46,515c-.24.34-.47.67-.72,1l-.93-1-.28-3.33.64-.07a14.57,14.57,0,0,1,1.47-.06l.24,2.91-.27.36Z"/><path class="cls-6" d="M315.41,558.14l.66.94.45-.31.38,4.71-1.47,1,.05.06-.62-.16-.41-5.09.55.17Z"/><path class="cls-6" d="M311.65,525.22l-.56-6.78c.08.09.17.18.25.28l1.13-1,.28.29c.14-.14.27-.27.39-.41l.56,6.9c-.39.52-.8,1-1.19,1.57Z"/><path class="cls-6" d="M316,565.3l-.38,1.49-.55-.15c-4.57-1.2-9.12-2.56-13.62-4.06a27.76,27.76,0,0,1-3.3-3.37c5.5,2,11.11,3.7,16.73,5.2l.62.16Z"/><path class="cls-6" d="M314.87,557.35l.54.79-.41,1.35-.55-.17c-6.73-2.06-13.49-4.21-20.22-6.41-.26-.62-.6-1.47-.93-2.53q10.47,3.45,21,6.67l.71.22Z"/><path class="cls-6" d="M314.23,549.44l.77.84-.39,1.33-.82-.25q-10.92-3.3-21.73-7.17c-.07-.73-.11-1.5-.12-2.28,7.17,2.59,14.41,5,21.67,7.18l.75.23Z"/><path class="cls-6" d="M313.29,543.08l1.16,1.19-.6,1-.59-.35c-6.64-4-13.5-7.76-20.43-11.25q.23-1,.51-2.1c6.68,3.35,13.29,7,19.71,10.77l.61.37Z"/><path class="cls-6" d="M312.68,536.61l.84.48-.45.69-.42-.28A185.07,185.07,0,0,1,295.76,525c.3-.65.63-1.3,1-1.93a184.87,184.87,0,0,0,15.7,11.8l.94.63C313.14,535.83,312.9,536.21,312.68,536.61Z"/><path class="cls-6" d="M312,526.79l1.29,1-1,1-.31-.31c-3.67-3.75-7.56-7.34-11.59-10.73.47-.54.95-1,1.45-1.53q5.12,4.31,9.88,9l.86.87Z"/><path class="cls-6" d="M311.28,516.52l1.19,1.22-1.13,1c-.08-.1-.17-.19-.25-.28a64,64,0,0,0-5.17-5.25,15.32,15.32,0,0,1,2.13-.91c.94.89,1.86,1.8,2.76,2.74l.93,1C311.59,516.19,311.44,516.36,311.28,516.52Z"/><path class="cls-6" d="M316,565.3l-.5-.73-.05-.06,1.47-1,18-12.61a25,25,0,0,1-.87,2.47c-.13.34-.28.68-.43,1L317.1,565.91l-.46.32Z"/><path class="cls-6" d="M315.41,558.14l-.54-.79.1-.08,1.35-.92c6.54-4.52,13.17-9,19.81-13.48,0,.92-.07,1.8-.15,2.64-6.52,4.38-13,8.82-19.46,13.26l-.45.31Z"/><path class="cls-6" d="M315,550.28l-.77-.84.13-.12,1.29-1.16a219.07,219.07,0,0,1,18.82-15.25c.24.73.46,1.44.65,2.15a212.54,212.54,0,0,0-19.26,15.75l-.2.18Z"/><path class="cls-6" d="M314.45,544.27l-1.16-1.19.37-.37,1.42-1.4c5.37-5.28,10.7-10.7,15.91-16.17q.56,1,1.05,2c-5.48,5.75-11.08,11.43-16.73,17l-.55.54Z"/><path class="cls-6" d="M313.52,537.09l-.84-.48c.22-.4.46-.78.69-1.16.36-.57.72-1.13,1.09-1.68a93.73,93.73,0,0,1,7.47-9.16c1.61-1.8,3.24-3.63,4.77-5.54.47.54.93,1.1,1.37,1.67-1.48,1.82-3,3.56-4.56,5.28a72.91,72.91,0,0,0-8.76,11.23l-.24.4Z"/><path class="cls-6" d="M313.26,527.77l-1.29-1,.54-.7c.39-.53.8-1.05,1.19-1.57q3.87-5,7.81-10.06c.58.38,1.15.8,1.7,1.24-3.12,4-6.21,8-9.25,11.95l-.32.42Z"/><path class="cls-6" d="M312.47,517.74l-1.19-1.22c.16-.16.31-.33.46-.51s.48-.63.72-1l.15-.21.27-.36c.67-.92,1.37-1.82,2.11-2.69a15.06,15.06,0,0,1,2.29.58,45.55,45.55,0,0,0-2.95,3.7l-.15.2a14.43,14.43,0,0,1-1,1.36c-.12.14-.25.27-.39.41Z"/><path class="cls-6" d="M405.87,559.75l1.7-7.39c.05.12.11.23.16.35l1.4-.61.16.32.49-.27-1.73,7.51c-.54.39-1.09.77-1.64,1.15Z"/><path class="cls-6" d="M397.2,602.09l.34,1.1.54-.17-.95,4.12-1,.08c-.23-.14-.59-.35-1-.64l.8-3.45.47.3Z"/><path class="cls-6" d="M400.1,584.81l1-4.55.46.51.88-.78.18.36.71-.36-1.05,4.53-1.59.73Z"/><path class="cls-6" d="M403.55,569.82l1.59-6.88c.06.13.13.26.2.39l1.32-.66.25.36.44-.3-1.54,6.69c-.53.42-1.05.84-1.55,1.28Z"/><path class="cls-6" d="M400.3,587.51l.8-1.16.4.87.24-.1-1.39,6-1.58.48-.6-.41,1.42-6.18Z"/><path class="cls-6" d="M399,594.55l.34,1.11.52-.16-1.19,5.14-1.71.54,0,.13-.56-.36,1.27-5.54.47.33Z"/><path class="cls-6" d="M401.73,577.74l1.22-5.3.31.39.63-.51.77.84.36-.33-1,4.49-1.81.92Z"/><path class="cls-6" d="M410.06,549.4c-.39.29-.77.57-1.15.81-.18-.4-.38-.8-.57-1.2l.86-3.73.6.11c.49.11,1,.25,1.44.4l-.75,3.29-.21.15Z"/><path class="cls-6" d="M397.2,602.09l-.84,1.34-.47-.3c-4.37-2.77-8.67-5.7-12.86-8.76a31.25,31.25,0,0,1-2.12-4.21c5,3.8,10.19,7.41,15.48,10.79l.56.36Z"/><path class="cls-6" d="M398.67,593.64l.28.91-.82,1.19-.47-.33q-9.41-6.51-18.76-13.26c-.06-.69-.12-1.6-.12-2.69,6.42,4.65,12.91,9.25,19.39,13.74l.6.41Z"/><path class="cls-6" d="M400.61,585.31l.49,1-.8,1.16-.71-.49q-10.17-7-20-14.52c.16-.71.35-1.45.58-2.21,6.54,5,13.22,9.87,20,14.52l.64.44Z"/><path class="cls-6" d="M401.72,578.47l.77,1.52-.88.78-.46-.51C395.61,574,389.79,567.84,383.8,562c.36-.62.73-1.23,1.13-1.84,5.79,5.66,11.42,11.56,16.8,17.61l.45.5Z"/><path class="cls-6" d="M403.23,571.61l.66.71-.63.51-.31-.39A198.24,198.24,0,0,1,389.67,554c.49-.53,1-1,1.51-1.55a198.77,198.77,0,0,0,12.37,17.38l.71.88Z"/><path class="cls-6" d="M405.7,561.3l1,1.37-1.32.66c-.07-.13-.14-.26-.2-.39-2.56-5.06-5.38-10-8.42-14.83.61-.37,1.22-.72,1.85-1q3.9,6.2,7.3,12.67l.54,1.06Z"/><path class="cls-6" d="M408.35,550.54l.78,1.56-1.4.61c-.05-.12-.11-.23-.16-.35a70.17,70.17,0,0,0-3.59-7.08,16.13,16.13,0,0,1,2.3-.22q1.08,1.94,2.06,4c.19.4.39.8.57,1.2A6.32,6.32,0,0,1,408.35,550.54Z"/><path class="cls-6" d="M397.2,602.09l-.25-.78,0-.13,1.71-.54,22.67-7.06c-.73,1.06-1.33,1.79-1.62,2.14s-.45.53-.67.78L398.08,603l-.54.17Z"/><path class="cls-6" d="M399,594.55l-.28-.91.1,0,1.58-.48c8.23-2.51,16.54-5,24.83-7.4-.29.88-.61,1.7-.94,2.48-8.17,2.38-16.34,4.82-24.43,7.29l-.52.16Z"/><path class="cls-6" d="M401.1,586.35l-.49-1,.13-.06,1.59-.73A230.8,230.8,0,0,1,426.77,575c0,.76,0,1.5,0,2.23a228.27,228.27,0,0,0-25,9.92l-.24.1Z"/><path class="cls-6" d="M402.49,580l-.77-1.52.46-.23,1.81-.92c7.29-3.69,14.57-7.54,21.76-11.48.15.73.29,1.46.41,2.18-7.53,4.12-15.16,8.13-22.78,12l-.71.36Z"/><path class="cls-6" d="M403.89,572.32l-.66-.71,1-.91c.5-.44,1-.86,1.55-1.28a97.75,97.75,0,0,1,10.83-7.09c2.23-1.32,4.5-2.67,6.7-4.13.28.66.55,1.33.8,2-2.12,1.39-4.29,2.68-6.42,3.94-4.38,2.6-8.9,5.28-12.7,8.69l-.36.33Z"/><path class="cls-6" d="M406.66,562.67l-1-1.37.71-.49c.55-.38,1.1-.76,1.64-1.15,3.8-2.65,7.64-5.29,11.48-7.91.44.55.86,1.11,1.25,1.7-4.5,3.07-9,6.17-13.43,9.28l-.44.3Z"/><path class="cls-6" d="M409.13,552.1l-.78-1.56a6.32,6.32,0,0,0,.56-.33c.38-.24.76-.52,1.15-.81l.22-.17.21-.15c1.06-.79,2.15-1.53,3.26-2.23a15.23,15.23,0,0,1,2,1.25,49.8,49.8,0,0,0-4.21,2.82l-.22.16a17.48,17.48,0,0,1-1.54,1.07l-.49.27Z"/><path class="cls-6" d="M536.65,726.65c1.18-2.29,2.39-4.54,3.6-6.78.07.16.14.32.22.48l1.35-.65,0,.12.4-.11c-1.27,2.35-2.55,4.72-3.79,7.11-.56.09-1.11.18-1.66.25Z"/><path class="cls-6" d="M541.53,718.63c-.09-.21-.19-.41-.28-.62l.67-1.22c1-1.77,1.92-3.54,2.88-5.33l.06.18,1.59-.57c-.2-.54-.38-1.1-.57-1.66,1.49-2.81,2.94-5.66,4.32-8.54l.15.06a9.11,9.11,0,0,1,1.31.79q-1.44,3-3,6c-.61.21-1.23.43-1.85.63l.53,1.6.19-.06c-1.37,2.6-2.76,5.16-4.14,7.7l0,0c-.65.2-1.31.39-2,.57Z"/><path class="cls-6" d="M533,734c.82-1.77,1.68-3.53,2.56-5.27a1.07,1.07,0,0,1,.07.19l1.34-.45,0,.28.47-.08q-1.43,2.79-2.76,5.63l-1.42.09Z"/><path class="cls-6" d="M533.31,735.62l0,.46.59,0q-1.08,2.36-2,4.74l-.91,0-.6-.8c.59-1.43,1.21-2.86,1.85-4.27l.35.46Z"/><path class="cls-6" d="M525,722.65q3.78,5.82,8,11.35l.3.39h-.08l.07,1.22-.74.57-.35-.46q-3.75-4.86-7.19-10A24.68,24.68,0,0,1,525,722.65Z"/><path class="cls-6" d="M536.79,727.08l.2,1.39-1.34.45a1.07,1.07,0,0,0-.07-.19c-.75-2.24-1.62-4.51-2.47-6.7a97,97,0,0,1-3.87-11.46c.42-.6.86-1.18,1.33-1.74a84.59,84.59,0,0,0,4.12,12.59c.66,1.71,1.33,3.46,2,5.23l.15.42Z"/><path class="cls-6" d="M541.82,719.7l-1.35.65c-.08-.16-.15-.32-.22-.48a58.58,58.58,0,0,1-4.78-15.7c.51-.37,1-.73,1.55-1.06a56.79,56.79,0,0,0,4.23,14.9c.09.21.19.41.28.62Z"/><path class="cls-6" d="M544.86,711.64l-.06-.18A68.07,68.07,0,0,1,542,700.72c.55-.17,1.09-.31,1.63-.42a69.87,69.87,0,0,0,2.23,9.11c.19.56.37,1.12.57,1.66Z"/><path class="cls-6" d="M546.82,708.35c.62-.2,1.24-.42,1.85-.63,2-.73,4.06-1.55,6-2.44a15.26,15.26,0,0,1,.74,1.52,84.63,84.63,0,0,1-7.91,3.09l-.19.06Z"/><path class="cls-6" d="M541.82,719.7l-.29-1.07-.12-.43c.66-.18,1.32-.37,2-.57A68.49,68.49,0,0,0,556.79,712c.07.6.13,1.21.17,1.83a69.77,69.77,0,0,1-14.71,5.92l-.4.11Z"/><path class="cls-6" d="M537,728.47l-.2-1.39h0c.55-.07,1.1-.16,1.66-.25,5.82-.88,11.65-2,17.38-3.43-.19.64-.4,1.28-.64,1.9-5.84,1.39-11.77,2.52-17.7,3.38l-.47.08Z"/><path class="cls-6" d="M533.31,735.62l-.07-1.22h.08l1.42-.09c5.23-.34,10.47-.83,15.69-1.46a24.23,24.23,0,0,1-2.1,1.95c-4.8.54-9.61,1-14.4,1.25l-.59,0Z"/><path class="cls-6" d="M533.64,778l.92-1.12-.14-.13c2.18-.27,4.37-.52,6.57-.72l.22.36c-.18.46-.37.91-.56,1.37-2.35.22-4.69.49-7,.79l.23-.44Z"/><path class="cls-6" d="M522.81,779.8l1.12-1.06c-.13-.13-.26-.26-.38-.4,2.84-.44,5.71-.87,8.6-1.25l.62.52-.43-.22-.75,1.47c-3,.42-6,.87-9,1.33.08-.11.16-.23.23-.35Z"/><path class="cls-6" d="M500.28,781.68v0c3.57-.36,7.14-.83,10.68-1.35.43.36.85.71,1.26,1.07l1.11-1.28-.14-.12q3.31-.5,6.58-1l1.73-.27.76.78-.8-.53c-.37.56-.74,1.1-1.12,1.64l-.3.05c-3.14.49-6.31,1-9.5,1.45l.11-.16-1.35-1c-.37.5-.75,1-1.14,1.49-2.51.34-5,.65-7.57.91A10.65,10.65,0,0,1,500.28,781.68Z"/><path class="cls-6" d="M542.4,776.9l.79-.48c-.11-.17-.22-.34-.32-.51,1.73-.14,3.46-.25,5.2-.32.18.27.35.55.52.84q-.14.42-.3.84c-1.91.07-3.83.2-5.75.36l.24-.58Z"/><path class="cls-6" d="M542.4,776.9l-1.19-.48h0l-.22-.36c-2.79-4.5-5.75-8.91-8.85-13.19A26.75,26.75,0,0,1,535,764c2.74,3.88,5.37,7.87,7.85,11.91.1.17.21.34.32.51Z"/><path class="cls-6" d="M533.64,778l-.87-.43-.62-.52c-1.67-1.44-3.32-2.93-4.92-4.38a95.38,95.38,0,0,0-11.45-9.35c.67-.25,1.35-.47,2-.67a106.87,106.87,0,0,1,10.55,8.77c2,1.79,4,3.63,6.06,5.33l.14.13Z"/><path class="cls-6" d="M522.81,779.8l-.55-.36-.76-.78a63.84,63.84,0,0,0-14-10.61c.47-.38,1-.75,1.47-1.1a65.75,65.75,0,0,1,14.6,11.39c.12.14.25.27.38.4Z"/><path class="cls-6" d="M512.22,781.35c-.41-.36-.83-.71-1.26-1.07a78.13,78.13,0,0,0-8.84-6.18c.28-.48.59-1,.92-1.42A76.4,76.4,0,0,1,513.19,780l.14.12Z"/><path class="cls-6" d="M510.65,781.89l-.11.16c-1.92,2.56-4,5-6.12,7.38-.41-.4-.8-.81-1.16-1.23,1.71-1.87,3.35-3.81,4.9-5.82.39-.49.77-1,1.14-1.49Z"/><path class="cls-6" d="M522.26,779.44l.55.36.05,0c-.07.12-.15.24-.23.35a78.26,78.26,0,0,1-11.57,13.65c-.55-.25-1.09-.52-1.61-.8a76.07,76.07,0,0,0,10.89-12.49c.38-.54.75-1.08,1.12-1.64Z"/><path class="cls-6" d="M532.77,777.61l.87.43.21.11-.23.44c-3.07,6.11-6.42,12.12-10,17.93-.65,0-1.3,0-2,0,3.57-5.7,6.91-11.6,10-17.61l.75-1.47Z"/><path class="cls-6" d="M541.21,776.42l1.19.48.38.15-.24.58c-2.08,5.14-4.3,10.25-6.64,15.29a25.17,25.17,0,0,1-2.5,1.35c2.56-5.42,5-10.93,7.25-16.47.19-.46.38-.91.56-1.37Z"/><path class="cls-2" d="M266.07,1166.73c-7-2-15.41-7.17-13.53-14.22.7-2.6,2.71-4.59,4.31-6.75,7.91-10.79,4.91-26.89-4-36.89s-22.21-14.89-35.34-17.42-26.63-3.07-39.62-6.25A100.79,100.79,0,0,1,116.46,1040c-1.6-2.65-3.13-5.58-2.86-8.67.45-5.34,5.79-8.64,9.42-12.58,8.44-9.17,7.94-24,2.09-35s-15.94-19-25.89-26.52c-21-15.76-42.7-30.75-61-49.48S4.79,866,.72,840.06c-1.49-9.53-1.1-20.33,5.47-27.38,9.09-9.77,25.19-7.62,37.38-2.19A98.76,98.76,0,0,1,71.34,829c8.32,7.91,17.88,18.16,29,15.4,16.56-4.09,16.33-31.88,32.48-37.37,11.1-3.78,22,5.58,29.69,14.46a394.51,394.51,0,0,1,38.51,53c5.68,9.38,11.08,19.15,19,26.72s19.08,12.73,29.83,10.56c18.39-3.71,29-26.65,47.7-28.15,6.86-.55,13.59,2,19.68,5.23,27.32,14.36,46,41.63,56.43,70.69,3.88,10.86,9.29,24.24,20.8,25,10.45.73,17.83-9.79,27.27-14.34,18.13-8.73,38.92,6.18,50.69,22.51,10.58,14.68,18.33,31.19,26,47.58l41.67,88.92c-6.3-13.45-55.6-10.81-67.1-9.26-24.94,3.37-41.68,15.09-62.87,26.86C370.21,1169.1,310.22,1179.07,266.07,1166.73Z"/><path class="cls-3" d="M567.32,1166.82a1.89,1.89,0,0,1-1.72-.84c-23.25-35.75-51.75-65.1-84.73-87.26-30-20.15-51.69-26.57-84.56-36.3-10-3-21.27-6.3-33.92-10.39-34.61-11.2-155.9-54.1-263.69-135.95a711.92,711.92,0,0,1-81.82-72.67,1.87,1.87,0,1,1,2.69-2.6A709.63,709.63,0,0,0,101,893.09c107.33,81.5,228.12,124.22,262.59,135.38,12.59,4.07,23.87,7.41,33.82,10.36,32,9.47,55.14,16.31,85.59,36.78,33.4,22.44,62.26,52.16,85.78,88.32a1.87,1.87,0,0,1-.55,2.59A1.78,1.78,0,0,1,567.32,1166.82Z"/><path class="cls-3" d="M170.18,942.93a1.88,1.88,0,0,1-1.69-.81,232.8,232.8,0,0,1-38.76-100,1.87,1.87,0,1,1,3.71-.51A229.18,229.18,0,0,0,171.57,940a1.86,1.86,0,0,1-.48,2.6A1.93,1.93,0,0,1,170.18,942.93Z"/><path class="cls-3" d="M230.05,1033.32q-3.74.29-7.38.52a597.3,597.3,0,0,1-71.18.14,1.87,1.87,0,1,1,.22-3.74,591.87,591.87,0,0,0,70.73-.14c26.29-1.64,56.29-5.53,79.45-22a1.87,1.87,0,1,1,2.17,3C282.3,1026.63,255,1031.34,230.05,1033.32Z"/><path class="cls-3" d="M340.07,1024.73a1.88,1.88,0,0,1-1.66-.75,274.13,274.13,0,0,1-47.55-107.25,1.87,1.87,0,1,1,3.67-.74,270.34,270.34,0,0,0,46.9,105.77,1.87,1.87,0,0,1-.4,2.61A1.75,1.75,0,0,1,340.07,1024.73Z"/><path class="cls-3" d="M294.08,1146.48a1.87,1.87,0,0,1-.83-3.61c23.33-9.23,45.75-21.95,67.43-34.25,31.9-18.11,64.89-36.83,101.32-44.69a1.87,1.87,0,1,1,.79,3.66c-35.87,7.74-68.61,26.32-100.27,44.28-21.79,12.37-44.32,25.16-67.89,34.49A1.75,1.75,0,0,1,294.08,1146.48Z"/><path class="cls-3" d="M448.54,1060.21a1.87,1.87,0,0,1-1.78-.94,141.08,141.08,0,0,1-18.23-61.22,1.87,1.87,0,0,1,1.73-2h0a1.87,1.87,0,0,1,2,1.76A137.31,137.31,0,0,0,450,1057.41a1.87,1.87,0,0,1-.69,2.56A1.91,1.91,0,0,1,448.54,1060.21Z"/><path class="cls-8" d="M333,1015.4c-2.26,4.57-8.45,15.5-19.53,18.13-1.91.45-6.63,1.57-8.7-.76s-.94-8.21,3.59-14.19c-5.6-4.6-8.09-9.72-6.59-12.62,1.29-2.49,5.24-2.8,7-2.94C320.14,1002.13,329.64,1011.67,333,1015.4Z"/><path class="cls-6" d="M326,1025.76c9.16-.42,14.78-6.62,14.32-10.66s-7.11-8.61-15.9-7.27Q325.2,1016.78,326,1025.76Z"/><path class="cls-6" d="M394.71,1028.65c-8-.62-19.38-.22-30.24,5.11-7.51,3.7-9.55,7.2-10.36,9.63-.28.86-1.73,5.58.8,9s7.72,3.42,10,3.4C379.61,1055.59,392.85,1032,394.71,1028.65Z"/><path class="cls-6" d="M379.36,1020.22c-4.21-2.72-17-11.6-19.75-23.92-.6-2.7-1.71-7.72,1.15-11.25.21-.26,2.52-3,5.61-2.86,3.62.21,6,4.37,7.41,7C379.28,999.15,379.65,1012.39,379.36,1020.22Z"/><path class="cls-6" d="M478,1071.66c-3.45-3.65-13.79-15.3-13.53-27.91,0-2.77.16-7.91,3.77-10.67.27-.2,3.17-2.35,6.12-1.45,3.48,1.06,4.79,5.67,5.57,8.53C482.9,1051.16,480.13,1064.12,478,1071.66Z"/><path class="cls-6" d="M447.2,1052.72s-31.75,44.11-44.6,26S447.2,1052.72,447.2,1052.72Z"/><path class="cls-6" d="M495.59,1083.78a564.24,564.24,0,0,0-50.82-33.53c-18.65-10.84-36.22-19.4-52.24-25.45-20.1-7.59-37.81-11.22-52.64-10.79l.08,3c32.78-.94,74.25,19,103.26,35.83A556.08,556.08,0,0,1,496.16,1088Z"/></svg>