<svg id="Layer_1" data-name="Layer 1" xmlns="http://www.w3.org/2000/svg" viewBox="0 0 265 265"><defs><style>.cls-1{fill:#6f2c8f;}.cls-2{fill:#fff;}</style></defs><title>car02</title><circle class="cls-1" cx="132.5" cy="132.5" r="132.5"/><path class="cls-2" d="M17.47,149.62l-.25-6.76c-.22-6,3.17-8.87,9.43-9.1l9.92-.37c6.26-.23,9.85,2.42,10.07,8.38l.25,6.77Zm26.31-7.74c-.14-3.83-2.72-5.37-7.09-5.21l-9.92.37c-4.37.16-6.83,1.89-6.69,5.71l.13,3.49,23.7-.88Z"/><path class="cls-2" d="M45.69,117.46l2.83.42-1.9,12.85L17.5,126.41l1.79-12,2.83.42-1.31,8.77L30.55,125l1-6.87,2.83.43-1,6.86,10.9,1.61Z"/><path class="cls-2" d="M39,105.37,37.73,109,50,113.21l-1.06,3.11L21,106.79l2.39-7C25,95.29,28.17,93.46,33,95.1l1.27.44c4,1.37,5.26,4,5.24,6.77L53.79,102l-1.12,3.26Zm-3.8,2.8,1.25-3.67c.88-2.58.06-4.73-3-5.76L32,98.22c-3.06-1-4.9-.21-5.89,2.69l-1.27,3.7Z"/><path class="cls-2" d="M63.48,85.64,41.75,72.82l18.49,18-1.38,2.21L34.51,84.46,55.62,98.28,54,100.92,29.43,84.66l2.44-3.92L54,88.5,37.25,72.1l2.44-3.93L65.13,83Z"/><path class="cls-2" d="M69,68.1l-5.5,5.5,4.34,6.83L65.5,82.8,49.76,57l2.79-2.79L78.3,70l-2.43,2.43Zm-2.47-1.57L54,58.56,62,71.1Z"/><path class="cls-2" d="M72.58,41.73,67.83,45.2,83.48,66.66l-2.64,1.93L65.18,47.13,60.43,50.6l-1.69-2.31L70.9,39.42Z"/><path class="cls-2" d="M84.3,54.65,79.63,45c-2.7-5.61-1.58-10,3.16-12.25s8.84-.43,11.54,5.17L99,47.57c2.7,5.61,1.58,10-3.15,12.25S87,60.25,84.3,54.65ZM96,49l-4.66-9.7c-1.9-3.94-4.51-5.39-7.36-4s-3.33,4.31-1.44,8.26l4.67,9.69c1.89,3.94,4.51,5.4,7.35,4S97.94,52.94,96,49Z"/><path class="cls-2" d="M116.82,49.38l.73,2.76-12.27,3.25L97.74,27l3.18-.84,6.79,25.68Z"/><path class="cls-2" d="M117.08,42.67l-.88-10.73c-.51-6.2,2.11-9.87,7.34-10.3s8.42,2.77,8.93,9l.87,10.73c.51,6.21-2.1,9.88-7.34,10.31S117.59,48.88,117.08,42.67Zm13-1.06-.87-10.73c-.36-4.36-2.28-6.65-5.42-6.39s-4.67,2.83-4.31,7.19l.88,10.72c.35,4.36,2.28,6.66,5.42,6.4S130.43,46,130.07,41.61Zm-7-28.33,3.73-.31-2.58,5.66-1.71.14Z"/><path class="cls-2" d="M154.13,37.86l-.71,5.63c-.79,6.22-4,9.24-9.27,8.57s-7.7-4.41-6.91-10.63l1.39-11c.76-5.93,4.23-8.91,9.32-8.27,4.88.62,7.56,4.18,6.85,9.73l-.14,1.13-3.28-.17.17-1.37c.49-3.88-1-6.11-4-6.48-3.21-.41-5.16,1.59-5.7,5.84l-1.4,11c-.55,4.33.81,7,4,7.37s5.1-1.8,5.66-6.14l.35-2.8-5.09-.64.37-2.84Z"/><path class="cls-2" d="M162.5,25.32l3.16.87-7.82,28.38-3.17-.87Z"/><path class="cls-2" d="M179.18,53c-2.52,5.73-6.43,7.74-11.31,5.59s-6.14-6.41-3.62-12.14l4.32-9.85c2.52-5.73,6.46-7.72,11.39-5.56s6.06,6.38,3.54,12.11l-.27.62-3.1-1.09.37-.85c1.76-4,1.23-6.89-1.69-8.17s-5.48.25-7.23,4.26l-4.33,9.84c-1.76,4-1.2,6.91,1.76,8.21s5.41-.29,7.16-4.29l.58-1.3,2.92,1.51Z"/><path class="cls-2" d="M190.77,62.59l-6.36-4.48-6,5.44-2.74-1.94,22.81-19.92L201.7,44,190.47,72.06l-2.82-2Zm1.13-2.7,5.72-13.71-11,10Z"/><path class="cls-2" d="M202.86,85.68l18.47-17.21L198.78,81.09l-1.73-2,15.17-20.91L193,74.55l-2.07-2.33L213.46,53.3l3.08,3.45-13.72,19L223.3,64.36l3.07,3.46L204.92,88Z"/><path class="cls-2" d="M214.57,99.8l-2.49,1.41L205.69,89.9,231.3,75.42l6,10.58-2.49,1.41-4.36-7.72-8.56,4.83,3.41,6L222.79,92l-3.41-6-9.59,5.42Z"/><path class="cls-2" d="M246,109.31l-27.94,9.21-1.21-3.68,20.35-17.06-23.43,7.72-1-3,27.95-9.21,1.33,4-19.52,16.39,22.48-7.41Z"/><path class="cls-2" d="M246.45,131.93l-.68-5.85-26.39,3.07-.38-3.26,26.39-3.06-.68-5.85,2.84-.33,1.73,14.95Z"/><path class="cls-2" d="M222.07,149.85l-2.85-.17.75-13,29.38,1.7-.71,12.13-2.85-.16.52-8.86-9.83-.57-.4,6.93-2.85-.17.4-6.93-11-.64Z"/><path class="cls-2" d="M94.63,209l-4.95-3.17L75.36,228.19l-2.76-1.76,14.32-22.37-5-3.17,1.54-2.41,12.67,8.11Z"/><path class="cls-2" d="M99,236.41l-1.09,2.64-12-4.93L97.08,206.9l11.23,4.62-1.09,2.64L99,210.79l-3.73,9.1,6.41,2.63-1.08,2.65-6.42-2.64L90,232.72Z"/><path class="cls-2" d="M107.41,218.58l.14-.61c.85-3.9,4.17-5.89,8.31-5s6.47,4.26,5.55,8.45l-.37,1.68-3.07-.5.4-1.85a4,4,0,0,0-3.08-5.15,3.74,3.74,0,0,0-4.71,3l-.13.62a5.21,5.21,0,0,0,1.74,5.2l3,3c2.87,2.82,3.92,5.68,3.21,8.92l-.17.78c-1,4.35-4.21,6.26-8.81,5.25s-6.59-4.46-5.63-8.85l.58-2.67,3.16.52-.62,2.84c-.6,2.75.52,4.88,3.1,5.45s4.43-.53,5-3.24l.17-.79c.46-2.09-.26-3.92-2.06-5.73L110.29,227C107.51,224.24,106.75,221.62,107.41,218.58Z"/><path class="cls-2" d="M137.43,218.3l-5.88-.23-1,26.54-3.27-.12,1-26.55-5.89-.23.12-2.86,15,.59Z"/><path class="cls-2" d="M155.07,239.79l.39,2.83-12.86,1.79-4-29.13,12-1.67.39,2.83-8.78,1.22,1.35,9.73,6.87-.95.39,2.83-6.86,1,1.51,10.9Z"/><path class="cls-2" d="M170.36,229.91,163,232.44l.89,8-3.18,1.09-2.79-30.15,3.74-1.28,16.19,25.56-3.26,1.12Zm-1.52-2.5-7.77-12.67,1.65,14.77Z"/><path class="cls-2" d="M168.28,207.7l5.81-3.47c5.13-3.06,9.3-1.49,12.51,3.89l5.09,8.52c3.21,5.38,2.62,9.8-2.5,12.86L183.37,233Zm19.44,19.35c3.28-2,3.4-5,1.16-8.73l-5.09-8.52c-2.24-3.75-4.94-5.08-8.23-3.12l-3,1.79,12.16,20.37Z"/><path class="cls-2" d="M196.14,213.88,188.8,206c-4.24-4.55-4.47-9.05-.62-12.63s8.32-3,12.56,1.51l7.33,7.88c4.24,4.55,4.47,9.05.62,12.63S200.38,218.43,196.14,213.88Zm9.53-8.89-7.33-7.87c-3-3.2-5.91-3.81-8.21-1.66s-1.91,5.11,1.07,8.3l7.34,7.88c3,3.2,5.9,3.81,8.2,1.66S208.65,208.19,205.67,205Z"/><path class="cls-2" d="M127.45,179.52l-1,0c-10.21-.46-49.45-24-54.59-27.05-1-.47-5-2.51-6-6.16a6.9,6.9,0,0,1,1.15-6c2.28-3.3,7.48-8,16.67-2.11,4.86,3.09,18.75,10.71,18.89,10.79l.11.06a6.89,6.89,0,0,1,.32-1c1.6-4.11,6.7-6.13,7.27-6.35,1.68-.54,38-11.89,58.09-11.89,21.68,0,29.91,24.26,30.25,25.29a2.72,2.72,0,0,1-.76,2.88l-18.59,16.77A2.71,2.71,0,0,1,176,175c-.06,0-6.73-4.05-16.93-3.22-5,.4-10,2.16-15,3.87C138.59,177.55,132.93,179.52,127.45,179.52ZM75.52,140.83c-1.79,0-3,1-4.06,2.58-.55.8-.44,1.21-.4,1.36.3,1.06,2,2.27,3.15,2.75l.31.17c16.6,10,45.44,26.05,52.16,26.36,4.73.24,10-1.62,15.6-3.55,5.23-1.82,10.65-3.7,16.31-4.16A37.13,37.13,0,0,1,177,169.4l15.79-14.25c-2.11-5-9.63-19.92-24.44-19.92-19.29,0-55.94,11.46-56.31,11.58-.94.37-3.41,1.73-4,3.19a1.72,1.72,0,0,0,.16,1.52c1.59,3.18,5.76,1.95,6.23,1.8l.33-.08,23.58-4.54a2.73,2.73,0,0,1,1,5.36L116,158.56c-3.19,1-9.7,1.26-12.63-4.6a5.69,5.69,0,0,1-.26-.56,2.73,2.73,0,0,1-3.15.37c-.58-.31-14.19-7.79-19.19-11A10.21,10.21,0,0,0,75.52,140.83Z"/><path class="cls-2" d="M134,88.21S136.74,93,143.39,103s-1.82,19.65-11.25,19.65-13.84-11.49-8.7-19.35S134,88.21,134,88.21m0-5.45a5.44,5.44,0,0,0-4.36,2.18c-.23.3-5.61,7.48-10.79,15.4A19,19,0,0,0,118,119.6a15.88,15.88,0,0,0,14.1,8.52,19.49,19.49,0,0,0,17.09-10c3.05-5.69,2.57-12.3-1.3-18.12-6.42-9.62-9.13-14.41-9.16-14.46a5.46,5.46,0,0,0-4.4-2.76Z"/></svg>