<svg xmlns="http://www.w3.org/2000/svg" viewBox="0 0 1920 831"><defs><style>.cls-1{fill:#005ba7;}.cls-2{fill:#fff;}</style></defs><title>logo-durex</title><path class="cls-1" d="M387.75,817.6C181.2,817.6,13.16,652,13.16,448.42S181.2,79.23,387.75,79.23H1505.16c206.55,0,374.58,165.62,374.58,369.19s-168,369.18-374.58,369.18Z"/><path class="cls-2" d="M1915.26,35.76a64.51,64.51,0,0,0-12.76-18.68,63.52,63.52,0,0,0-19-12.24A57.66,57.66,0,0,0,1860.78.23a59.4,59.4,0,0,0-23,4.61,60.42,60.42,0,0,0-18.82,12.24A56.66,56.66,0,0,0,1806,35.76a55.9,55.9,0,0,0-4.74,23A56,56,0,0,0,1806,82.48a58.63,58.63,0,0,0,12.89,18.82,60.25,60.25,0,0,0,18.69,12.37,62.86,62.86,0,0,0,23,4.34,60.22,60.22,0,0,0,22.9-4.34,58.67,58.67,0,0,0,31.71-31.19A59.68,59.68,0,0,0,1920,58.93,58.25,58.25,0,0,0,1915.26,35.76Zm-9.74,43.3A48.8,48.8,0,0,1,1895.26,95a44.1,44.1,0,0,1-15.53,10.66,45,45,0,0,1-19.08,4A48.53,48.53,0,0,1,1825.91,95a49.71,49.71,0,0,1-10.13-15.92,50.65,50.65,0,0,1-3.69-20.13,48.69,48.69,0,0,1,3.69-19.74,47.79,47.79,0,0,1,10.13-15.8,51.21,51.21,0,0,1,15.53-10.66,47,47,0,0,1,19.34-3.81,47.93,47.93,0,0,1,19.08,3.81,49,49,0,0,1,15.4,10.66,49.66,49.66,0,0,1,10.26,15.8,51,51,0,0,1,3.69,19.74A53,53,0,0,1,1905.52,79.06Zm-22.24-20.93c3.43-3,5.27-7.63,5.27-13.68,0-6.71-2.11-11.58-5.92-14.87-4.08-3.16-10-4.87-18.29-4.87h-26.72v69h10.79V63.93h11.45l18.69,29.74H1890l-19.74-30.53A24.45,24.45,0,0,0,1883.28,58.13Zm-23.55-2.89h-11.32V33.39h14.21a24,24,0,0,1,5.4.4,12.48,12.48,0,0,1,4.87,1.45,9.41,9.41,0,0,1,3.55,3.29,10.26,10.26,0,0,1,1.45,5.52,11.24,11.24,0,0,1-1.71,6.32,7.89,7.89,0,0,1-3.82,3.29,16.94,16.94,0,0,1-5.92,1.45C1864.34,55.24,1862.1,55.24,1859.73,55.24Z"/><path class="cls-2" d="M1238.48,568.13h-.24c-49.47,0-90.63-33.93-101.42-83.07l197-.44c25.8-.06,39.74-11.41,46.88-20.92,10.85-14.44,13.83-35.2,8-55.53h0C1368.53,338.94,1310.26,296,1236.52,296h-.42c-92.21.21-161.59,70.7-161.39,164,.1,45.44,16.65,86.85,46.61,116.62,29.66,29.49,70.52,45.71,115.09,45.71h.41c67.51-.15,126.43-40.32,150.12-102.33l.6-1.57h-62.25C1305.55,550.84,1275.57,568.05,1238.48,568.13ZM1237.62,351h.26c44.61,0,81.95,26.41,92.95,65.8,1.38,4.9,1,9.31-1.13,12.08s-5.52,4-10.5,4l-182.06.41C1148.36,384.75,1189.15,351.12,1237.62,351Zm-746-152.34c-8.71,7.8-12.86,18.92-12.83,33.08v106.1c-25.18-25.23-64.27-40.05-106.5-40.05h-.39c-43.95.09-84.63,16.65-114.54,46.61-30.27,30.32-46.88,71.92-46.78,117.15s16.89,86.69,47.29,116.86c30,29.75,70.56,46.11,114.36,46.1h.39a156.46,156.46,0,0,0,106.17-41.18v32H537.9V187.13L535,186.8C533.92,186.68,508.13,183.94,491.65,198.68ZM374.78,569.17h-.23a102.17,102.17,0,0,1-73.68-31.44A109.08,109.08,0,0,1,270,461.44c-.13-59.54,46.65-108.08,104.28-108.21h.27C435,353.23,479,398.51,479.1,461,479.24,526.56,438.29,569,374.78,569.17ZM843.05,297.48h6.45V507.82c.08,36.84-12.91,67.09-37.58,87.47-22.22,18.37-53.6,28.12-88.86,28.19h-.44c-35,0-66.3-9.61-88.51-27.8-24.77-20.28-37.9-50.47-38-87.3V297.48h3.27c23.72-.06,57.13-.12,57.23,48.87V500.71C656.81,546,679,569,722.67,569h.27c43.9-.1,66.12-23.16,66-68.54V345.71c0-16.4,4-28.75,12-36.73C812.73,297.28,831.37,297.41,843.05,297.48Zm204.22,55c-51.52,2.5-79.82,38.27-79.69,100.72V615.39H907.73V297.46H911c14,0,28.81.52,39.44,7.44,9.23,6,14.51,15.91,16.26,30.71,19.51-31.43,56-44.19,116.11-41.1l2.74.13.33,2.74a70.61,70.61,0,0,1,0,7.12c-.08,3-.17,6.42-.17,9.34C1085.73,338.25,1072.81,351.24,1047.27,352.45ZM1505.16,66.08H387.75C176.92,66.08,0,237.59,0,448.42S176.92,830.77,387.75,830.77H1505.16c210.82,0,387.74-171.52,387.74-382.35S1716,66.08,1505.16,66.08Zm219.09,618.05L1567.37,456.44l110.92-159h-42.48c-19.88,0-32.92,7-43.58,23.41-3.5,5.26-47.64,70.67-58.58,86.92-10.4-15.3-51.21-75.09-60.78-88.86-9.82-14.25-24.51-21.47-43.68-21.47h-42.28l113.17,159L1392,615.39h69L1533.58,506c15.54,22.72,93.8,137.16,145.72,213.18a319.72,319.72,0,0,1-174.14,51.56H387.75c-177.25,0-322.27-145-322.27-322.27h0c0-177.24,145-322.26,322.27-322.26H1505.16c177.24,0,322.26,145,322.26,322.26h0C1827.42,541.25,1787.6,625.18,1724.25,684.13Z"/></svg>