<svg xmlns="http://www.w3.org/2000/svg" xmlns:xlink="http://www.w3.org/1999/xlink" viewBox="0 0 1024 1024"><defs><style>.cls-1{isolation:isolate;}.cls-2{fill:#76cfeb;}.cls-3{fill:#f5df9f;}.cls-4{fill:#f5f2f2;}.cls-5{fill:#ffd3d4;}.cls-6{fill:#e1f1e0;}.cls-7{fill:#08970f;stroke:#024d06;}.cls-10,.cls-11,.cls-12,.cls-17,.cls-19,.cls-7,.cls-9{stroke-linecap:round;stroke-linejoin:round;}.cls-10,.cls-12,.cls-16,.cls-7,.cls-9{stroke-width:1.49px;}.cls-8{fill:#0a769e;stroke:#034068;}.cls-16,.cls-18,.cls-20,.cls-21,.cls-30,.cls-8{stroke-miterlimit:10;}.cls-11,.cls-8{stroke-width:1.49px;}.cls-9{fill:#fdd028;stroke:#be980d;}.cls-10,.cls-11{fill:#b19f9f;stroke:#666;}.cls-12{fill:#fd3333;stroke:#b11212;}.cls-13,.cls-16{fill:#fff;}.cls-14{fill:#6f2c8f;}.cls-15{fill:#6f2d8d;}.cls-16{stroke:#000;}.cls-17{stroke:#fb7654;fill:url(#linear-gradient);}.cls-17,.cls-18,.cls-20,.cls-21{stroke-width:0.08px;}.cls-18,.cls-20,.cls-21{fill:#fde2db;}.cls-18{stroke:#736542;}.cls-19{fill:#fb7654;stroke:#fde2db;stroke-width:0.3px;}.cls-20{stroke:#8a0211;}.cls-21{stroke:#8896a1;}.cls-22{fill:#b60417;}.cls-23{fill:#8a0211;}.cls-24{fill:#fdcb90;}.cls-25{mix-blend-mode:multiply;}.cls-26{fill:#f4f6fd;opacity:0;}.cls-27{fill:#c7cbd3;}.cls-27,.cls-31{opacity:0.33;}.cls-28{fill:#9aa1aa;}.cls-28,.cls-32{opacity:0.67;}.cls-29{fill:#6d7680;}.cls-30{fill:#d7e9fd;stroke:#1e4e83;stroke-width:0.15px;}.cls-31{fill:#f8f9fe;}.cls-32{fill:#fbfcfe;}</style><linearGradient id="linear-gradient" x1="476.1" y1="444.66" x2="514.9" y2="494.95" gradientUnits="userSpaceOnUse"><stop offset="0" stop-color="#fdede6"/><stop offset="0.07" stop-color="#fde4d9"/><stop offset="0.21" stop-color="#fdccb7"/><stop offset="0.36" stop-color="#fdaf8c"/></linearGradient></defs><title>wheel</title><g class="cls-1"><g id="Layer_1" data-name="Layer 1"><polygon class="cls-2" points="502.6 583.53 511.5 951.59 632.52 923.55 706.42 907.77 542.18 567.29 502.6 583.53"/><polygon class="cls-3" points="589.89 463.77 917.46 307.68 953.24 513.5 950.3 603.93 593.95 520.61 589.89 463.77"/><polygon class="cls-4" points="705.11 902.11 512.68 502.49 950.2 604.34 876.63 743.59 705.11 902.11"/><polygon class="cls-5" points="513.08 53.72 780.16 214.34 915.18 311.27 512.68 502.49 513.08 53.72"/><polygon class="cls-3" points="512.68 502.49 513.08 53.72 207.42 216.42 71.9 500.66 220.82 755.55 411.63 940.19 512.62 502.94 512.68 502.49"/><polygon class="cls-6" points="512.68 502.49 703.85 902.03 237.7 844.89 512.68 502.49"/><path class="cls-7" d="M351.67,834.8l-34.85,71.94a445.78,445.78,0,0,0,94.81,33.45l18-77.89A366.13,366.13,0,0,1,351.67,834.8Z"/><path class="cls-8" d="M512.68,871.68h-1l-.21,79.92,1.18,0a450.63,450.63,0,0,0,98.75-10.92l-17.57-78A370.58,370.58,0,0,1,512.68,871.68Z"/><path class="cls-7" d="M429.61,862.3l-18,77.89a450.74,450.74,0,0,0,99.87,11.4l.21-79.92A370.15,370.15,0,0,1,429.61,862.3Z"/><path class="cls-7" d="M281.85,790.61l-50,62.37a448.73,448.73,0,0,0,84.94,53.76l34.85-71.94A369.4,369.4,0,0,1,281.85,790.61Z"/><path class="cls-9" d="M223.55,732.06,161,781.76A451.51,451.51,0,0,0,231.88,853l50-62.37A371.92,371.92,0,0,1,223.55,732.06Z"/><path class="cls-9" d="M179.66,662l-72.1,34.54A449.54,449.54,0,0,0,161,781.76l62.59-49.7A368.86,368.86,0,0,1,179.66,662Z"/><path class="cls-10" d="M800.6,733.57l62.33,50a449.24,449.24,0,0,0,53.83-84.9l-71.9-34.91A369.6,369.6,0,0,1,800.6,733.57Z"/><path class="cls-10" d="M844.86,663.79l71.9,34.91a445.67,445.67,0,0,0,33.54-94.77l-77.88-18.06A366.67,366.67,0,0,1,844.86,663.79Z"/><path class="cls-9" d="M152.53,584l-78,17.64a445.77,445.77,0,0,0,33,95L179.66,662A366.62,366.62,0,0,1,152.53,584Z"/><path class="cls-9" d="M961.8,502.49H881.88a370.07,370.07,0,0,1-9.46,83.38l77.88,18.06a450.89,450.89,0,0,0,11.5-101.44Z"/><path class="cls-10" d="M742,791.82l49.64,62.64a451.93,451.93,0,0,0,71.28-70.86l-62.33-50A371.43,371.43,0,0,1,742,791.82Z"/><path class="cls-8" d="M593.86,862.71l17.57,78a445.47,445.47,0,0,0,95-32.92L672,835.65A366.89,366.89,0,0,1,593.86,862.71Z"/><path class="cls-11" d="M672,835.65l34.47,72.12a449.33,449.33,0,0,0,85.23-53.31L742,791.82A370,370,0,0,1,672,835.65Z"/><path class="cls-9" d="M152.8,419.73,74.9,401.82A450.29,450.29,0,0,0,63.57,501.7l79.92.14A370.89,370.89,0,0,1,152.8,419.73Z"/><path class="cls-12" d="M673.11,169.88l34.73-72A446,446,0,0,0,613,64.62l-17.85,77.92A366.9,366.9,0,0,1,673.11,169.88Z"/><path class="cls-9" d="M512.68,133.29H513l.07-79.93h-.4a450.62,450.62,0,0,0-99.51,11.08l17.7,78A370.61,370.61,0,0,1,512.68,133.29Z"/><path class="cls-12" d="M595.12,142.54,613,64.62a451,451,0,0,0-99.89-11.25L513,133.3A370.21,370.21,0,0,1,595.12,142.54Z"/><path class="cls-12" d="M743,214l49.86-62.46a449.27,449.27,0,0,0-85-53.62l-34.73,72A370.33,370.33,0,0,1,743,214Z"/><path class="cls-9" d="M143.49,502.49v-.65l-79.92-.14c0,.27,0,.52,0,.79a450.92,450.92,0,0,0,11,99.13l78-17.64A370.24,370.24,0,0,1,143.49,502.49Z"/><path class="cls-9" d="M872.69,420.36l77.94-17.77a445.76,445.76,0,0,0-33.17-94.91l-72,34.67A366,366,0,0,1,872.69,420.36Z"/><path class="cls-12" d="M845.43,342.35l72-34.67a449.07,449.07,0,0,0-53.55-85.07l-62.5,49.8A369,369,0,0,1,845.43,342.35Z"/><path class="cls-12" d="M801.41,272.41l62.5-49.8a451.57,451.57,0,0,0-71-71.11L743,214A371.92,371.92,0,0,1,801.41,272.41Z"/><path class="cls-9" d="M180.22,341.77l-72-34.79A445.23,445.23,0,0,0,74.9,401.82l77.9,17.91A366.85,366.85,0,0,1,180.22,341.77Z"/><path class="cls-9" d="M224.36,271.91,161.94,222a449.29,449.29,0,0,0-53.69,85l72,34.79A369,369,0,0,1,224.36,271.91Z"/><path class="cls-9" d="M881.88,502.49H961.8a450.44,450.44,0,0,0-11.17-99.9l-77.94,17.77A369.86,369.86,0,0,1,881.88,502.49Z"/><path class="cls-9" d="M282.86,213.56,233.11,151a452,452,0,0,0-71.17,71l62.42,49.92A371.07,371.07,0,0,1,282.86,213.56Z"/><path class="cls-9" d="M430.87,142.4l-17.7-77.95a445.82,445.82,0,0,0-94.94,33.09l34.6,72.06A367.17,367.17,0,0,1,430.87,142.4Z"/><path class="cls-9" d="M352.83,169.6l-34.6-72.06A449.09,449.09,0,0,0,233.11,151l49.75,62.55A369.3,369.3,0,0,1,352.83,169.6Z"/><path class="cls-13" d="M556,84.05H556l-4.37,2.36-.66-2.59,5.49-2.94h2.91V106H556Z"/><path class="cls-13" d="M638.19,124.78v-2.09l2.67-2.59c6.43-6.12,9.37-9.37,9.37-13.16,0-2.56-1.2-4.92-5-4.92a8.56,8.56,0,0,0-5.34,2.13l-1.08-2.4a11.15,11.15,0,0,1,7.08-2.55c5.42,0,7.7,3.71,7.7,7.31,0,4.65-3.36,8.4-8.67,13.51l-2,1.86V122h11.26v2.82Z"/><path class="cls-13" d="M720.23,154.23a11.6,11.6,0,0,0,5.57,1.55c4.33,0,5.73-2.74,5.69-4.87,0-3.53-3.21-5-6.5-5h-1.9v-2.55H725c2.47,0,5.61-1.28,5.61-4.26,0-2-1.28-3.79-4.41-3.79a9.23,9.23,0,0,0-5,1.66l-.93-2.47a12.18,12.18,0,0,1,6.62-1.94c4.95,0,7.2,2.94,7.2,6,0,2.63-1.59,4.84-4.65,6v.08A6.51,6.51,0,0,1,735,151c0,4-3.17,7.55-9.17,7.55a12.84,12.84,0,0,1-6.54-1.7Z"/><path class="cls-13" d="M804.92,222.53v-6.89H793.23v-2.2l11.22-16.07h3.68V213h3.52v2.63h-3.52v6.89Zm0-9.52v-8.4c0-1.31,0-2.63.12-3.94h-.12c-.78,1.47-1.4,2.55-2.09,3.71l-6.16,8.55V213Z"/><path class="cls-13" d="M863.56,271.62H854l-1,6.47a13.81,13.81,0,0,1,2-.12,10.23,10.23,0,0,1,5.42,1.35,7.12,7.12,0,0,1,3.6,6.43c0,4.91-3.91,8.59-9.37,8.59a12.37,12.37,0,0,1-6.27-1.55l.85-2.59a11.33,11.33,0,0,0,5.42,1.39c3.18,0,6-2.09,5.93-5.45s-2.21-5.54-7.2-5.54a28.31,28.31,0,0,0-3.53.23l1.63-12.07h12Z"/><path class="cls-13" d="M906.63,352.75a12.86,12.86,0,0,0-2.55.19,10.08,10.08,0,0,0-8.75,8.91h.08a7.49,7.49,0,0,1,6.12-3c4.45,0,7.58,3.26,7.58,8.13,0,4.65-3.13,8.91-8.4,8.91s-8.86-4.19-8.86-10.73a15.65,15.65,0,0,1,4.26-11.34,13.64,13.64,0,0,1,8-3.71,15.87,15.87,0,0,1,2.47-.2Zm-1,14.51c0-3.59-2.06-5.76-5.19-5.76a5.61,5.61,0,0,0-4.92,3.09,3.27,3.27,0,0,0-.34,1.48c0,4.14,2,7.23,5.57,7.23C903.69,373.3,905.67,370.86,905.67,367.26Z"/><path class="cls-13" d="M931.52,441v2.24l-11,22.92H917L928,443.85v-.08H915.65V441Z"/><path class="cls-13" d="M917.75,544.51c-2.83-1.32-4-3.49-4-5.66,0-4,3.37-6.69,7.82-6.69,4.88,0,7.35,3,7.35,6.19,0,2.13-1.08,4.46-4.18,5.88v.12c3.14,1.24,5.07,3.48,5.07,6.5,0,4.42-3.75,7.32-8.55,7.32-5.26,0-8.44-3.1-8.44-6.77,0-3.18,1.9-5.46,5-6.78Zm8.59,6.69c0-3-2.13-4.53-5.54-5.5-2.94.86-4.52,2.83-4.52,5.23s1.81,4.76,5,4.76C924.36,555.69,926.34,553.8,926.34,551.2ZM917,538.62c0,2.52,1.9,3.87,4.8,4.65,2.17-.74,3.83-2.29,3.83-4.57a3.91,3.91,0,0,0-4.25-4.1C918.52,534.6,917,536.45,917,538.62Z"/><path class="cls-13" d="M892.17,644.9a13.81,13.81,0,0,0,2.75-.12,9.18,9.18,0,0,0,5.26-2.44,11.08,11.08,0,0,0,3.33-6.65h-.12a7.37,7.37,0,0,1-6,2.67c-4.49,0-7.39-3.41-7.39-7.71,0-4.76,3.44-8.94,8.59-8.94s8.32,4.14,8.32,10.65c0,5.49-1.85,9.37-4.33,11.77a12.64,12.64,0,0,1-7.32,3.36,15.33,15.33,0,0,1-3.13.2Zm1.24-14.44c0,3.14,1.89,5.34,4.83,5.34a5.63,5.63,0,0,0,5-2.63,2.44,2.44,0,0,0,.31-1.28c0-4.29-1.59-7.58-5.19-7.58C895.46,624.31,893.41,626.86,893.41,630.46Z"/><path class="cls-13" d="M848.34,705.5h-.08l-4.37,2.36-.66-2.6,5.5-2.94h2.9v25.16h-3.29Z"/><path class="cls-13" d="M877.56,714.63c0,8.56-3.21,13.28-8.75,13.28-4.91,0-8.28-4.61-8.36-12.93,0-8.48,3.68-13.08,8.79-13.08S877.56,706.62,877.56,714.63ZM863.9,715c0,6.54,2,10.26,5.11,10.26,3.44,0,5.1-4.07,5.1-10.49,0-6.2-1.54-10.26-5.1-10.26C866.06,704.53,863.9,708.17,863.9,715Z"/><path class="cls-13" d="M789.55,778.39h-.07l-4.38,2.36-.65-2.59,5.49-2.94h2.91v25.16h-3.3Z"/><path class="cls-13" d="M809.41,778.39h-.08L805,780.75l-.66-2.59,5.49-2.94h2.91v25.16h-3.29Z"/><path class="cls-13" d="M718.27,835.67h-.07L713.82,838l-.66-2.59,5.5-2.94h2.9v25.16h-3.29Z"/><path class="cls-13" d="M730.73,857.65v-2.09L733.4,853c6.43-6.12,9.37-9.37,9.37-13.16,0-2.56-1.2-4.92-4.95-4.92a8.53,8.53,0,0,0-5.34,2.13l-1.09-2.4a11.15,11.15,0,0,1,7.08-2.56c5.43,0,7.71,3.72,7.71,7.32,0,4.64-3.37,8.4-8.67,13.51l-2,1.85v.08H746.8v2.83Z"/><path class="cls-13" d="M632.21,877.32h-.08l-4.37,2.36-.66-2.59,5.5-3h2.9V899.3h-3.29Z"/><path class="cls-13" d="M645.48,895.43a11.76,11.76,0,0,0,5.58,1.55c4.33,0,5.73-2.75,5.69-4.88,0-3.52-3.22-5-6.51-5h-1.89v-2.55h1.89c2.48,0,5.62-1.28,5.62-4.26,0-2-1.28-3.79-4.41-3.79a9.3,9.3,0,0,0-5,1.66l-.93-2.48a12.32,12.32,0,0,1,6.62-1.93c5,0,7.2,2.94,7.2,6,0,2.63-1.58,4.84-4.64,6v.08a6.52,6.52,0,0,1,5.61,6.42c0,4-3.17,7.55-9.17,7.55a12.81,12.81,0,0,1-6.54-1.7Z"/><path class="cls-13" d="M545.21,900.46h-.08l-4.37,2.36-.66-2.59,5.49-2.94h2.91v25.16h-3.29Z"/><path class="cls-13" d="M568.2,922.45v-6.89H556.51v-2.21l11.22-16.06h3.68v15.64h3.52v2.63h-3.52v6.89Zm0-9.52v-8.4c0-1.32,0-2.63.11-3.95h-.11c-.78,1.47-1.4,2.55-2.09,3.72L560,912.85v.08Z"/><path class="cls-13" d="M453.57,897.91h-.08l-4.37,2.36-.66-2.59,5.5-2.94h2.9V919.9h-3.29Z"/><path class="cls-13" d="M481.05,897.6h-9.6l-1,6.46a15.72,15.72,0,0,1,2-.11A10.21,10.21,0,0,1,478,905.3a7.1,7.1,0,0,1,3.6,6.43c0,4.92-3.91,8.59-9.36,8.59a12.41,12.41,0,0,1-6.28-1.55l.86-2.59a11.27,11.27,0,0,0,5.42,1.39c3.17,0,6-2.09,5.92-5.45s-2.21-5.54-7.2-5.54a28.27,28.27,0,0,0-3.52.23L469,894.74h12Z"/><path class="cls-13" d="M364,877.32h-.08l-4.37,2.36-.66-2.59,5.49-3h2.91V899.3H364Z"/><path class="cls-13" d="M390.84,876.54a13,13,0,0,0-2.56.2,10.06,10.06,0,0,0-8.74,8.9h.07a7.48,7.48,0,0,1,6.12-2.94c4.45,0,7.59,3.25,7.59,8.13,0,4.64-3.14,8.9-8.4,8.9s-8.87-4.18-8.87-10.72c0-5,1.74-8.87,4.26-11.34a13.73,13.73,0,0,1,8.05-3.72,15.69,15.69,0,0,1,2.48-.19Zm-1,14.52c0-3.6-2.05-5.77-5.19-5.77a5.58,5.58,0,0,0-4.91,3.1,3.09,3.09,0,0,0-.35,1.47c0,4.14,2,7.24,5.57,7.24C387.9,897.1,389.87,894.66,389.87,891.06Z"/><path class="cls-13" d="M276.54,835.67h-.07L272.09,838l-.66-2.59,5.5-2.94h2.9v25.16h-3.29Z"/><path class="cls-13" d="M305.34,832.49v2.24l-11,22.92h-3.52l10.92-22.26v-.08H289.47v-2.82Z"/><path class="cls-13" d="M207.81,778.39h-.07l-4.38,2.36-.65-2.59,5.49-2.94h2.91v25.16h-3.3Z"/><path class="cls-13" d="M224.92,787.14c-2.82-1.32-4-3.49-4-5.65,0-4,3.37-6.7,7.82-6.7,4.88,0,7.36,3,7.36,6.19,0,2.13-1.08,4.46-4.18,5.89V787c3.13,1.24,5.07,3.49,5.07,6.51,0,4.41-3.76,7.31-8.56,7.31-5.26,0-8.43-3.09-8.43-6.77,0-3.18,1.89-5.46,5-6.77Zm8.59,6.69c0-3-2.12-4.52-5.53-5.49-2.94.85-4.53,2.82-4.53,5.22s1.82,4.77,5,4.77S233.51,796.43,233.51,793.83Zm-9.36-12.58c0,2.52,1.89,3.88,4.8,4.65,2.16-.74,3.83-2.28,3.83-4.57a3.91,3.91,0,0,0-4.26-4.1C225.7,777.23,224.15,779.09,224.15,781.25Z"/><path class="cls-13" d="M151.58,705.5h-.08l-4.37,2.36-.66-2.6,5.5-2.94h2.9v25.16h-3.29Z"/><path class="cls-13" d="M166,725.08a14.47,14.47,0,0,0,2.75-.11,9.25,9.25,0,0,0,5.26-2.44,11.11,11.11,0,0,0,3.33-6.66h-.12a7.37,7.37,0,0,1-6,2.67c-4.49,0-7.39-3.41-7.39-7.7,0-4.76,3.44-8.94,8.59-8.94s8.32,4.14,8.32,10.64c0,5.5-1.85,9.37-4.33,11.77a12.59,12.59,0,0,1-7.32,3.37,15.92,15.92,0,0,1-3.13.19Zm1.24-14.43c0,3.13,1.89,5.34,4.83,5.34a5.64,5.64,0,0,0,5-2.64,2.38,2.38,0,0,0,.31-1.27c0-4.3-1.59-7.59-5.19-7.59C169.31,704.49,167.26,707,167.26,710.65Z"/><path class="cls-13" d="M106.7,647.3v-2.09l2.67-2.6c6.43-6.11,9.37-9.36,9.37-13.15,0-2.56-1.2-4.92-4.95-4.92a8.56,8.56,0,0,0-5.35,2.13l-1.08-2.4a11.15,11.15,0,0,1,7.08-2.56c5.42,0,7.71,3.72,7.71,7.32,0,4.65-3.37,8.4-8.67,13.51l-2,1.86v.07h11.27v2.83Z"/><path class="cls-13" d="M143.32,634.45c0,8.55-3.22,13.28-8.75,13.28-4.92,0-8.29-4.61-8.36-12.93,0-8.48,3.67-13.09,8.78-13.09C140.26,621.71,143.32,626.44,143.32,634.45Zm-13.67.39c0,6.53,2,10.25,5.11,10.25,3.45,0,5.11-4.06,5.11-10.49,0-6.19-1.55-10.25-5.11-10.25C131.82,624.35,129.65,628,129.65,634.84Z"/><path class="cls-13" d="M88,557.74v-2.09l2.67-2.59c6.42-6.12,9.37-9.37,9.37-13.16,0-2.55-1.2-4.91-5-4.91a8.61,8.61,0,0,0-5.34,2.12l-1.08-2.4a11.15,11.15,0,0,1,7.08-2.55c5.42,0,7.7,3.72,7.7,7.32,0,4.64-3.37,8.39-8.67,13.51l-2,1.85v.08H104v2.82Z"/><path class="cls-13" d="M115.2,535.76h-.07l-4.38,2.36-.65-2.59,5.49-2.95h2.91v25.16h-3.3Z"/><path class="cls-13" d="M83.79,466.11V464l2.67-2.6c6.43-6.11,9.37-9.37,9.37-13.16,0-2.55-1.2-4.91-5-4.91a8.59,8.59,0,0,0-5.35,2.13l-1.08-2.41a11.15,11.15,0,0,1,7.08-2.55c5.42,0,7.71,3.72,7.71,7.32,0,4.64-3.37,8.4-8.67,13.51l-2,1.85v.08H99.86v2.83Z"/><path class="cls-13" d="M103.65,466.11V464l2.67-2.6c6.42-6.11,9.36-9.37,9.36-13.16,0-2.55-1.2-4.91-5-4.91a8.56,8.56,0,0,0-5.34,2.13l-1.09-2.41a11.18,11.18,0,0,1,7.09-2.55c5.42,0,7.7,3.72,7.7,7.32,0,4.64-3.37,8.4-8.67,13.51l-2,1.85v.08h11.26v2.83Z"/><path class="cls-13" d="M104.62,375.51v-2.09l2.67-2.59c6.42-6.12,9.37-9.37,9.37-13.16,0-2.56-1.2-4.92-5-4.92a8.56,8.56,0,0,0-5.34,2.13l-1.08-2.4a11.15,11.15,0,0,1,7.08-2.55c5.42,0,7.7,3.71,7.7,7.31,0,4.64-3.37,8.4-8.67,13.51l-2,1.86v.07h11.26v2.83Z"/><path class="cls-13" d="M125.28,371.64a11.76,11.76,0,0,0,5.58,1.55c4.33,0,5.73-2.75,5.69-4.88,0-3.52-3.22-5-6.5-5h-1.9v-2.56h1.9c2.47,0,5.61-1.27,5.61-4.25,0-2-1.28-3.8-4.41-3.8a9.22,9.22,0,0,0-5,1.67l-.93-2.48a12.21,12.21,0,0,1,6.62-1.93c5,0,7.2,2.94,7.2,6,0,2.64-1.58,4.84-4.64,6V362a6.53,6.53,0,0,1,5.61,6.43c0,4-3.17,7.55-9.17,7.55a12.7,12.7,0,0,1-6.54-1.71Z"/><path class="cls-13" d="M144.19,293.92v-2.09l2.67-2.6c6.43-6.11,9.37-9.36,9.37-13.16,0-2.55-1.2-4.91-5-4.91a8.56,8.56,0,0,0-5.34,2.13l-1.08-2.4a11.1,11.1,0,0,1,7.08-2.56c5.42,0,7.7,3.72,7.7,7.32,0,4.64-3.36,8.4-8.67,13.5L149,291v.08h11.26v2.83Z"/><path class="cls-13" d="M174.57,293.92V287H162.88v-2.21l11.23-16.06h3.67v15.63h3.53V287h-3.53v6.89Zm0-9.53V276c0-1.32,0-2.64.12-3.95h-.12c-.77,1.47-1.39,2.55-2.09,3.71l-6.15,8.56v.07Z"/><path class="cls-13" d="M198.34,222.53v-2.09l2.67-2.59c6.43-6.12,9.37-9.37,9.37-13.16,0-2.55-1.2-4.92-5-4.92a8.61,8.61,0,0,0-5.34,2.13L199,199.5a11.15,11.15,0,0,1,7.08-2.55c5.42,0,7.7,3.71,7.7,7.31,0,4.65-3.37,8.4-8.67,13.51l-2,1.86v.08H214.4v2.82Z"/><path class="cls-13" d="M233.21,200.24h-9.6l-1,6.46a15.78,15.78,0,0,1,2.06-.11,10.11,10.11,0,0,1,5.41,1.35,7.09,7.09,0,0,1,3.6,6.43c0,4.91-3.91,8.59-9.36,8.59a12.37,12.37,0,0,1-6.27-1.55l.85-2.59a11.27,11.27,0,0,0,5.42,1.39c3.17,0,6-2.09,5.92-5.46s-2.21-5.53-7.2-5.53a26.46,26.46,0,0,0-3.52.23l1.62-12.08h12Z"/><path class="cls-13" d="M275.4,163.88v-2.09l2.67-2.59c6.43-6.12,9.37-9.37,9.37-13.16,0-2.56-1.2-4.92-5-4.92a8.56,8.56,0,0,0-5.34,2.13l-1.08-2.4a11.15,11.15,0,0,1,7.08-2.55c5.42,0,7.7,3.71,7.7,7.31,0,4.65-3.37,8.4-8.67,13.51l-2,1.86v.08h11.26v2.82Z"/><path class="cls-13" d="M309.61,141.12a12.9,12.9,0,0,0-2.55.2,10.07,10.07,0,0,0-8.75,8.9h.08a7.48,7.48,0,0,1,6.11-2.94c4.45,0,7.59,3.25,7.59,8.13,0,4.64-3.14,8.9-8.4,8.9s-8.86-4.18-8.86-10.72c0-5,1.74-8.87,4.25-11.34a13.68,13.68,0,0,1,8.05-3.72,15.69,15.69,0,0,1,2.48-.19Zm-1,14.52c0-3.6-2.05-5.77-5.18-5.77a5.6,5.6,0,0,0-4.92,3.1,3.22,3.22,0,0,0-.35,1.47c0,4.14,2,7.24,5.58,7.24C306.67,161.68,308.64,159.24,308.64,155.64Z"/><path class="cls-13" d="M358.71,124.31v-2.09l2.67-2.59c6.42-6.12,9.36-9.37,9.36-13.16,0-2.56-1.2-4.92-4.95-4.92a8.56,8.56,0,0,0-5.34,2.13l-1.09-2.4a11.18,11.18,0,0,1,7.09-2.55c5.42,0,7.7,3.71,7.7,7.31,0,4.65-3.37,8.4-8.67,13.51l-2,1.86v.07h11.26v2.83Z"/><path class="cls-13" d="M394.89,99.15v2.25l-10.95,22.91h-3.52l10.91-22.26V102H379V99.15Z"/><path class="cls-13" d="M448.26,105.57v-2.09l2.67-2.6c6.43-6.11,9.37-9.36,9.37-13.16,0-2.55-1.2-4.91-5-4.91A8.56,8.56,0,0,0,450,84.94l-1.08-2.4A11.1,11.1,0,0,1,456,80c5.42,0,7.7,3.72,7.7,7.32,0,4.64-3.36,8.4-8.67,13.5l-2,1.86v.08h11.26v2.83Z"/><path class="cls-13" d="M472.76,92.33c-2.83-1.32-4-3.48-4-5.65,0-4,3.37-6.7,7.82-6.7,4.88,0,7.36,3,7.36,6.2,0,2.12-1.09,4.45-4.18,5.88v.11c3.13,1.24,5.07,3.49,5.07,6.51,0,4.41-3.76,7.31-8.56,7.31-5.26,0-8.44-3.09-8.44-6.77,0-3.17,1.9-5.46,5-6.77Zm8.59,6.7c0-3-2.13-4.53-5.53-5.5-2.95.85-4.53,2.82-4.53,5.22s1.82,4.77,5,4.77S481.35,101.62,481.35,99ZM472,86.45c0,2.51,1.9,3.87,4.81,4.64,2.16-.74,3.83-2.28,3.83-4.57a3.91,3.91,0,0,0-4.26-4.1C473.53,82.42,472,84.28,472,86.45Z"/><path class="cls-14" d="M986.9,340.33l-1.42.53c-5.53,2.05-10-.26-12.13-6.13l-.86-2.32-11.32,4.21-2.48-6.69,30-11.15,3.34,9C994.22,333.66,992.43,338.28,986.9,340.33Zm-2.62-6.64c2.49-.92,3.07-2.26,2.22-4.53l-.63-1.71-8.06,3,.63,1.71c.85,2.28,2.16,2.91,4.64,2Z"/><path class="cls-14" d="M976.63,363.93l-5.48,1.78-4.91-15.14,30.45-9.87,4.74,14.61L996,357.09l-2.54-7.83-6.18,2,2,6.09-5.39,1.75-2-6.09-7.92,2.57Z"/><path class="cls-14" d="M986.75,372.91l-.44-1.58-12.56,3.49L971.84,368l30.84-8.58,2.54,9.12c1.7,6.13-.35,10.21-5.94,11.76l-1.1.31c-3.48,1-6.4.4-8.42-1.74l-12.67,8-2-7.31Zm5-3.1.51,1.85c.59,2.12,1.81,2.73,4,2.12l1.1-.31c2.12-.59,2.84-1.74,2.25-3.86l-.51-1.85Z"/><path class="cls-14" d="M1008.75,381.85l1.67,6.93-31.12,7.51-1.68-6.94Z"/><path class="cls-14" d="M990.07,397.46l11.47-2.35c6.41-1.31,11,1.47,12.29,7.57s-1.92,10.47-8.33,11.78L994,416.81c-6.4,1.31-11-1.47-12.28-7.57S983.66,398.77,990.07,397.46Zm2.13,12.44,12.28-2.51c2.69-.55,3.79-1.76,3.44-3.5s-1.85-2.43-4.54-1.88l-12.28,2.52c-2.69.55-3.8,1.75-3.44,3.5S989.51,410.45,992.2,409.9Z"/><path class="cls-14" d="M1016.27,417.05l1.45,9.31c1,6.5-1.62,10.39-7.68,11.33l-13.19,2.05c-6.06.95-9.75-1.95-10.76-8.46L984.64,422ZM991.78,430.4c.31,2,1.48,2.68,3.84,2.31l13.46-2.09c2.35-.37,3.26-1.39,2.95-3.38l-.35-2.26-20.25,3.16Z"/><path class="cls-14" d="M998.13,443.19l11.64-1.25c6.5-.7,10.85,2.51,11.51,8.7s-2.9,10.24-9.4,10.94l-11.64,1.25c-6.5.7-10.85-2.51-11.51-8.7S991.63,443.89,998.13,443.19Zm.94,12.59,12.46-1.34c2.73-.29,3.94-1.39,3.75-3.16s-1.61-2.59-4.34-2.29l-12.46,1.33c-2.73.3-3.94,1.39-3.75,3.17S996.34,456.07,999.07,455.78Z"/><path class="cls-14" d="M1014.53,474.58l.59,0c5.49-.23,8.41,3.81,8.62,8.83s-2.39,9.26-7.41,9.48l-2.11.09-.52-6.8,2-.09c1.83-.08,2.71-.94,2.65-2.4a2.2,2.2,0,0,0-2.53-2.18l-.63,0a3.15,3.15,0,0,0-2.76,1.95l-2.41,4.68c-2,3.84-4.75,5.56-8.58,5.72l-1,.05c-5.89.25-9.17-3.59-9.41-9.21-.25-5.85,2.7-9.59,8.32-9.83l2.65-.12.61,6.84-2.69.12c-2.15.09-3.21,1.1-3.14,2.74s1.12,2.43,2.9,2.35l.87,0a3.45,3.45,0,0,0,3.29-2.2l2.28-4.4C1008,476.55,1010.6,474.75,1014.53,474.58Z"/><path class="cls-14" d="M997.76,512.83l-5.77.1L991.73,497l32-.52.25,15.37-5.76.09-.14-8.23-6.49.1.1,6.41-5.67.09-.1-6.41-8.33.14Z"/><path class="cls-14" d="M1001.25,535.33c-6.54-.25-10.37-4.06-10.13-10.27s4.36-9.72,10.89-9.47l11.7.46c6.54.25,10.37,4.06,10.13,10.27s-4.36,9.72-10.89,9.47l-1.42-.06-.18-7.14,2.29.08c2.74.11,4.1-.8,4.17-2.58s-1.22-2.79-4-2.9l-12.52-.49c-2.75-.1-4.11.81-4.18,2.59s1.22,2.79,4,2.9l2.88.11-.68,7.11Z"/><path class="cls-14" d="M1001,538.73l11.67,1c6.52.56,10.17,4.54,9.63,10.74s-4.81,9.5-11.33,8.94l-11.66-1c-6.52-.56-10.17-4.55-9.64-10.75S994.52,538.17,1001,538.73Zm-1.49,12.54,12.49,1.08c2.73.23,4.13-.61,4.29-2.39s-1.09-2.84-3.82-3.08L1000,545.8c-2.73-.23-4.14.61-4.29,2.39S996.81,551,999.54,551.27Z"/><path class="cls-14" d="M10.91,443.33l1.5.14c5.88.53,8.87,4.51,8.31,10.76l-.22,2.46,12,1.07-.64,7.11L0,462l.86-9.57C1.42,446.2,5,442.81,10.91,443.33Zm-.51,7.12c-2.64-.23-3.73.72-3.95,3.14l-.16,1.82,8.56.77.16-1.82c.22-2.42-.69-3.56-3.33-3.79Z"/><path class="cls-14" d="M30.34,426.45l5.71.75L34,443,2.23,438.79l2-15.24,5.71.76-1.08,8.16,6.44.85.84-6.35,5.62.75-.84,6.34,8.25,1.09Z"/><path class="cls-14" d="M25.06,414l-.29,1.63,12.84,2.25-1.23,7L4.84,419.36,6.48,410c1.09-6.26,4.7-9.07,10.42-8.07l1.13.2c3.56.63,5.94,2.39,6.84,5.2l14.9-1.8L38.46,413Zm-5.87.65.33-1.9c.38-2.16-.46-3.23-2.71-3.63l-1.13-.2c-2.16-.38-3.31.35-3.69,2.52l-.33,1.89Z"/><path class="cls-14" d="M9,396.46l1.48-7,31.33,6.6-1.47,7Z"/><path class="cls-14" d="M32.61,390.41l-11.37-2.82c-6.35-1.57-9.33-6.07-7.84-12.11s6.24-8.64,12.59-7.06l11.36,2.81c6.35,1.57,9.34,6.08,7.84,12.12S39,392,32.61,390.41ZM36,378.25l-12.16-3c-2.67-.66-4.19,0-4.62,1.69s.63,3,3.3,3.64l12.16,3c2.66.66,4.18.05,4.61-1.68S38.7,378.91,36,378.25Z"/><path class="cls-14" d="M17.38,361.45l2.69-9c1.89-6.31,5.94-8.68,11.81-6.92l12.8,3.82c5.87,1.76,8,6,6.07,12.27l-2.7,9Zm27.85-1.51c.57-1.93-.19-3.06-2.47-3.74l-13-3.9c-2.28-.69-3.54-.15-4.11,1.77l-.66,2.19,19.63,5.87Z"/><path class="cls-14" d="M45,345.64l-11-3.88c-6.17-2.17-8.71-6.94-6.65-12.81s7-8,13.2-5.83l11,3.88c6.17,2.17,8.71,6.94,6.65,12.81S51.17,347.81,45,345.64Zm4.57-11.77-11.82-4.16c-2.59-.91-4.16-.44-4.75,1.24s.34,3,2.93,3.94l11.82,4.16c2.59.91,4.16.44,4.75-1.24S52.16,334.78,49.57,333.87Z"/><path class="cls-14" d="M43.72,310.22l-.55-.23c-5.05-2.15-5.94-7.06-4-11.69S45.36,291,50,293l1.94.83-2.46,6.36-1.85-.79c-1.69-.72-2.85-.32-3.42,1a2.19,2.19,0,0,0,1.33,3.05l.59.25a3.18,3.18,0,0,0,3.33-.57l4.19-3.19c3.44-2.6,6.68-3,10.22-1.46l.92.4c5.43,2.31,6.73,7.19,4.53,12.36-2.3,5.39-6.58,7.5-11.75,5.29l-2.44-1L57.5,309,60,310.09c2,.84,3.37.39,4-1.13s.05-2.66-1.6-3.36l-.79-.34a3.45,3.45,0,0,0-3.92.57l-4,3C50.49,311.26,47.34,311.76,43.72,310.22Z"/><path class="cls-14" d="M75.51,282.93l5.2,2.47-6.83,14.38L45,286l6.6-13.87,5.2,2.47-3.53,7.44,5.86,2.78,2.75-5.78L67,281.51l-2.75,5.78,7.52,3.57Z"/><path class="cls-14" d="M82,261.19c5.78,3.06,7.59,8.15,4.68,13.65s-8.14,6.87-13.92,3.81l-10.34-5.47c-5.78-3.06-7.59-8.16-4.68-13.65s8.13-6.87,13.92-3.82l1.25.67-2.93,6.52-2-1.07c-2.42-1.29-4-1.06-4.88.52s-.11,3,2.32,4.33l11.07,5.86c2.43,1.28,4,1,4.89-.52s.11-3-2.32-4.33l-2.55-1.35,3.7-6.11Z"/><path class="cls-14" d="M83.62,258.21l-10.08-6c-5.63-3.32-7.19-8.5-4-13.85s8.45-6.48,14.08-3.15l10.07,6c5.63,3.32,7.2,8.5,4,13.85S89.25,261.54,83.62,258.21Zm6.78-10.65-10.79-6.38c-2.36-1.4-4-1.25-4.9.29s-.25,3,2.11,4.43l10.79,6.38c2.36,1.4,4,1.24,4.9-.29S92.76,249,90.4,247.56Z"/><path class="cls-15" d="M232.89,407.41v1.82c0,7.12-4.47,11.15-12,11.15h-3V435h-8.61V396.32h11.59C228.42,396.32,232.89,400.29,232.89,407.41Zm-8.61.17c0-3.2-1.27-4.42-4.2-4.42h-2.2v10.38h2.2c2.93,0,4.2-1.22,4.2-4.42Z"/><path class="cls-15" d="M255.41,428V435H236.2V396.32h18.54v6.95h-9.93v7.84h7.73V418h-7.73V428Z"/><path class="cls-15" d="M269.2,419.22h-2V435h-8.61V396.32H270c7.67,0,11.76,3.7,11.76,10.7v1.38c0,4.36-1.6,7.56-4.75,9.22L282.28,435h-9.16Zm-2-6.84h2.32c2.65,0,3.75-1.22,3.75-4V407c0-2.64-1.1-3.86-3.75-3.86h-2.32Z"/><path class="cls-15" d="M285.71,396.32h8.61V435h-8.61Z"/><path class="cls-15" d="M298.62,422.7V408.57c0-7.89,4.42-12.69,11.93-12.69s11.92,4.8,11.92,12.69V422.7c0,7.89-4.42,12.69-11.92,12.69S298.62,430.59,298.62,422.7Zm15.24.49V408.07c0-3.31-1.16-4.91-3.31-4.91s-3.32,1.6-3.32,4.91v15.12c0,3.32,1.16,4.92,3.32,4.92S313.86,426.51,313.86,423.19Z"/><path class="cls-15" d="M326.77,396.32h11.37c7.95,0,12.09,3.86,12.09,11.26v16.11c0,7.4-4.14,11.26-12.09,11.26H326.77ZM338.14,428c2.43,0,3.48-1.27,3.48-4.14V407.41c0-2.87-1.05-4.14-3.48-4.14h-2.76V428Z"/><path class="cls-15" d="M354.42,422.7V408.57c0-7.89,4.42-12.69,11.93-12.69s11.92,4.8,11.92,12.69V422.7c0,7.89-4.42,12.69-11.92,12.69S354.42,430.59,354.42,422.7Zm15.24.49V408.07c0-3.31-1.16-4.91-3.31-4.91s-3.32,1.6-3.32,4.91v15.12c0,3.32,1.16,4.92,3.32,4.92S369.66,426.51,369.66,423.19Z"/><path class="cls-15" d="M209.27,450.45h8.61v38.63h-8.61Z"/><path class="cls-15" d="M246.85,450.45v38.63H236.64l-7.06-27.6v27.6h-7.29V450.45h11.15L239.57,475V450.45Z"/><path class="cls-15" d="M259.88,457.4v8.39h7.72v6.9h-7.72v16.39h-8.61V450.45h18.54v6.95Z"/><path class="cls-15" d="M292.11,482.12v7H272.9V450.45h18.55v6.95h-9.94v7.84h7.73v6.84h-7.73v10Zm-8.78-35.26h-3.09l1.6-8.55H288Z"/><path class="cls-15" d="M305.91,473.35h-2v15.73h-8.61V450.45h11.43c7.67,0,11.75,3.69,11.75,10.7v1.38c0,4.36-1.6,7.56-4.74,9.22L319,489.08h-9.16Zm-2-6.84h2.32c2.65,0,3.75-1.22,3.75-4v-1.38c0-2.65-1.1-3.86-3.75-3.86h-2.32Z"/><path class="cls-15" d="M344.05,457.62h-7v31.46h-8.61V457.62h-7v-7.17h22.52Z"/><path class="cls-15" d="M347.58,450.45h8.61v38.63h-8.61Z"/><path class="cls-15" d="M379.7,481.9v7.18H360.61V450.45h8.61V481.9Z"/><path class="cls-15" d="M579,338.81v1.27c0,4.95-3.11,7.75-8.37,7.75h-2.07V358h-6V331.09h8.06C575.87,331.09,579,333.86,579,338.81Zm-6,.11c0-2.22-.88-3.07-2.92-3.07h-1.53v7.22h1.53c2,0,2.92-.85,2.92-3.07Z"/><path class="cls-15" d="M588.65,347h-1.38V358h-6V331.09h8c5.34,0,8.18,2.57,8.18,7.45v1c0,3-1.12,5.26-3.3,6.41l3.64,12h-6.37Zm-1.38-4.76h1.61c1.85,0,2.61-.84,2.61-2.76v-1c0-1.84-.76-2.69-2.61-2.69h-1.61Z"/><path class="cls-15" d="M600.06,349.44v-9.83c0-5.49,3.07-8.82,8.29-8.82s8.29,3.33,8.29,8.82v9.83c0,5.49-3.07,8.83-8.29,8.83S600.06,354.93,600.06,349.44Zm10.59.35V339.27c0-2.3-.8-3.42-2.3-3.42s-2.3,1.12-2.3,3.42v10.52c0,2.3.8,3.41,2.3,3.41S610.65,352.09,610.65,349.79Z"/><path class="cls-15" d="M636.18,348.83v1.61c0,5.07-2.69,7.52-8.14,7.52h-8.4V331.09h8.21c5.38,0,8,2.19,8,6.6v.89a5,5,0,0,1-3.38,4.91A5.22,5.22,0,0,1,636.18,348.83Zm-8.83-13h-1.72v5.53h1.84c1.57,0,2.38-.65,2.38-2.19v-1.07C629.85,336.51,629,335.85,627.35,335.85Zm2.84,13c0-1.85-.92-2.69-2.72-2.69h-1.84v7.06h1.84c1.8,0,2.72-.84,2.72-2.76Z"/><path class="cls-15" d="M649.54,352.32h-5.49L642.94,358h-5.8l6.3-26.87h7.22l6.1,26.87h-6.14Zm-.92-4.84-1.76-9.4-1.85,9.4Z"/><path class="cls-15" d="M675.07,348.83v1.61c0,5.07-2.68,7.52-8.13,7.52h-8.41V331.09h8.21c5.38,0,8,2.19,8,6.6v.89a5,5,0,0,1-3.38,4.91A5.21,5.21,0,0,1,675.07,348.83Zm-8.83-13h-1.72v5.53h1.84c1.57,0,2.38-.65,2.38-2.19v-1.07C668.74,336.51,667.89,335.85,666.24,335.85Zm2.84,13c0-1.85-.92-2.69-2.72-2.69h-1.84v7.06h1.84c1.8,0,2.72-.84,2.72-2.76Z"/><path class="cls-15" d="M690.62,353v5H677.34V331.09h6V353Z"/><path class="cls-15" d="M706.29,353.13V358H692.93V331.09h12.89v4.84h-6.91v5.45h5.38v4.76h-5.38v7Z"/><path class="cls-15" d="M725.48,358l-.42-20.61L721.45,358h-3.76l-3.61-20.61L713.66,358h-5.61l.85-26.87h8.37l2.3,14,2.3-14h8.37l.84,26.87Z"/><path class="cls-15" d="M747.06,353.13V358H733.7V331.09h12.9v4.84h-6.91v5.45h5.37v4.76h-5.37v7Z"/><path class="cls-15" d="M766.37,331.09V358h-7.1l-4.92-19.19V358h-5.06V331.09H757l4.26,17.08V331.09Z"/><path class="cls-15" d="M784.49,336.08h-4.84V358h-6V336.08h-4.83v-5h15.66Z"/><path class="cls-15" d="M800.31,353.13V358H787V331.09h12.9v4.84h-6.91v5.45h5.37v4.76h-5.37v7Z"/><path class="cls-15" d="M562.55,368.74h6v26.87h-6Z"/><path class="cls-15" d="M588.69,368.74v26.87h-7.1l-4.91-19.19v19.19h-5.07V368.74h7.75l4.26,17.09V368.74Z"/><path class="cls-15" d="M597.75,373.58v5.84h5.38v4.79h-5.38v11.4h-6V368.74h12.9v4.84Z"/><path class="cls-15" d="M620.17,390.78v4.83H606.81V368.74h12.9v4.84H612.8V379h5.38v4.76H612.8v7Zm-6.1-24.53h-2.15L613,360.3h4.3Z"/><path class="cls-15" d="M629.77,384.67h-1.38v10.94h-6V368.74h8c5.33,0,8.17,2.58,8.17,7.45v1c0,3-1.11,5.26-3.3,6.41l3.65,12.05H632.5Zm-1.38-4.76H630c1.84,0,2.61-.84,2.61-2.76v-1c0-1.84-.77-2.69-2.61-2.69h-1.61Z"/><path class="cls-15" d="M656.3,373.73h-4.84v21.88h-6V373.73h-4.83v-5H656.3Z"/><path class="cls-15" d="M658.76,368.74h6v26.87h-6Z"/><path class="cls-15" d="M681.1,390.63v5H667.82V368.74h6v21.89Z"/><path class="cls-15" d="M504.23,676v1.82c0,7.12-4.48,11.15-12,11.15h-3v14.57H480.6V664.94h11.59C499.75,664.94,504.23,668.91,504.23,676Zm-8.61.17c0-3.2-1.27-4.42-4.2-4.42h-2.21v10.38h2.21c2.93,0,4.2-1.21,4.2-4.42Z"/><path class="cls-15" d="M526.74,696.62v7h-19.2V664.94h18.54v6.95h-9.93v7.84h7.72v6.85h-7.72v10Z"/><path class="cls-15" d="M540.54,687.84h-2v15.73H530V664.94h11.42c7.67,0,11.76,3.7,11.76,10.71V677c0,4.36-1.6,7.56-4.75,9.21l5.24,17.33h-9.16Zm-2-6.84h2.31c2.65,0,3.76-1.21,3.76-4v-1.38c0-2.65-1.11-3.87-3.76-3.87h-2.31Z"/><path class="cls-15" d="M557.05,664.94h8.61v38.63h-8.61Z"/><path class="cls-15" d="M570,691.32V677.19c0-7.89,4.42-12.69,11.92-12.69s11.92,4.8,11.92,12.69v14.13c0,7.89-4.41,12.7-11.92,12.7S570,699.21,570,691.32Zm15.23.5V676.7c0-3.31-1.15-4.92-3.31-4.92s-3.31,1.61-3.31,4.92v15.12c0,3.31,1.16,4.91,3.31,4.91S585.19,695.13,585.19,691.82Z"/><path class="cls-15" d="M598.11,664.94h11.37c7.95,0,12.09,3.86,12.09,11.26v16.12c0,7.39-4.14,11.25-12.09,11.25H598.11Zm11.37,31.68c2.43,0,3.48-1.27,3.48-4.14V676c0-2.87-1.05-4.14-3.48-4.14h-2.76v24.73Z"/><path class="cls-15" d="M625.76,691.32V677.19c0-7.89,4.42-12.69,11.92-12.69s11.92,4.8,11.92,12.69v14.13c0,7.89-4.41,12.7-11.92,12.7S625.76,699.21,625.76,691.32Zm15.23.5V676.7c0-3.31-1.15-4.92-3.31-4.92s-3.31,1.61-3.31,4.92v15.12c0,3.31,1.16,4.91,3.31,4.91S641,695.13,641,691.82Z"/><path class="cls-15" d="M489.21,726v8.39h7.73v6.9h-7.73V757.7H480.6V719.07h18.55V726Z"/><path class="cls-15" d="M521.45,750.75v7H502.24V719.07h18.54V726h-9.93v7.84h7.73v6.84h-7.73v10Zm-8.78-35.27h-3.09l1.6-8.55h6.18Z"/><path class="cls-15" d="M535.24,742h-2V757.7h-8.61V719.07h11.42c7.67,0,11.76,3.7,11.76,10.71v1.38c0,4.36-1.6,7.56-4.75,9.21l5.24,17.33h-9.16Zm-2-6.84h2.32c2.65,0,3.75-1.21,3.75-4v-1.38c0-2.65-1.1-3.87-3.75-3.87h-2.32Z"/><path class="cls-15" d="M573.38,726.25h-7V757.7h-8.61V726.25h-7v-7.18h22.51Z"/><path class="cls-15" d="M576.92,719.07h8.61V757.7h-8.61Z"/><path class="cls-15" d="M609,750.53v7.17h-19.1V719.07h8.61v31.46Z"/><path class="cls-14" d="M659.82,41.69l7.9-23.25L655.31,40.06l-4.22-1.53L655.43,14l-8.85,22.91-6.28-2.27L652.16,4.87l9.38,3.4-3.12,16.62,8.27-14.75,9.38,3.4L666.1,44Z"/><path class="cls-14" d="M685.61,45.73l-2.16,5.34-14.76-6,12-29.67L695,21.19l-2.16,5.34-7.63-3.09-2.44,6,5.93,2.4-2.13,5.26-5.93-2.41-3.13,7.72Z"/><path class="cls-14" d="M717.25,31l-13,29.25-7.73-3.45,4-23.27-9.3,20.89L685.63,52l13-29.25,8.44,3.76-3.65,20.66,8.28-18.6Z"/><path class="cls-14" d="M717.21,40.34l.27-.53c2.42-4.93,7.36-5.56,11.88-3.34s7,6.54,4.76,11.06l-.93,1.89L727,46.62l.89-1.81c.81-1.64.47-2.83-.84-3.47a2.18,2.18,0,0,0-3.12,1.16l-.28.58a3.14,3.14,0,0,0,.39,3.35l3,4.36c2.42,3.58,2.61,6.83.91,10.28l-.44.91c-2.61,5.29-7.55,6.33-12.6,3.85-5.25-2.59-7.13-7-4.64-12l1.17-2.38,6.3,2.74-1.2,2.42c-.94,1.93-.57,3.34.91,4.06s2.66.19,3.45-1.41l.38-.78a3.46,3.46,0,0,0-.35-4l-2.77-4.11C715.81,47,715.48,43.87,717.21,40.34Z"/><path class="cls-14" d="M754.21,56.55l-5.07-2.73-12.35,23-6.28-3.38,12.35-23-5.08-2.73,2.82-5.23L757,51.32Z"/><path class="cls-14" d="M758.34,74l-1.42-.83-6.61,11.22-6.15-3.62,16.26-27.58L768.57,58c5.48,3.23,6.84,7.59,3.89,12.59l-.58,1c-1.84,3.11-4.33,4.72-7.27,4.58l-3.55,14.57-6.54-3.85Zm1.46-5.72,1.66,1c1.89,1.11,3.19.71,4.35-1.26l.58-1c1.11-1.89.84-3.22-1-4.33l-1.66-1Z"/><path class="cls-14" d="M785.28,94.33c-3.89,6-8.73,6.88-14,3.44s-6.43-8.23-2.54-14.21l11.91-18.32,6,3.89L774.2,88.22c-1.3,2-1.1,3.54.35,4.49s3,.49,4.25-1.5l12.41-19.09,6,3.89Z"/><path class="cls-14" d="M797.12,107l-5.3-3.82-5,4.68-5.6-4L806,82.19l7,5-12.8,30.23-5.94-4.27Zm2.48-5.31,4.84-10.33-8.33,7.81Z"/><path class="cls-14" d="M823.23,122.85c-4.08,5.11-9.42,5.94-14.29,2.06s-5.24-9.27-1.16-14.38l7.3-9.16c4.08-5.11,9.42-5.94,14.29-2.06s5.24,9.27,1.16,14.38l-.88,1.11-5.87-4.09,1.43-1.79c1.71-2.14,1.79-3.78.39-4.89s-3-.67-4.68,1.47l-7.82,9.8c-1.71,2.14-1.78,3.78-.39,4.89s3,.67,4.68-1.47l1.8-2.25,5.32,4.77Z"/><path class="cls-14" d="M840.08,108.57l5.41,4.66L824.61,137.5l-5.41-4.65Z"/><path class="cls-14" d="M834.05,132.16l8-8.58c4.45-4.79,9.84-5.22,14.4-1s4.53,9.64.07,14.43l-8,8.58c-4.45,4.79-9.84,5.21-14.39,1S829.6,137,834.05,132.16Zm9,8.89,8.53-9.18c1.87-2,2.07-3.63.76-4.85s-2.91-.9-4.78,1.11L839,137.32c-1.87,2-2.07,3.63-.76,4.85S841.15,143.06,843,141.05ZM863,115.43l3.76,3.49L859,121.47l-1.87-1.75Z"/><path class="cls-14" d="M881,147.68,858,169.89l-5.87-6.09,12.4-20.09L848,159.58l-4.18-4.35,23-22.21,6.41,6.65-11.13,17.78,14.66-14.12Z"/><path class="cls-14" d="M802.57,922.4l2.93,5-13.71,8.09-16.27-27.58,13.24-7.81,2.92,5-7.09,4.18,3.3,5.59,5.52-3.25,2.88,4.88-5.52,3.26,4.23,7.17Z"/><path class="cls-14" d="M820,917.85l-9.09-6.09,2.51,10.49-6,4-3.49-17.71-14-9.16,6.05-4,8.09,5.42-2.24-9.34,5.85-3.92,3.23,16.33,15.27,9.82Z"/><path class="cls-14" d="M827.21,880.17l-4.59,3.49,15.77,20.76-5.69,4.32L816.94,888l-4.59,3.49-3.6-4.74,14.86-11.28Z"/><path class="cls-14" d="M844.33,882.79l-1.25,1.07,8.46,9.92-5.42,4.63-20.79-24.35,7.2-6.15c4.84-4.13,9.4-4,13.17.43l.75.87c2.34,2.74,3,5.62,2,8.36l12.63,8.1-5.77,4.93Zm-4.93-3.24,1.46-1.25c1.67-1.42,1.71-2.78.23-4.52l-.74-.87c-1.43-1.67-2.78-1.84-4.45-.42l-1.46,1.25Z"/><path class="cls-14" d="M868.89,869l-4.72,4.53,3.71,5.77-5,4.79-16.79-28.28,6.2-6,27.44,18-5.28,5.07Zm-4.79-3.39-9.29-6.62,6.19,9.6Z"/><path class="cls-14" d="M894.59,842.81l4.43,4-10.56,11.79L864.61,837.2l4.76-5.31,19.42,17.39Z"/><path class="cls-14" d="M906,822.24c5.54,4.49,5.92,9.4,1.94,14.3s-8.85,5.54-14.39,1l-17-13.78,4.5-5.54,17.69,14.36c1.84,1.5,3.4,1.46,4.5.12s.8-2.89-1-4.38L884.54,814l4.49-5.54Z"/><path class="cls-14" d="M919.56,802.6l1.55,1.13c4.88,3.56,5.35,7.88,1.52,13.12l-5.91,8.09-25.85-18.89,5.78-7.9c3.78-5.17,7.72-6.14,12-3l.85.62a5.92,5.92,0,0,1,2.35,6.7A6.21,6.21,0,0,1,919.56,802.6ZM900.88,802l-1.22,1.67,5.32,3.88,1.3-1.77c1.1-1.51,1-2.75-.44-3.83l-1-.75C903.26,800,902,800.39,900.88,802Zm14.48,6.39c-1.78-1.29-3.24-1-4.5.73l-1.3,1.78,6.79,5,1.3-1.77c1.27-1.74,1.1-3.22-.74-4.57Z"/><path class="cls-14" d="M924.38,791.5l-.91,1.37,10.88,7.18-3.93,6L903.7,788.36l5.22-7.9c3.5-5.31,7.93-6.44,12.77-3.24l1,.63c3,2,4.49,4.56,4.2,7.5l14.38,4.29L937.05,796Zm-5.64-1.76,1.06-1.6c1.21-1.83.87-3.15-1-4.41l-1-.63c-1.83-1.21-3.17-1-4.39.83l-1,1.6Z"/><path class="cls-14" d="M915.73,769.88l3.73-6.08,27.29,16.75L943,786.63Z"/><path class="cls-14" d="M949.93,754.81c5.68,3.25,7.33,8.39,4.24,13.8s-8.35,6.61-14,3.37L930,766.18c-5.68-3.24-7.33-8.39-4.24-13.79s8.35-6.62,14-3.38l1.23.71-3.14,6.42-2-1.13c-2.39-1.36-4-1.18-4.9.37s-.21,3,2.18,4.4L944,766c2.39,1.36,4,1.19,4.9-.36s.21-3-2.18-4.4l-2.5-1.43,3.89-6Z"/><path class="cls-14" d="M960.84,741.28l-3,5.81,5.37,4.26-3.16,6.14-25-21.32,3.94-7.64,31.79,8.17-3.35,6.51Zm-5.63-1.66-10.92-3.26,9,7.08Z"/><path class="cls-14" d="M971.05,712c5.93,2.75,8,7.74,5.39,13.39s-7.77,7.28-13.7,4.53L952.11,725c-5.93-2.75-8-7.75-5.38-13.39s7.76-7.29,13.7-4.54l1.28.6-2.58,6.66-2.08-1c-2.49-1.15-4.1-.84-4.85.78s0,3,2.54,4.2l11.37,5.27c2.49,1.16,4.1.84,4.85-.78s-.05-3-2.54-4.2l-2.61-1.21,3.37-6.3Z"/><path class="cls-14" d="M952.36,699.94l2.82-6.55L984.6,706l-2.82,6.55Z"/><path class="cls-14" d="M950.77,677.64l1.89-4.76,5.15,6.23-.95,2.38Zm26,20.89-10.88-4.33c-6.07-2.41-8.42-7.28-6.12-13.06s7.34-7.71,13.42-5.29l10.88,4.32c6.08,2.42,8.42,7.28,6.12,13.06S982.89,700.94,976.81,698.53ZM981.86,687l-11.65-4.63c-2.55-1-4.13-.61-4.79,1s.22,3,2.77,4l11.64,4.63c2.55,1,4.14.61,4.8-1S984.41,688,981.86,687Z"/><path class="cls-14" d="M971.72,650l30.17,10.72-2.84,8-23.51-2.13,21.55,7.65-2,5.69L964.9,669.14l3.1-8.7,20.88,2-19.18-6.82Z"/><path class="cls-14" d="M525.4,1012.86l.12,5.95-15.82.32-.66-32,7.14-.14.53,26.06Z"/><path class="cls-14" d="M548.23,1007.17c.5,7.12-2.82,10.74-9.12,11.18s-10.09-2.69-10.59-9.81L527,986.74l7.12-.5L535.7,1009c.17,2.37,1.25,3.49,3,3.37s2.65-1.38,2.49-3.75l-1.58-22.72,7.11-.5Z"/><path class="cls-14" d="M571.85,1003.66l.23,1.9c.73,6-2.09,9.29-8.54,10.07l-9.94,1.2-3.86-31.77,9.72-1.18c6.35-.77,9.75,1.44,10.39,6.66l.12,1.05a5.92,5.92,0,0,1-3.29,6.29A6.2,6.2,0,0,1,571.85,1003.66Zm-12.3-14.08-2,.25.79,6.54,2.18-.27c1.86-.23,2.72-1.11,2.5-2.93l-.15-1.27C562.59,990,561.5,989.34,559.55,989.58Zm5.22,14.94c-.26-2.18-1.47-3-3.61-2.79L559,1002l1,8.36,2.17-.27c2.14-.26,3.11-1.39,2.83-3.66Z"/><path class="cls-14" d="M583.24,999.59l-1.63.28,2.18,12.85-7,1.19-5.36-31.56,9.33-1.59c6.27-1.06,10.12,1.39,11.09,7.12L592,989c.61,3.56-.25,6.4-2.59,8.19l6.68,13.43-7.48,1.27Zm-2.58-5.32,1.9-.32c2.16-.36,2.89-1.51,2.51-3.76l-.19-1.13c-.37-2.17-1.44-3-3.6-2.64l-1.9.32Z"/><path class="cls-14" d="M593.11,978.51l7-1.43,6.42,31.36-7,1.43Z"/><path class="cls-14" d="M627.5,993.16c1.53,6.36-1.11,11.08-7.16,12.52s-10.53-1.57-12.06-7.93l-2.72-11.39c-1.52-6.36,1.12-11.09,7.17-12.53s10.53,1.57,12,7.93l.33,1.38-6.83,2.11-.53-2.23c-.64-2.67-1.88-3.73-3.62-3.32s-2.36,1.93-1.72,4.6l2.91,12.19c.64,2.67,1.88,3.74,3.62,3.32s2.36-1.93,1.72-4.6l-.67-2.8,7-1.26Z"/><path class="cls-14" d="M644.86,991.85l-6.29,1.8.57,6.83-6.64,1.89-1.58-32.84,8.27-2.36L655,996l-7,2Zm-2.64-5.24-5.1-10.2,1,11.38Z"/><path class="cls-14" d="M673.23,979.23c2,6.21-.17,11.14-6.08,13.09s-10.63-.67-12.68-6.88l-3.68-11.11c-2-6.21.17-11.14,6.07-13.09s10.63.67,12.69,6.88l.44,1.34-6.63,2.68-.71-2.17c-.87-2.61-2.2-3.56-3.89-3s-2.19,2.12-1.33,4.72l3.94,11.9c.86,2.6,2.19,3.56,3.88,3s2.19-2.12,1.33-4.72l-.9-2.74,6.9-1.85Z"/><path class="cls-14" d="M669.2,957.4l6.7-2.43,10.92,30.09-6.71,2.44Z"/><path class="cls-14" d="M687,974.24l-4.3-10.89c-2.4-6.08-.45-11.13,5.33-13.41s10.65.08,13,6.16l4.3,10.89c2.4,6.09.45,11.13-5.33,13.41S689.37,980.33,687,974.24ZM684.36,941l4.76-1.88-1,8-2.38.94Zm14.5,29-4.6-11.65c-1-2.56-2.38-3.44-4-2.78s-2.07,2.24-1.06,4.79l4.6,11.66c1,2.55,2.38,3.43,4,2.78S699.87,972.55,698.86,970Z"/><path class="cls-14" d="M718.85,937.3l12.84,29.33L723.94,970l-14.54-18.6,9.18,21L713,974.79,700.2,945.46l8.47-3.71,12.81,16.61-8.16-18.64Z"/><path class="cls-14" d="M274,931.18l-.78,1.29c-3.06,5-8,6-13.32,2.72l-2.11-1.28-6.26,10.32-6.1-3.71L262,913.16l8.21,5C275.59,921.4,277,926.13,274,931.18Zm-6.17-3.59c1.38-2.27,1-3.67-1.07-4.93l-1.56-.95-4.47,7.35,1.57,1c2.07,1.26,3.49.94,4.87-1.32Z"/><path class="cls-14" d="M282.09,955l-2.75,5.06-14-7.6,15.3-28.12,13.49,7.34-2.75,5.06-7.23-3.93-3.1,5.7,5.62,3.06-2.71,5-5.62-3.06-4,7.32Z"/><path class="cls-14" d="M302.91,948.38l.6-1.23c1.19-2.47.91-4.08-.7-4.86s-3.05,0-4.24,2.46L293.1,956c-1.2,2.47-.91,4.08.7,4.86s3,0,4.24-2.47l.86-1.77-3-1.45,2.48-5.11,9.38,4.55-3.11,6.53c-2.85,5.88-7.88,7.86-13.48,5.15s-7.15-7.89-4.3-13.77L292,942c2.85-5.88,7.88-7.87,13.48-5.15s7.15,7.88,4.3,13.77l-.22.45Z"/><path class="cls-14" d="M319.16,971.17l-6-2.56-3.85,5.68-6.36-2.7,19.43-26.54,7.91,3.36-5.82,32.31-6.74-2.86Zm1.24-5.73,2.45-11.14-6.4,9.46Z"/><path class="cls-14" d="M326.36,981.48l2.14-5.64a9.52,9.52,0,0,0,1.89.95c2.39.91,3.73,0,4.51-2.1L343,953.43l6.67,2.53-8.05,21.26c-2.05,5.43-6.49,7.85-12.39,5.62A19.48,19.48,0,0,1,326.36,981.48Z"/><path class="cls-14" d="M345.54,977.78l3.73-11.1c2.09-6.19,6.83-8.8,12.72-6.81s8.09,6.92,6,13.12l-3.74,11.1c-2.08,6.19-6.82,8.8-12.72,6.81S343.45,984,345.54,977.78Zm11.83,4.42,4-11.88c.87-2.6.39-4.16-1.3-4.73s-3,.38-3.9,3l-4,11.88c-.88,2.6-.39,4.16,1.3,4.73S356.49,984.8,357.37,982.2Z"/><path class="cls-14" d="M371.36,972.25l.16-.57c1.54-5.27,6.3-6.73,11.13-5.33s8,5.24,6.6,10.08l-.59,2-6.61-1.69.56-1.94c.52-1.75,0-2.86-1.42-3.27a2.2,2.2,0,0,0-2.88,1.68l-.18.62a3.18,3.18,0,0,0,1,3.23l3.67,3.79c3,3.11,3.74,6.28,2.66,10l-.28,1c-1.66,5.67-6.35,7.53-11.75,6-5.62-1.64-8.22-5.64-6.64-11l.74-2.55,6.68,1.62-.76,2.59c-.6,2.06,0,3.39,1.6,3.85s2.65-.28,3.15-2l.24-.83a3.44,3.44,0,0,0-1-3.83L373.94,982C371.12,979.09,370.25,976,371.36,972.25Z"/><path class="cls-14" d="M388.75,991.23l2.85-11.36c1.58-6.34,6.1-9.31,12.13-7.8s8.62,6.26,7,12.6L407.92,996c-1.59,6.35-6.1,9.32-12.14,7.81S387.16,997.58,388.75,991.23Zm12.15,3.47,3-12.16c.67-2.66.06-4.18-1.67-4.62s-3,.63-3.65,3.29l-3.05,12.15c-.66,2.67-.05,4.19,1.68,4.62S400.23,997.36,400.9,994.7Z"/><circle class="cls-16" cx="512.18" cy="499.22" r="90.7" transform="matrix(0.92, -0.38, 0.38, 0.92, -151.5, 232.61)"/><path class="cls-17" d="M541.57,482c-.28-2.69,18.51-25.42,13.52-24.23-3.63.86-17.82,9.12-21.36,8.68-3.05-.39-5-3.44-7.89-4.6a34.65,34.65,0,0,0-11.35-2.19,29,29,0,0,0-17.09,5.65c-1.95,1.39-2.87,2.53-5.41,2.69-2.2.14-22.77-11.65-24.95-11.47-.08,1.39,18.19,14.31,18.42,15.69a22.77,22.77,0,0,0,.91,2.59c1.53,5.41.47,10.9,1.36,16.4a52.27,52.27,0,0,0,5.78,16.28c3.95,7.3,14.62,17.45,12.33,26.58-.7,1.77-3.38,2.84-3.17,4.6,0,10.59,1.06,21.53,1.31,32.21a258.18,258.18,0,0,1,1.16-27.27c.38-5,16.8-5.15,17.19-.13.71,9.17-.06,21.66-.31,30.93.25-10.68,4-32.55,2.86-34.53a33.89,33.89,0,0,1-2.52-4.73c-.62-1.27-.09-2.92.22-4.2,1.11-4.53,10.35-19.14,10.74-19.77.73-1.22,1.46-2.44,2.14-3.69C539.6,499.86,542.47,490.79,541.57,482Z"/><path class="cls-18" d="M540.16,492.94c.89-.12,1.68,1.52,2.57,1.74a6.38,6.38,0,0,0,3.4-.35c2-.64,3.73-2,5.72-2.63.75-.25,3-1.6,3.68-1.36a1,1,0,0,1,.24,1.83c-.82.65-2,1-2.88,1.62a25.34,25.34,0,0,1-3.69,1.83,60.94,60.94,0,0,0-12.59,9c-.67.67,1.15-3.63,1.58-5,.52-1.63.86-3.19,1.44-4.79C539.85,494.29,539.41,493,540.16,492.94Z"/><path class="cls-18" d="M485.63,492c-2,6.17-9.67.44-11.76-.25-.76-.25-3-1.6-3.69-1.36a1,1,0,0,0-.23,1.83c.81.65,2,1,2.88,1.62a24.85,24.85,0,0,0,3.69,1.83c2.28,1.09,10.79,5.71,14.47,9.39C493.18,507.2,485.67,491.83,485.63,492Z"/><path class="cls-19" d="M578.37,456.11c-4.3-3.5-13.31-2.46-18-.94-7,2.25-18.79,13.45-30.36,14.61-3.93-3.47-9.38-6.41-18.49-6.57-8.74.39-14.13,3.24-18.09,6.41-11.15-1.83-22.31-12.29-29.05-14.45-4.71-1.52-13.71-2.56-18,.94-4.73,3.84-2,13.48-.62,16.93s8.74,18.84,9.58,18.25c.62-.45.38-1.72.47-2.48s.5-1,.58-1.67.34-.71.52-1.19a19.16,19.16,0,0,0,.78-2.6c.1-.49-.06-1,.11-1.44s.91-.93,1.09-1.37-.08-1.15.18-1.65.85-.8,1.21-1.14c2.18-2.16-3.4-4-4.87-5.37-2.09-1.91-7-7.77-4-11.06s9.47-.64,12.49,1.15c6.43,3.8,10.75,6.64,15,12.75,1.44,2.09,3.88,5.75,5.77,9-.07.43-.13.86-.17,1.31-.91,8.77,2,17.84,6.11,25.49,3.95,7.3,14.61,17.45,12.32,26.59-.7,1.76-3.38,2.83-3.17,4.59,0,10.59,1,21.58,1.31,32.21.09-9.31.45-18.09,1.16-27.27.38-4.92,18.31-5,18.7,0A260.77,260.77,0,0,1,522,574.43c.25-10.68,1.31-21.62,1.31-32.21,0-2.11-2.47-2.83-3.18-4.59a9,9,0,0,1-.25-3.9,16.76,16.76,0,0,1,1-4.13,19.62,19.62,0,0,1,1.92-4c.64-1,10.14-15.47,10.39-16,3.95-7.71,7.67-18.38,4.7-26.71-.85-2.37-.65-2.42,1.39-3.86,1.23-.86,17.44-16.23,21.37-17.66,3.29-1.21,9.78-3.24,12.65-.07s-1.92,9.15-4,11.06c-1.47,1.34-7.05,3.21-4.86,5.37.35.34,1,.69,1.2,1.14s0,1.16.18,1.65.89.85,1.09,1.37,0,.95.11,1.44a20.7,20.7,0,0,0,.78,2.6c.18.48.44.59.52,1.19s-.18,1.29-.11,1.95a3.42,3.42,0,0,0,1.17,2.2c.83.59,8.13-14.71,9.58-18.25S583.1,460,578.37,456.11Z"/><path class="cls-20" d="M455.52,491.77c.33.62.72,1.26,1.11,1.16s.21-.64.19-.86a13.65,13.65,0,0,0-.59-2.17c-.24-.79.33-.49.76-.22s1.09.72,1.38.24c.47-.8-1.51-1.81-1.24-2.26s2.12.85,2.57,0-1.67-1.72-1.5-2.09,2.1.74,2.56-.18-1.79-1.6-1.64-2,2.17.47,2.54-.36c.49-1.1-1.89-1.47-1.77-1.85s2,.17,2.51-.55c.33-.52-.25-.86-.65-1-.2-.09-1.56-.55-.88-.88.2-.1.56,0,.77.06s.63.06.81-.09.11-.4-.13-.48-.88,0-1.08-.28.15-.58.38-.64c.83-.24,1.46.35,2.25-.22.55-.39.27-.52-.31-.48-1.31.1-2.79-1.25-3.5-1-2.63.77-8,6.36-6.3,13.92C453.91,490.17,455.29,491.34,455.52,491.77Z"/><path class="cls-21" d="M569.2,491.77c-.33.62-.72,1.26-1.1,1.16s-.22-.64-.2-.86a12.67,12.67,0,0,1,.59-2.17c.24-.79-.33-.49-.76-.22s-1.09.72-1.37.24c-.48-.8,1.5-1.81,1.23-2.26s-2.12.85-2.57,0,1.68-1.72,1.5-2.09-2.09.74-2.56-.18,1.79-1.6,1.64-2-2.17.47-2.54-.36c-.49-1.1,1.89-1.47,1.78-1.85s-2,.17-2.51-.55c-.34-.52.24-.86.64-1,.2-.09,1.56-.55.88-.88-.2-.1-.56,0-.77.06s-.63.06-.81-.09-.11-.4.13-.48.89,0,1.08-.28-.15-.58-.38-.64c-.83-.24-1.46.35-2.25-.22-.55-.39-.27-.52.31-.48,1.31.1,2.79-1.25,3.5-1,1.39.41,7.59-1.87,9.07.79,1.32,2.39-2,9.55-2.77,13.13C570.82,490.17,569.43,491.34,569.2,491.77Z"/><path class="cls-22" d="M574.35,455.31a20.78,20.78,0,0,0-12,.54,48.25,48.25,0,0,0-9.48,4.75c-5.35,3.4-26.83,16.8-29.05,17.65a33.08,33.08,0,0,1-12.43,2.28,30.73,30.73,0,0,1-12.11-2.28c-.15-.06-22.8-14.26-28.13-17.65a48,48,0,0,0-9.48-4.75,20.77,20.77,0,0,0-12-.54c-6,1.71-4.8,9.5-3.41,14.14s4,10,7.24,17.51c4.21-1.13,6.08-2.92,6.73-4.55a5.73,5.73,0,0,0-.21-5.49c-4.53-2.17-10.23-6.51-11.79-10.88-1.16-3.25-1.41-5.4,1.74-7,3.55-1.76,9.35-1.32,12.82-.05,3.06,1.12,13,9.59,22.27,16.47,4,2.95,13.73,9.54,14.92,10.85,6.18,6.77,8.49,15.58,9.23,24.52.42,5,0,14.58.08,24.2,0,2.07-7.46,4.51-7.41,11,.08,9.28-1,19.05-.8,28.37,0,0,1.68.66,10.52.61,9.56-.06,10.5-.61,10.5-.61.2-9.32-.17-19.11-.81-28.37-.5-7.25-7.4-8.22-7.4-11,0-8.52-.34-19.23.07-24.2a59.6,59.6,0,0,1,1.49-9.39,43.91,43.91,0,0,1,1.38-4.49,49.31,49.31,0,0,1,3.83-6.14c1.09-1.19,4.3-6,5-6.26a10.87,10.87,0,0,0,1.67-1.16c1.31-.88,2.63-1.74,3.94-2.61,2.62-1.73,5.25-3.45,7.77-5.32,9.33-6.88,19.21-15.35,22.27-16.47,3.48-1.27,9.27-1.71,12.82.05,3.15,1.56,2.91,3.71,1.75,7-1.56,4.37-7.27,8.71-11.79,10.88,1.39.88,5,.88,5.36,2.39a31.25,31.25,0,0,0,2.39,5.62c3.26-7.55,4.59-10.74,6-15.48S580.35,457,574.35,455.31Z"/><path class="cls-23" d="M524.61,478.39a28,28,0,0,1-6.59,2.09c-6.81,1.43-14.45.73-19.55-2.22-.31-.18-13.63-8.73-20.51-13.05.75.56,7.55,6,8.29,6.49,3.18,2.35,13,8.79,13.78,9.6.51.52,1,1.06,1.5,1.57,3.77,4.14,6.65,10.22,8.42,17.06.64,2.45.7,35.26.48,35.53a15.18,15.18,0,0,1-2.1,1.94c-2,1.65-4.31,3.52-4.29,6.47,0,4.47-.19,9.11-.41,13.59-.21,4.18-.42,12.51-.42,16.68,1.3.12,14.7.09,16.08,0,.1-7.86-.18-20.63-.83-30.06-.23-3.31-2.2-4.83-4.1-6.3a11.32,11.32,0,0,1-2.45-2.29c-.29-.4-.2-32.57.57-35.33a53.7,53.7,0,0,1,4.34-11.63c1.84-3.26,5.09-5.65,8.08-8,1.23-.95,18-12.64,18.9-13.36C536.86,471.48,526.17,477.57,524.61,478.39Z"/><path class="cls-23" d="M573.14,480.86a8.63,8.63,0,0,0-5.06-4.93c3.39-3.16,6-5,9.2-10.74C576.3,469.77,574.75,474.81,573.14,480.86Z"/><path class="cls-23" d="M453.46,487.33c-.83-4.92-6.11-18.67-7-22.36a30.91,30.91,0,0,0,14,13.74C462.11,484.8,455.64,486.35,453.46,487.33Z"/><path class="cls-24" d="M522,574.43c.09-7.29-.14-14.58-.57-21.85l-.34-5.46A10.42,10.42,0,0,0,519.8,542a13.67,13.67,0,0,0-3.75-3.83,9.81,9.81,0,0,1-2-1.88,2.17,2.17,0,0,1-.4-1.41v-1.36c0-7.29-.34-14.58,0-21.89a56.93,56.93,0,0,1,1.72-10.84c.26-.89.55-1.75.84-2.62a16.61,16.61,0,0,1,1-2.57,43.44,43.44,0,0,1,2.81-4.74,53.67,53.67,0,0,1,3.3-4.4,14.71,14.71,0,0,1,2-2c.74-.55,1.49-1.06,2.25-1.58l9.13-6c6-4.16,11.61-8.8,17.41-13.21,1.46-1.1,2.92-2.2,4.43-3.23a19.36,19.36,0,0,1,2.38-1.41,14.72,14.72,0,0,1,2.66-.78,21.91,21.91,0,0,1,5.48-.45,13.09,13.09,0,0,1,5.35,1.27,4.63,4.63,0,0,1,2,1.88,4.24,4.24,0,0,1,.25,2.76,12.85,12.85,0,0,1-2.14,5,27,27,0,0,1-8.28,7.06,27,27,0,0,0,8.15-7.15,12.58,12.58,0,0,0,2-5,4,4,0,0,0-.27-2.59,4.25,4.25,0,0,0-1.94-1.73,12.63,12.63,0,0,0-5.22-1.2,21.72,21.72,0,0,0-5.39.46,14.94,14.94,0,0,0-2.57.77,17.77,17.77,0,0,0-2.31,1.4c-1.5,1-2.95,2.12-4.4,3.23-5.78,4.43-11.39,9.1-17.37,13.31l-9.1,6.06c-.75.51-1.49,1-2.22,1.57a14,14,0,0,0-1.85,1.91c-1.16,1.39-2.22,2.86-3.24,4.36-4.44,5.86-5.82,13.26-6.39,20.45-.35,7.25-.06,14.56-.08,21.85v1.36a1.74,1.74,0,0,0,.32,1.18,9.37,9.37,0,0,0,2,1.79,14.13,14.13,0,0,1,3.82,4,10.73,10.73,0,0,1,1.33,5.33l.31,5.46C522.09,559.85,522.21,567.14,522,574.43Z"/><path class="cls-24" d="M458.7,476.28a29,29,0,0,1-8.59-6.75,12.54,12.54,0,0,1-2.53-4.85,6.6,6.6,0,0,1-.31-2.76,3.53,3.53,0,0,1,1.49-2.34,10.68,10.68,0,0,1,5.23-1.74,20.77,20.77,0,0,1,5.51.19,12.26,12.26,0,0,1,5.19,1.84c1.55,1,3,2.09,4.49,3.18,5.83,4.42,11.5,9.05,17.43,13.3l9,6.31c1.49,1.09,3,2.1,4.41,3.34a29.73,29.73,0,0,1,3.39,4.39c4,6.29,5.53,13.72,6.06,21,.32,7.35-.1,14.64,0,22v1.37a1.72,1.72,0,0,1-.44,1.4,15.6,15.6,0,0,1-2.06,1.86,16,16,0,0,0-3.73,3.9,8,8,0,0,0-1,2.47A12,12,0,0,0,502,547q0,2.75-.12,5.49c-.3,7.31-1,14.59-.86,21.91-.2-7.31.35-14.62.55-21.93.05-1.82.09-3.65.08-5.47a12.33,12.33,0,0,1,.18-2.77,8.55,8.55,0,0,1,1.05-2.58,16.08,16.08,0,0,1,3.79-4,15.92,15.92,0,0,0,2-1.81,1.36,1.36,0,0,0,.34-1.14v-1.38c-.1-7.31.28-14.64-.07-21.91-.56-7.22-2.16-14.55-6.07-20.7a28.8,28.8,0,0,0-3.28-4.29c-1.33-1.17-2.86-2.23-4.32-3.3l-8.94-6.35c-5.93-4.3-11.58-9-17.38-13.4-2.93-2.14-5.76-4.66-9.48-5a21.4,21.4,0,0,0-5.42-.21,10.47,10.47,0,0,0-5.07,1.65,3.22,3.22,0,0,0-1.41,2.13,6.15,6.15,0,0,0,.27,2.65,12.19,12.19,0,0,0,2.43,4.83A29.06,29.06,0,0,0,458.7,476.28Z"/><path class="cls-24" d="M573.41,481.1a104.14,104.14,0,0,0,4.33-11.84,25.13,25.13,0,0,0,1-6.19,8.72,8.72,0,0,0-1.64-5.85c-1.33-1.62-3.55-2-5.58-2.28a20.62,20.62,0,0,0-6.22.32c-4.12.78-7.87,2.84-11.47,4.95q-10.67,6.75-21.43,13.36L527,476.81c-.91.53-1.81,1.07-2.78,1.55a27.05,27.05,0,0,1-3,1.07,33.93,33.93,0,0,1-12.59,1.31,30.45,30.45,0,0,1-6.28-1.07,26.81,26.81,0,0,1-3-1.05c-1-.53-1.82-1.11-2.74-1.66l-10.68-6.73-10.67-6.74-5.34-3.37a56.58,56.58,0,0,0-5.55-2.95A22.93,22.93,0,0,0,452.2,455c-2,.27-4.24.72-5.5,2.41a9.08,9.08,0,0,0-1.49,5.89c.16,4.19,1.65,8.21,3.22,12.09s3.32,7.74,5,11.6c-1.71-3.85-3.49-7.66-5.12-11.54s-3.17-7.88-3.39-12.14a9.27,9.27,0,0,1,1.52-6.11,5.87,5.87,0,0,1,2.62-1.87,15.71,15.71,0,0,1,3.11-.69,23.21,23.21,0,0,1,12.38,2.18,57.58,57.58,0,0,1,5.61,2.94l5.35,3.36,10.7,6.69,10.71,6.68c.89.53,1.81,1.17,2.66,1.6a25.7,25.7,0,0,0,2.95,1,29.71,29.71,0,0,0,6.15,1,33.81,33.81,0,0,0,12.38-1.23,27.37,27.37,0,0,0,2.93-1c.93-.46,1.84-1,2.75-1.51l5.42-3.22c7.2-4.35,14.35-8.79,21.49-13.26a55.29,55.29,0,0,1,5.59-3,25,25,0,0,1,6-2,20.76,20.76,0,0,1,6.34-.3,15.88,15.88,0,0,1,3.12.65,5.79,5.79,0,0,1,2.66,1.77,8.92,8.92,0,0,1,1.63,6.06,24.77,24.77,0,0,1-1.11,6.22A104.87,104.87,0,0,1,573.41,481.1Z"/><g class="cls-25"><path class="cls-26" d="M564.31,473.64a9.42,9.42,0,0,1,10.08,9.47c-.28,4.81-10,14.1-15.79,14.66s-10.32-1.49-10-6.3S558.53,474.2,564.31,473.64Z"/><path class="cls-27" d="M565.29,475.29a7.28,7.28,0,0,1,7.58,9.11c-1.24,4.55-9.83,11.66-15.2,11.84s-8.81-2.44-7.57-7S559.91,475.47,565.29,475.29Z"/><path class="cls-28" d="M566.28,476.93c5,.21,7.28,4.44,5.07,8.75s-9.64,9.23-14.62,9-7.28-3.39-5.08-7.67S561.28,476.73,566.28,476.93Z"/><path class="cls-29" d="M567.26,478.58c4.59.58,5.75,4.33,2.57,8.39s-9.45,6.79-14,6.21-5.76-4.34-2.61-8.35S562.66,478,567.26,478.58Z"/></g><path class="cls-30" d="M553.89,494.21a7.77,7.77,0,0,1-2.45-3l0,0c-1.08-2.9.19-5.8,4.53-9.54a16.05,16.05,0,0,1,2.75-2.15c5.42-3.43,11.54-4.48,13.69-1.57,2,2.66-.05,7.6-4.56,11.49a19.69,19.69,0,0,1-4.77,3.8c-3.91,2.31-7.08,2.37-9.21,1Z"/><path class="cls-26" d="M555.53,482.48a6.26,6.26,0,0,0,3.76,8.36c3.06.87,11-3.22,12.54-6.72s1.29-6.78-1.78-7.65S557.12,479,555.53,482.48Z"/><path class="cls-31" d="M557.93,482.14a4.22,4.22,0,0,0,2.58,5.63c2.08.57,7.38-2.19,8.43-4.56s.83-4.58-1.25-5.15S559,479.77,557.93,482.14Z"/><path class="cls-32" d="M560.34,481.8a2.18,2.18,0,0,0,1.39,2.9c1.1.28,3.8-1.16,4.33-2.4s.36-2.38-.74-2.66S560.86,480.56,560.34,481.8Z"/><path class="cls-13" d="M562.74,481.46a.17.17,0,0,0,.21.17.26.26,0,0,0,.22-.24.17.17,0,0,0-.21-.17A.26.26,0,0,0,562.74,481.46Z"/><g class="cls-25"><path class="cls-26" d="M479.83,488.69a10.06,10.06,0,0,1-8,12.43c-5.1.64-16.74-7.78-18.45-13.74s-.44-11.12,4.66-11.76S478.12,482.74,479.83,488.69Z"/><path class="cls-27" d="M478.29,489.16a8.28,8.28,0,0,1-7.85,10.21c-4.94.05-14.06-7-15.34-12.43s.69-9.72,5.61-9.77S477,483.75,478.29,489.16Z"/><path class="cls-28" d="M476.74,489.63c.87,4.85-2.91,8.53-7.7,8s-11.37-6.28-12.23-11.13,1.81-8.31,6.57-7.78S475.87,484.77,476.74,489.63Z"/><path class="cls-29" d="M475.2,490.1c.45,4.3-2.93,6.89-7.56,5.78s-8.68-5.54-9.13-9.83,2.94-6.91,7.53-5.8S474.75,485.78,475.2,490.1Z"/></g><path class="cls-30" d="M474,496.11a7.73,7.73,0,0,0,2.45-3h0c1.08-2.9-.18-5.8-4.52-9.54a16.87,16.87,0,0,0-2.75-2.15c-5.42-3.43-11.54-4.48-13.7-1.58-2,2.67.06,7.61,4.57,11.49a19.32,19.32,0,0,0,4.76,3.81c3.91,2.31,7.08,2.37,9.22,1Z"/><path class="cls-26" d="M472.39,484.37a6.26,6.26,0,0,1-3.76,8.37c-3.06.86-10.95-3.22-12.54-6.72s-1.28-6.78,1.78-7.65S470.81,480.88,472.39,484.37Z"/><path class="cls-31" d="M470,484a4.22,4.22,0,0,1-2.58,5.64c-2.08.57-7.37-2.19-8.43-4.56s-.83-4.59,1.26-5.15S468.93,481.67,470,484Z"/><path class="cls-32" d="M467.59,483.7a2.18,2.18,0,0,1-1.4,2.9c-1.1.28-3.79-1.16-4.32-2.4s-.37-2.39.73-2.66S467.06,482.46,467.59,483.7Z"/><path class="cls-13" d="M465.19,483.36a.18.18,0,0,1-.22.17.28.28,0,0,1-.22-.24.18.18,0,0,1,.22-.17A.28.28,0,0,1,465.19,483.36Z"/></g></g></svg>