<svg xmlns="http://www.w3.org/2000/svg" viewBox="0 0 146 146"><defs><style>rect{fill:#005baa;}path{fill:#fff;}</style></defs><title>favicon</title><rect width="146" height="146" rx="30"/><path d="M98.88,14.13c-2.11,1.88-3.11,4.57-3.1,8V47.74c-6.08-6.09-15.52-9.67-25.73-9.67H70A38.84,38.84,0,0,0,42.29,49.33,39.52,39.52,0,0,0,31,77.63a39.49,39.49,0,0,0,11.43,28.22A38.82,38.82,0,0,0,70,117h.09A37.8,37.8,0,0,0,95.78,107v7.74h14.27V11.34l-.7-.08C109.09,11.23,102.86,10.57,98.88,14.13ZM70.65,103.62h-.06A24.67,24.67,0,0,1,52.8,96a26.31,26.31,0,0,1-7.45-18.43c0-14.38,11.26-26.1,25.18-26.13h.07c14.6,0,25.21,10.93,25.25,26C95.88,93.32,86,103.58,70.65,103.62Z"/></svg>